STARTFONT 2.1
COMMENT
COMMENT Converted from OpenType font "RuthlessSketch_Italic.ttf" by "otf2bdf 3.0".
COMMENT
FONT -FreeType-Ruthless Sketch-Medium-I-Normal--33-240-100-100-P-180-ISO10646-1
SIZE 24 100 100
FONTBOUNDINGBOX 44 37 -15 -7
STARTPROPERTIES 19
FOUNDRY "FreeType"
FAMILY_NAME "Ruthless Sketch"
WEIGHT_NAME "Medium"
SLANT "I"
SETWIDTH_NAME "Normal"
ADD_STYLE_NAME ""
PIXEL_SIZE 33
POINT_SIZE 240
RESOLUTION_X 100
RESOLUTION_Y 100
SPACING "P"
AVERAGE_WIDTH 180
CHARSET_REGISTRY "ISO10646"
CHARSET_ENCODING "1"
FONT_ASCENT 30
FONT_DESCENT 6
COPYRIGHT "© 2024 GGBotNet. All Rights Reserved."
_OTF_FONTFILE "RuthlessSketch_Italic.ttf"
_OTF_PSNAME "RuthlessSketch-Italic"
ENDPROPERTIES
CHARS 1105
STARTCHAR 0020
ENCODING 32
SWIDTH 300 0
DWIDTH 10 0
BBX 0 0 0 0
BITMAP
ENDCHAR
STARTCHAR 0021
ENCODING 33
SWIDTH 270 0
DWIDTH 9 0
BBX 11 25 3 0
BITMAP
03E0
1FE0
3FE0
3FC0
3FC0
3F80
3F80
3F80
3F00
3F00
3F00
7E00
7E00
7E00
7E00
7C00
7800
0000
0000
1800
FC00
FC00
FC00
F800
F800
ENDCHAR
STARTCHAR 0022
ENCODING 34
SWIDTH 390 0
DWIDTH 13 0
BBX 13 12 5 12
BITMAP
78F0
F8F8
F9F0
F9F0
F9F0
F1E0
F1E0
E1C0
E1C0
E1C0
C180
C180
ENDCHAR
STARTCHAR 0023
ENCODING 35
SWIDTH 510 0
DWIDTH 17 0
BBX 20 23 1 1
BITMAP
003C70
007870
0078E0
0078E0
00F1C0
00FFC0
1FFFE0
1FFFE0
1FFFE0
1FFFC0
038E00
079E00
07FFC0
3FFFC0
7FFF80
7FFF80
7FFF00
3CF000
38F000
78F000
71E000
E1E000
A1C000
ENDCHAR
STARTCHAR 0024
ENCODING 36
SWIDTH 480 0
DWIDTH 16 0
BBX 19 31 1 -4
BITMAP
001E00
001E00
003E00
003C00
003F00
00FFC0
03FFE0
07FFE0
0FFFE0
0FFFE0
0FF8C0
0FF800
0FF800
0FF800
0FFE00
03FF00
01FF00
01FF00
01FF00
3FFF00
3FFE00
7FFE00
7FFC00
7FFC00
FFF800
FFF000
1FC000
07C000
078000
078000
038000
ENDCHAR
STARTCHAR 0025
ENCODING 37
SWIDTH 540 0
DWIDTH 18 0
BBX 19 23 2 0
BITMAP
0000E0
0780E0
0FC1E0
1DC3C0
18C780
38C780
39CF00
39DE00
3FBC00
1F7800
047800
00F300
01EF80
03DF80
07B9C0
07B9C0
0F31C0
1E3180
3C3B80
783F00
701E00
E00000
400000
ENDCHAR
STARTCHAR 0026
ENCODING 38
SWIDTH 510 0
DWIDTH 17 0
BBX 17 22 2 0
BITMAP
01F000
07F800
0FF800
0FF800
0E7800
1E7800
0FF000
0FE000
0FE780
1FE780
3FF700
3FFF00
7CFE00
78FE00
F87C00
F83E00
F87E00
FFFF00
FFFF00
FFFE00
7FE600
1FC200
ENDCHAR
STARTCHAR 0027
ENCODING 39
SWIDTH 210 0
DWIDTH 7 0
BBX 6 12 5 12
BITMAP
7C
FC
FC
FC
FC
F8
F8
F0
F0
E0
E0
C0
ENDCHAR
STARTCHAR 0028
ENCODING 40
SWIDTH 330 0
DWIDTH 11 0
BBX 14 32 2 -5
BITMAP
0010
003C
007C
00F8
01F0
03C0
07C0
0F80
1F00
1E00
3E00
3C00
3C00
7C00
7C00
7800
7800
7800
F800
F800
F000
F000
F000
7800
7800
7C00
3C00
3E00
1F00
1F00
0E00
0800
ENDCHAR
STARTCHAR 0029
ENCODING 41
SWIDTH 330 0
DWIDTH 11 0
BBX 14 31 0 -5
BITMAP
0040
01E0
03E0
01F0
00F0
0078
0078
0078
003C
003C
003C
003C
003C
003C
007C
0078
0078
0078
0078
0078
00F0
00F0
01E0
03E0
07C0
0780
0F00
3E00
7C00
FC00
7800
ENDCHAR
STARTCHAR 002A
ENCODING 42
SWIDTH 300 0
DWIDTH 10 0
BBX 10 9 5 15
BITMAP
0C00
6C80
7FC0
3F00
1C00
3E00
FF00
9B00
1000
ENDCHAR
STARTCHAR 002B
ENCODING 43
SWIDTH 450 0
DWIDTH 15 0
BBX 15 15 3 4
BITMAP
01E0
01E0
03E0
03E0
03C0
7FFE
FFFE
FFFE
FFFE
FFC4
0780
0F80
0F80
0F00
0F00
ENDCHAR
STARTCHAR 002C
ENCODING 44
SWIDTH 210 0
DWIDTH 7 0
BBX 9 11 -2 -6
BITMAP
0700
0F80
1F80
1F80
1F80
0F00
0E00
3C00
FC00
7800
3000
ENDCHAR
STARTCHAR 002D
ENCODING 45
SWIDTH 390 0
DWIDTH 13 0
BBX 12 5 3 9
BITMAP
FFF0
FFF0
FFF0
FFF0
FFE0
ENDCHAR
STARTCHAR 002E
ENCODING 46
SWIDTH 210 0
DWIDTH 7 0
BBX 6 6 1 0
BITMAP
38
7C
FC
FC
FC
78
ENDCHAR
STARTCHAR 002F
ENCODING 47
SWIDTH 450 0
DWIDTH 15 0
BBX 20 27 0 -2
BITMAP
000080
0001F0
0003E0
0003C0
0007C0
000F80
000F80
001F00
003E00
003E00
007C00
00FC00
00F800
01F800
03F000
03F000
07E000
07E000
0FC000
1FC000
1F8000
3F8000
3F0000
7F0000
7E0000
FE0000
FC0000
ENDCHAR
STARTCHAR 0030
ENCODING 48
SWIDTH 390 0
DWIDTH 13 0
BBX 13 23 3 0
BITMAP
0780
0FC0
1FE0
1FF0
1FF0
3FF0
3FF0
7EF8
7CF8
F8F8
F8F0
F8F0
F8F0
F9F0
FFE0
FFE0
FFE0
FFC0
FFC0
7F80
7F80
3F00
1E00
ENDCHAR
STARTCHAR 0031
ENCODING 49
SWIDTH 420 0
DWIDTH 14 0
BBX 12 22 4 1
BITMAP
00E0
01F0
07F0
1FF0
7FF0
FFF0
7BF0
3FE0
17E0
07E0
0FE0
0FE0
0FE0
1FC0
1FC0
1FC0
3FC0
3FC0
3FC0
7FC0
7FC0
1FC0
ENDCHAR
STARTCHAR 0032
ENCODING 50
SWIDTH 510 0
DWIDTH 17 0
BBX 17 23 2 0
BITMAP
01F000
03FC00
07FE00
1FFE00
3FFE00
1F7E00
1E3C00
083C00
007C00
007800
00F800
00F000
01E000
03E380
07FF00
07FF00
0FFE00
1FFE00
3FFE00
7FFC00
FFFC00
7FE000
060000
ENDCHAR
STARTCHAR 0033
ENCODING 51
SWIDTH 450 0
DWIDTH 15 0
BBX 16 23 1 0
BITMAP
0008
07FC
07FC
07F8
0078
00F0
01F0
03E0
07F8
07FE
0FFE
0FFF
001F
000F
000F
000F
001F
003E
F1FE
FFFC
7FF8
1FF0
0FC0
ENDCHAR
STARTCHAR 0034
ENCODING 52
SWIDTH 420 0
DWIDTH 14 0
BBX 14 23 3 0
BITMAP
00C0
07C0
07C0
0780
0F80
0F00
1F00
1E00
3E00
3FFC
7FFC
7FFC
FFFC
FFE0
83C0
0780
0780
0F80
0F80
1F80
1F80
3F80
7F80
ENDCHAR
STARTCHAR 0035
ENCODING 53
SWIDTH 480 0
DWIDTH 16 0
BBX 17 23 2 0
BITMAP
001F80
03FF80
03FF00
03FE00
07C000
07C000
07C000
0FF800
0FFC00
1FFC00
11FE00
007E00
007E00
007E00
003E00
003E00
007E00
80FE00
E1FC00
FFF800
FFF800
7FE000
1FC000
ENDCHAR
STARTCHAR 0036
ENCODING 54
SWIDTH 480 0
DWIDTH 16 0
BBX 17 24 2 -1
BITMAP
000E00
003F00
00FF80
01FF80
07E000
0F8000
0F0000
1F0000
3F0000
3FF800
7FFC00
7FFE00
7FFE00
7E3F00
FC3F00
FC3F00
F83E00
F83E00
F87E00
FCFC00
7FF800
7FF000
3FE000
0F0000
ENDCHAR
STARTCHAR 0037
ENCODING 55
SWIDTH 420 0
DWIDTH 14 0
BBX 17 22 1 1
BITMAP
000380
0FFF80
0FFF80
0FFF00
0FFF00
1FFF00
181F00
003E00
007E00
00FC00
01FC00
01FC00
03F800
07F000
0FF000
0FF000
1FE000
3FE000
3FC000
7FC000
FFC000
F80000
ENDCHAR
STARTCHAR 0038
ENCODING 56
SWIDTH 480 0
DWIDTH 16 0
BBX 16 23 2 1
BITMAP
00FC
03FE
07FE
07FE
079E
079C
07FC
07F8
0FFC
1FFC
1FFE
3FFE
7E3E
7C3F
FC1F
FC1F
FC3F
FFFE
FFFE
7FFC
7FF8
1FF0
07C0
ENDCHAR
STARTCHAR 0039
ENCODING 57
SWIDTH 450 0
DWIDTH 15 0
BBX 16 22 2 0
BITMAP
07FE
0FFF
1FFF
1FBF
1E1F
3E1F
3E1F
3E1F
3EFF
3FFF
3FFE
1FFE
003E
003E
003C
407C
70FC
7FF8
7FF8
FFF0
7FE0
0F80
ENDCHAR
STARTCHAR 003A
ENCODING 58
SWIDTH 210 0
DWIDTH 7 0
BBX 8 16 1 0
BITMAP
1F
1F
3F
3F
3E
18
00
00
00
00
18
7C
FC
FC
FC
78
ENDCHAR
STARTCHAR 003B
ENCODING 59
SWIDTH 210 0
DWIDTH 7 0
BBX 12 21 -2 -6
BITMAP
01E0
03F0
07E0
07E0
03E0
0180
0000
0000
0000
0000
0700
0F80
1F80
1F80
1F80
0F00
0E00
3C00
FC00
7800
3000
ENDCHAR
STARTCHAR 003C
ENCODING 60
SWIDTH 450 0
DWIDTH 15 0
BBX 16 19 3 2
BITMAP
0001
0007
001F
007F
03FF
0FFF
3FFE
FFF0
FF00
FE00
FFC0
7FF8
3FFC
1FFC
07F8
03F8
01F8
0078
0008
ENDCHAR
STARTCHAR 003D
ENCODING 61
SWIDTH 480 0
DWIDTH 16 0
BBX 17 12 2 6
BITMAP
007F80
3FFF80
3FFF80
3FFF80
3FFF00
000000
000000
001E00
7FFE00
FFFE00
FFFE00
FFFE00
ENDCHAR
STARTCHAR 003E
ENCODING 62
SWIDTH 450 0
DWIDTH 15 0
BBX 17 19 1 2
BITMAP
0C0000
0F0000
0FC000
0FE000
1FF000
1FFC00
1FFE00
07FF00
00FF80
001F80
00FF80
1FFF00
7FFE00
7FF000
7FC000
7F0000
7C0000
F00000
400000
ENDCHAR
STARTCHAR 003F
ENCODING 63
SWIDTH 450 0
DWIDTH 15 0
BBX 15 24 4 0
BITMAP
07E0
1FFC
3FFE
7FFE
7FFE
FC7E
707E
007C
007C
00FC
07F8
1FF0
1FC0
3F80
3E00
3E00
3E00
0000
0000
3C00
7C00
FC00
FC00
7800
ENDCHAR
STARTCHAR 0040
ENCODING 64
SWIDTH 660 0
DWIDTH 22 0
BBX 22 29 2 -5
BITMAP
001FC0
00FFF0
03FFF8
07FFFC
07FFFC
0FFFFC
1FF1FC
1FC07C
3F03FC
3E0FFC
3E3FFC
7E7E7C
7C787C
7CF87C
7CF07C
FCF0F8
FCF9F8
FCFFF0
FCFFE0
FC7F80
FC1C00
FC0000
FE0380
FFFF80
FFFFC0
FFFF80
7FFF00
3FFC00
07F000
ENDCHAR
STARTCHAR 0041
ENCODING 65
SWIDTH 630 0
DWIDTH 21 0
BBX 20 23 0 0
BITMAP
0003C0
0007C0
0007C0
000FC0
000FC0
001FC0
001FC0
003FC0
007FC0
007FC0
00FFC0
01EFE0
01CFE0
0387E0
078FE0
07FFE0
0FFFE0
1FEFE0
1F0FF0
3F0FF0
7E0FF0
7E0FF0
F00000
ENDCHAR
STARTCHAR 0042
ENCODING 66
SWIDTH 510 0
DWIDTH 17 0
BBX 15 23 3 0
BITMAP
0FE0
3FF8
3FFC
3FFC
3FFE
3F7E
3E3E
3E3C
3E3C
3FF8
7FF0
7FF8
7FFC
7FFE
7E3E
7E3E
7E7E
7EFE
7FFC
FFFC
FFF0
FFE0
7C00
ENDCHAR
STARTCHAR 0043
ENCODING 67
SWIDTH 480 0
DWIDTH 16 0
BBX 17 23 3 0
BITMAP
003800
01FF00
07FF80
0FFF80
1FFF80
3FFF00
3FFD00
7F8000
7F0000
7E0000
FE0000
FE0000
FE0000
FFFC00
FFFC00
FFFC00
FFFC00
FFFC00
FFFC00
FFF800
7FF000
3FC000
030000
ENDCHAR
STARTCHAR 0044
ENCODING 68
SWIDTH 450 0
DWIDTH 15 0
BBX 15 23 3 0
BITMAP
0F80
3FE0
3FF0
3FF8
7FFC
7FFC
7F7C
7E3E
7E1E
7E3E
7E3E
7C7C
7CF8
7DF8
FFF0
FFE0
FFE0
FFC0
FF80
7F00
7C00
7000
4000
ENDCHAR
STARTCHAR 0045
ENCODING 69
SWIDTH 480 0
DWIDTH 16 0
BBX 13 23 4 0
BITMAP
1FF8
7FF8
7FF8
7FF0
7FF0
7FF0
7FE0
7E00
7E00
7EE0
7FC0
7FC0
7FC0
7C00
7FF0
7FF8
7FF8
7FF8
7FF8
FFF8
FFF0
FF80
F000
ENDCHAR
STARTCHAR 0046
ENCODING 70
SWIDTH 480 0
DWIDTH 16 0
BBX 19 23 1 0
BITMAP
01FFE0
0FFFE0
0FFFE0
0FFFE0
1FFFE0
1FC000
1F8000
1F8000
1FB000
1FF000
3FF000
3FF000
3FF000
3F0000
7E0000
7E0000
7E0000
7E0000
7C0000
7C0000
7C0000
FE0000
780000
ENDCHAR
STARTCHAR 0047
ENCODING 71
SWIDTH 480 0
DWIDTH 16 0
BBX 18 23 2 0
BITMAP
003E00
00FF80
01FF80
03FFC0
07FF80
07E700
0F8000
1F0000
1E0000
1E0000
3C3F80
3C7F80
7C7F00
7C7F00
FC7F00
FC7F00
FFFE00
FFFE00
FFFC00
FFF800
7FE000
7F8000
180000
ENDCHAR
STARTCHAR 0048
ENCODING 72
SWIDTH 540 0
DWIDTH 18 0
BBX 22 23 1 0
BITMAP
000800
03F87C
03F0FC
03F9F8
03F1F8
07F1F8
07F3F0
07F3F0
0FE3F0
0FFFF0
0FFFE0
1FFFE0
1FFFE0
1FFFE0
1FFFE0
3FAFC0
3F9FC0
3F9FC0
7F9F80
7F1F80
7F1F80
FF3F00
0A2000
ENDCHAR
STARTCHAR 0049
ENCODING 73
SWIDTH 330 0
DWIDTH 11 0
BBX 14 22 1 0
BITMAP
01FC
01FC
03F8
03F8
07F0
07F0
07F0
07F0
0FE0
0FE0
0FE0
1FE0
1FC0
1FC0
1FC0
3FC0
3FC0
3F80
7F80
7F00
7F00
F000
ENDCHAR
STARTCHAR 004A
ENCODING 74
SWIDTH 450 0
DWIDTH 15 0
BBX 17 22 2 1
BITMAP
003F80
007F80
007F80
00FF00
00FF00
00FF00
01FF00
01FF00
01FF00
01FE00
01FE00
01FE00
01FE00
01FC00
09FC00
F9FC00
FDF800
FDF000
FFF000
FFE000
7FC000
1F0000
ENDCHAR
STARTCHAR 004B
ENCODING 75
SWIDTH 540 0
DWIDTH 18 0
BBX 21 23 1 0
BITMAP
004860
07F8E0
0FF9F8
0FF3F8
0FF7F0
0FF7E0
1FFFC0
1FFF80
1FFF00
1FFE00
3FFC00
3FFC00
3FF800
3FFC00
7FFE00
7FFE00
7FFF00
7FBF00
7F9F80
FF9F80
FF8F80
FF8E80
DF0C00
ENDCHAR
STARTCHAR 004C
ENCODING 76
SWIDTH 510 0
DWIDTH 17 0
BBX 16 23 1 -1
BITMAP
001E
01FF
01FE
03FE
03FE
03FC
07FC
07F8
07F8
07F8
0FF0
0FF0
1FF0
1FE0
1FE0
3FE0
3FFF
3FFF
3FFF
7FFF
7FFF
7FFF
FFF8
ENDCHAR
STARTCHAR 004D
ENCODING 77
SWIDTH 630 0
DWIDTH 21 0
BBX 22 23 1 0
BITMAP
018000
01801C
01C03C
01C03C
03E07C
03E0FC
07F0FC
07F1FC
07F3FC
0FFFFC
0FFFF8
0FFFF8
1FFFF8
1FDFF8
1FDBF8
3F83F8
3F07F8
7F07F8
7E07F8
7E07F8
FC0FF8
FC0FF8
F80000
ENDCHAR
STARTCHAR 004E
ENCODING 78
SWIDTH 540 0
DWIDTH 18 0
BBX 22 22 1 0
BITMAP
03F8F8
03F9FC
03F9F8
07F1F8
07F3F8
0FF3F0
0FF3F0
0FF3F0
1FF3E0
1FF7E0
1FFFE0
1FFFE0
3FFFC0
3FFFC0
3F7FC0
7F7F80
7F3F80
7E3F80
7E3F80
FE3F00
FE3F00
E00800
ENDCHAR
STARTCHAR 004F
ENCODING 79
SWIDTH 510 0
DWIDTH 17 0
BBX 17 23 3 0
BITMAP
01E000
03F000
07FC00
0FFE00
0FFE00
1FFF00
3FFF00
3FFF00
7F3F80
7E1F80
FE1F80
FC3F80
FC3F80
FE7F00
FFFF00
FFFF00
FFFE00
FFFE00
FFFC00
FFFC00
7FF800
3FF000
1FC000
ENDCHAR
STARTCHAR 0050
ENCODING 80
SWIDTH 480 0
DWIDTH 16 0
BBX 18 23 1 0
BITMAP
007800
07FF00
07FF80
07FFC0
07FFC0
0FCFC0
0FC3C0
0FC3C0
0FC7C0
1FC7C0
1FFFC0
1FFF80
3FFF00
3FFC00
3FC000
7F8000
7F8000
7F8000
7F8000
FF8000
FF8000
FF0000
FF0000
ENDCHAR
STARTCHAR 0051
ENCODING 81
SWIDTH 600 0
DWIDTH 20 0
BBX 18 24 2 -1
BITMAP
00FC00
03FE00
03FF00
07FF00
0FFF80
1FFFC0
1F9FC0
1F0FC0
3F0FC0
3F07C0
7E07C0
7E0FC0
7E0F80
7FBF80
FFFF00
FFFF00
FFFE00
FFFE00
7FFF00
7FFF00
3FFF80
1FFF80
003FC0
003F00
ENDCHAR
STARTCHAR 0052
ENCODING 82
SWIDTH 570 0
DWIDTH 19 0
BBX 18 24 2 -1
BITMAP
00F800
0FFE00
1FFF80
1FFF80
1FC7C0
3FC3C0
3FC3C0
3FC3C0
3FC780
3FDF80
3FFF00
3FFE00
7FFC00
7FFC00
7FFC00
7FBE00
7FBE00
7FBF00
7F9F00
FF9F00
FF1F80
FF1F80
7F0F00
780000
ENDCHAR
STARTCHAR 0053
ENCODING 83
SWIDTH 480 0
DWIDTH 16 0
BBX 20 23 1 0
BITMAP
003FE0
01FFF0
01FFE0
03FFC0
07FFC0
07FF80
0FFF00
0FFF00
0FDE00
0F8000
0FE000
0FF800
07FE00
01FF00
007F00
003F00
303F00
7FFF00
FFFE00
FFFE00
7FFC00
7FF000
1FC000
ENDCHAR
STARTCHAR 0054
ENCODING 84
SWIDTH 570 0
DWIDTH 19 0
BBX 19 23 4 0
BITMAP
000100
7FFFC0
7FFFC0
7FFFE0
7FFFE0
FFFFC0
FFFFC0
F9F800
81F000
03E000
03E000
03E000
03E000
07C000
07C000
07C000
07C000
0F8000
0F8000
0F8000
0F8000
0F8000
0F0000
ENDCHAR
STARTCHAR 0055
ENCODING 85
SWIDTH 540 0
DWIDTH 18 0
BBX 19 22 3 1
BITMAP
060200
0F83E0
0F83E0
1F03E0
1F07E0
3F07C0
3E07C0
7E0FC0
7E0FC0
7E0FC0
FE1F80
FE1F80
FE1F80
FFFF00
FFFF00
FFFE00
FFFE00
FFFC00
FFF800
FFF000
7FE000
3FC000
ENDCHAR
STARTCHAR 0056
ENCODING 86
SWIDTH 570 0
DWIDTH 19 0
BBX 19 21 5 1
BITMAP
C007E0
FE0FE0
7F0FC0
7F9FC0
7F1FC0
7F1F80
7F3F80
7F3F00
3F3F00
3F7E00
3FFE00
1FFC00
1FFC00
1FF800
0FF800
0FF800
07F000
07F000
03E000
03E000
01E000
ENDCHAR
STARTCHAR 0057
ENCODING 87
SWIDTH 720 0
DWIDTH 24 0
BBX 23 23 5 0
BITMAP
000022
FC183E
FC187E
FE38FC
FE38FC
FE39F8
FE79F8
FE7BF0
FF7FF0
FFFFF0
7FFFE0
7FFFE0
7FFFC0
7FFFC0
3FFFC0
3F9F80
3F9F80
3F1F80
1E1F00
1E1F00
1C1E00
0C1C00
080000
ENDCHAR
STARTCHAR 0058
ENCODING 88
SWIDTH 570 0
DWIDTH 19 0
BBX 21 22 2 1
BITMAP
0000E0
0F80F8
1F81F8
1FC3F0
1FC7E0
1FC7E0
1FCFC0
1FEFC0
0FFF80
07FF00
07FF00
03FE00
03FC00
03FC00
07FC00
0FFE00
1FFE00
1F7E00
3F3E00
7F3E00
7E1E00
FE0000
ENDCHAR
STARTCHAR 0059
ENCODING 89
SWIDTH 600 0
DWIDTH 20 0
BBX 20 23 5 0
BITMAP
0001F0
0C03E0
FC07C0
FC0FC0
FE0F80
FE1F00
7E3F00
7E7E00
7E7C00
3FFC00
3FF800
3FF000
3FF000
1FE000
1FC000
1F8000
0F8000
0F8000
0F8000
1F8000
1F8000
1F8000
1F0000
ENDCHAR
STARTCHAR 005A
ENCODING 90
SWIDTH 600 0
DWIDTH 20 0
BBX 17 23 4 0
BITMAP
01FE00
1FFF80
3FFF00
7FFE00
7FFC00
FFFC00
80F800
01F000
01F000
03E000
03E000
07C000
0FC000
0F8000
1F8000
1F0000
3E0000
3FFF80
7FFF00
7FFF00
FFFE00
0FFC00
01C000
ENDCHAR
STARTCHAR 005B
ENCODING 91
SWIDTH 330 0
DWIDTH 11 0
BBX 17 32 0 -5
BITMAP
01FF80
03FF80
03FF00
03FF00
07FC00
07C000
07C000
07C000
07C000
0F8000
0F8000
0F8000
0F8000
0F8000
1F0000
1F0000
1F0000
1F0000
3E0000
3E0000
3E0000
3E0000
3E0000
7C0000
7C0000
7C0000
7C0000
7FE000
FFE000
FFE000
FFC000
FF8000
ENDCHAR
STARTCHAR 005C
ENCODING 92
SWIDTH 450 0
DWIDTH 15 0
BBX 8 27 6 -2
BITMAP
F8
FC
FC
FC
FC
FC
FC
FC
FC
FC
FE
7E
7E
7E
7E
3E
3E
3E
3E
3F
1F
1F
1F
1F
0F
0F
08
ENDCHAR
STARTCHAR 005D
ENCODING 93
SWIDTH 330 0
DWIDTH 11 0
BBX 17 32 0 -5
BITMAP
03FF80
03FF80
03FF00
03FF00
07FF00
001F00
001F00
003E00
003E00
003E00
003E00
007C00
007C00
007C00
007C00
007C00
00F800
00F800
00F800
00F800
00F800
01F000
01F000
01F000
01E000
01E000
03E000
7FE000
FFE000
FFE000
FFC000
FC0000
ENDCHAR
STARTCHAR 005E
ENCODING 94
SWIDTH 480 0
DWIDTH 16 0
BBX 15 13 3 11
BITMAP
0078
00F8
01F8
03F8
07F8
07FC
0FBC
1F3C
3F3C
7E3E
7E3E
FC3E
FC7E
ENDCHAR
STARTCHAR 005F
ENCODING 95
SWIDTH 390 0
DWIDTH 13 0
BBX 12 4 0 -4
BITMAP
FFF0
FFF0
FFF0
FFF0
ENDCHAR
STARTCHAR 0060
ENCODING 96
SWIDTH 210 0
DWIDTH 7 0
BBX 5 5 7 24
BITMAP
F0
F0
F8
78
38
ENDCHAR
STARTCHAR 0061
ENCODING 97
SWIDTH 630 0
DWIDTH 21 0
BBX 20 23 0 0
BITMAP
0003C0
0007C0
0007C0
000FC0
000FC0
001FC0
001FC0
003FC0
007FC0
007FC0
00FFC0
01EFE0
01CFE0
0387E0
078FE0
07FFE0
0FFFE0
1FEFE0
1F0FF0
3F0FF0
7E0FF0
7E0FF0
F00000
ENDCHAR
STARTCHAR 0062
ENCODING 98
SWIDTH 510 0
DWIDTH 17 0
BBX 15 23 3 0
BITMAP
0FE0
3FF8
3FFC
3FFC
3FFE
3F7E
3E3E
3E3C
3E3C
3FF8
7FF0
7FF8
7FFC
7FFE
7E3E
7E3E
7E7E
7EFE
7FFC
FFFC
FFF0
FFE0
7C00
ENDCHAR
STARTCHAR 0063
ENCODING 99
SWIDTH 480 0
DWIDTH 16 0
BBX 17 23 3 0
BITMAP
003800
01FF00
07FF80
0FFF80
1FFF80
3FFF00
3FFD00
7F8000
7F0000
7E0000
FE0000
FE0000
FE0000
FFFC00
FFFC00
FFFC00
FFFC00
FFFC00
FFFC00
FFF800
7FF000
3FC000
030000
ENDCHAR
STARTCHAR 0064
ENCODING 100
SWIDTH 450 0
DWIDTH 15 0
BBX 15 23 3 0
BITMAP
0F80
3FE0
3FF0
3FF8
7FFC
7FFC
7F7C
7E3E
7E1E
7E3E
7E3E
7C7C
7CF8
7DF8
FFF0
FFE0
FFE0
FFC0
FF80
7F00
7C00
7000
4000
ENDCHAR
STARTCHAR 0065
ENCODING 101
SWIDTH 480 0
DWIDTH 16 0
BBX 13 23 4 0
BITMAP
1FF8
7FF8
7FF8
7FF0
7FF0
7FF0
7FE0
7E00
7E00
7EE0
7FC0
7FC0
7FC0
7C00
7FF0
7FF8
7FF8
7FF8
7FF8
FFF8
FFF0
FF80
F000
ENDCHAR
STARTCHAR 0066
ENCODING 102
SWIDTH 480 0
DWIDTH 16 0
BBX 19 23 1 0
BITMAP
01FFE0
0FFFE0
0FFFE0
0FFFE0
1FFFE0
1FC000
1F8000
1F8000
1FB000
1FF000
3FF000
3FF000
3FF000
3F0000
7E0000
7E0000
7E0000
7E0000
7C0000
7C0000
7C0000
FE0000
780000
ENDCHAR
STARTCHAR 0067
ENCODING 103
SWIDTH 480 0
DWIDTH 16 0
BBX 18 23 2 0
BITMAP
003E00
00FF80
01FF80
03FFC0
07FF80
07E700
0F8000
1F0000
1E0000
1E0000
3C3F80
3C7F80
7C7F00
7C7F00
FC7F00
FC7F00
FFFE00
FFFE00
FFFC00
FFF800
7FE000
7F8000
180000
ENDCHAR
STARTCHAR 0068
ENCODING 104
SWIDTH 540 0
DWIDTH 18 0
BBX 22 23 1 0
BITMAP
000800
03F87C
03F0FC
03F9F8
03F1F8
07F1F8
07F3F0
07F3F0
0FE3F0
0FFFF0
0FFFE0
1FFFE0
1FFFE0
1FFFE0
1FFFE0
3FAFC0
3F9FC0
3F9FC0
7F9F80
7F1F80
7F1F80
FF3F00
0A2000
ENDCHAR
STARTCHAR 0069
ENCODING 105
SWIDTH 330 0
DWIDTH 11 0
BBX 14 22 1 0
BITMAP
01FC
01FC
03F8
03F8
07F0
07F0
07F0
07F0
0FE0
0FE0
0FE0
1FE0
1FC0
1FC0
1FC0
3FC0
3FC0
3F80
7F80
7F00
7F00
F000
ENDCHAR
STARTCHAR 006A
ENCODING 106
SWIDTH 450 0
DWIDTH 15 0
BBX 17 22 2 1
BITMAP
003F80
007F80
007F80
00FF00
00FF00
00FF00
01FF00
01FF00
01FF00
01FE00
01FE00
01FE00
01FE00
01FC00
09FC00
F9FC00
FDF800
FDF000
FFF000
FFE000
7FC000
1F0000
ENDCHAR
STARTCHAR 006B
ENCODING 107
SWIDTH 540 0
DWIDTH 18 0
BBX 21 23 1 0
BITMAP
004860
07F8E0
0FF9F8
0FF3F8
0FF7F0
0FF7E0
1FFFC0
1FFF80
1FFF00
1FFE00
3FFC00
3FFC00
3FF800
3FFC00
7FFE00
7FFE00
7FFF00
7FBF00
7F9F80
FF9F80
FF8F80
FF8E80
DF0C00
ENDCHAR
STARTCHAR 006C
ENCODING 108
SWIDTH 510 0
DWIDTH 17 0
BBX 16 23 1 -1
BITMAP
001E
01FF
01FE
03FE
03FE
03FC
07FC
07F8
07F8
07F8
0FF0
0FF0
1FF0
1FE0
1FE0
3FE0
3FFF
3FFF
3FFF
7FFF
7FFF
7FFF
FFF8
ENDCHAR
STARTCHAR 006D
ENCODING 109
SWIDTH 630 0
DWIDTH 21 0
BBX 22 23 1 0
BITMAP
018000
01801C
01C03C
01C03C
03E07C
03E0FC
07F0FC
07F1FC
07F3FC
0FFFFC
0FFFF8
0FFFF8
1FFFF8
1FDFF8
1FDBF8
3F83F8
3F07F8
7F07F8
7E07F8
7E07F8
FC0FF8
FC0FF8
F80000
ENDCHAR
STARTCHAR 006E
ENCODING 110
SWIDTH 540 0
DWIDTH 18 0
BBX 22 22 1 0
BITMAP
03F8F8
03F9FC
03F9F8
07F1F8
07F3F8
0FF3F0
0FF3F0
0FF3F0
1FF3E0
1FF7E0
1FFFE0
1FFFE0
3FFFC0
3FFFC0
3F7FC0
7F7F80
7F3F80
7E3F80
7E3F80
FE3F00
FE3F00
E00800
ENDCHAR
STARTCHAR 006F
ENCODING 111
SWIDTH 510 0
DWIDTH 17 0
BBX 17 23 3 0
BITMAP
01E000
03F000
07FC00
0FFE00
0FFE00
1FFF00
3FFF00
3FFF00
7F3F80
7E1F80
FE1F80
FC3F80
FC3F80
FE7F00
FFFF00
FFFF00
FFFE00
FFFE00
FFFC00
FFFC00
7FF800
3FF000
1FC000
ENDCHAR
STARTCHAR 0070
ENCODING 112
SWIDTH 480 0
DWIDTH 16 0
BBX 18 23 1 0
BITMAP
007800
07FF00
07FF80
07FFC0
07FFC0
0FCFC0
0FC3C0
0FC3C0
0FC7C0
1FC7C0
1FFFC0
1FFF80
3FFF00
3FFC00
3FC000
7F8000
7F8000
7F8000
7F8000
FF8000
FF8000
FF0000
FF0000
ENDCHAR
STARTCHAR 0071
ENCODING 113
SWIDTH 600 0
DWIDTH 20 0
BBX 18 24 2 -1
BITMAP
00FC00
03FE00
03FF00
07FF00
0FFF80
1FFFC0
1F9FC0
1F0FC0
3F0FC0
3F07C0
7E07C0
7E0FC0
7E0F80
7FBF80
FFFF00
FFFF00
FFFE00
FFFE00
7FFF00
7FFF00
3FFF80
1FFF80
003FC0
003F00
ENDCHAR
STARTCHAR 0072
ENCODING 114
SWIDTH 570 0
DWIDTH 19 0
BBX 18 24 2 -1
BITMAP
00F800
0FFE00
1FFF80
1FFF80
1FC7C0
3FC3C0
3FC3C0
3FC3C0
3FC780
3FDF80
3FFF00
3FFE00
7FFC00
7FFC00
7FFC00
7FBE00
7FBE00
7FBF00
7F9F00
FF9F00
FF1F80
FF1F80
7F0F00
780000
ENDCHAR
STARTCHAR 0073
ENCODING 115
SWIDTH 480 0
DWIDTH 16 0
BBX 20 23 1 0
BITMAP
003FE0
01FFF0
01FFE0
03FFC0
07FFC0
07FF80
0FFF00
0FFF00
0FDE00
0F8000
0FE000
0FF800
07FE00
01FF00
007F00
003F00
303F00
7FFF00
FFFE00
FFFE00
7FFC00
7FF000
1FC000
ENDCHAR
STARTCHAR 0074
ENCODING 116
SWIDTH 570 0
DWIDTH 19 0
BBX 19 23 4 0
BITMAP
000100
7FFFC0
7FFFC0
7FFFE0
7FFFE0
FFFFC0
FFFFC0
F9F800
81F000
03E000
03E000
03E000
03E000
07C000
07C000
07C000
07C000
0F8000
0F8000
0F8000
0F8000
0F8000
0F0000
ENDCHAR
STARTCHAR 0075
ENCODING 117
SWIDTH 540 0
DWIDTH 18 0
BBX 19 22 3 1
BITMAP
060200
0F83E0
0F83E0
1F03E0
1F07E0
3F07C0
3E07C0
7E0FC0
7E0FC0
7E0FC0
FE1F80
FE1F80
FE1F80
FFFF00
FFFF00
FFFE00
FFFE00
FFFC00
FFF800
FFF000
7FE000
3FC000
ENDCHAR
STARTCHAR 0076
ENCODING 118
SWIDTH 570 0
DWIDTH 19 0
BBX 19 21 5 1
BITMAP
C007E0
FE0FE0
7F0FC0
7F9FC0
7F1FC0
7F1F80
7F3F80
7F3F00
3F3F00
3F7E00
3FFE00
1FFC00
1FFC00
1FF800
0FF800
0FF800
07F000
07F000
03E000
03E000
01E000
ENDCHAR
STARTCHAR 0077
ENCODING 119
SWIDTH 720 0
DWIDTH 24 0
BBX 23 23 5 0
BITMAP
000022
FC183E
FC187E
FE38FC
FE38FC
FE39F8
FE79F8
FE7BF0
FF7FF0
FFFFF0
7FFFE0
7FFFE0
7FFFC0
7FFFC0
3FFFC0
3F9F80
3F9F80
3F1F80
1E1F00
1E1F00
1C1E00
0C1C00
080000
ENDCHAR
STARTCHAR 0078
ENCODING 120
SWIDTH 570 0
DWIDTH 19 0
BBX 21 22 2 1
BITMAP
0000E0
0F80F8
1F81F8
1FC3F0
1FC7E0
1FC7E0
1FCFC0
1FEFC0
0FFF80
07FF00
07FF00
03FE00
03FC00
03FC00
07FC00
0FFE00
1FFE00
1F7E00
3F3E00
7F3E00
7E1E00
FE0000
ENDCHAR
STARTCHAR 0079
ENCODING 121
SWIDTH 600 0
DWIDTH 20 0
BBX 20 23 5 0
BITMAP
0001F0
0C03E0
FC07C0
FC0FC0
FE0F80
FE1F00
7E3F00
7E7E00
7E7C00
3FFC00
3FF800
3FF000
3FF000
1FE000
1FC000
1F8000
0F8000
0F8000
0F8000
1F8000
1F8000
1F8000
1F0000
ENDCHAR
STARTCHAR 007A
ENCODING 122
SWIDTH 600 0
DWIDTH 20 0
BBX 17 23 4 0
BITMAP
01FE00
1FFF80
3FFF00
7FFE00
7FFC00
FFFC00
80F800
01F000
01F000
03E000
03E000
07C000
0FC000
0F8000
1F8000
1F0000
3E0000
3FFF80
7FFF00
7FFF00
FFFE00
0FFC00
01C000
ENDCHAR
STARTCHAR 007B
ENCODING 123
SWIDTH 330 0
DWIDTH 11 0
BBX 13 32 3 -4
BITMAP
0010
0078
0078
00F8
01F8
03E0
03C0
03C0
0780
0780
0F00
0F00
1F00
3E00
7E00
FC00
FE00
FE00
1E00
3E00
3E00
3E00
3C00
3C00
3C00
3C00
7C00
7E00
3F00
3E00
1E00
0C00
ENDCHAR
STARTCHAR 007C
ENCODING 124
SWIDTH 180 0
DWIDTH 6 0
BBX 11 33 0 -5
BITMAP
01E0
03E0
03E0
03E0
03E0
07C0
07C0
07C0
07C0
07C0
0F80
0F80
0F80
0F80
0F00
1F00
1F00
1F00
1F00
3F00
3E00
3E00
3E00
3E00
7C00
7C00
7C00
7C00
7800
F800
F800
F800
F800
ENDCHAR
STARTCHAR 007D
ENCODING 125
SWIDTH 330 0
DWIDTH 11 0
BBX 13 32 1 -4
BITMAP
0180
03C0
03E0
07E0
03F0
01E0
01E0
01E0
01E0
03E0
03E0
03E0
03C0
03C0
03F8
03F8
01F8
03F0
03C0
07C0
0780
0780
0F00
0F00
1E00
3E00
3C00
FC00
F800
F000
E000
4000
ENDCHAR
STARTCHAR 007E
ENCODING 126
SWIDTH 480 0
DWIDTH 16 0
BBX 16 7 2 9
BITMAP
1F1F
3FDF
7FFF
7FFF
7FFE
7BFC
F0F0
ENDCHAR
STARTCHAR 00A0
ENCODING 160
SWIDTH 300 0
DWIDTH 10 0
BBX 0 0 0 0
BITMAP
ENDCHAR
STARTCHAR 00A1
ENCODING 161
SWIDTH 270 0
DWIDTH 9 0
BBX 13 25 -1 -7
BITMAP
0060
01F8
01F0
03F0
03F0
01E0
0040
0000
0000
07C0
07C0
07C0
0FC0
0FC0
0FC0
1F80
1F80
3F80
3F80
3F80
7F80
7F80
7F80
7F80
FF80
ENDCHAR
STARTCHAR 00A2
ENCODING 162
SWIDTH 480 0
DWIDTH 16 0
BBX 18 29 2 -3
BITMAP
000200
0007C0
0007C0
000F80
00FF80
03FF80
07FFC0
0FFFC0
0FFF80
1FFF80
3FFF80
3FFF80
3F7900
7EF800
7CF000
7DF000
7DE000
FFE000
FFE000
FFDE00
FFFE00
7FFE00
7FFE00
3FFC00
1FF800
1FE000
1E0000
3E0000
1C0000
ENDCHAR
STARTCHAR 00A3
ENCODING 163
SWIDTH 540 0
DWIDTH 18 0
BBX 20 23 1 0
BITMAP
000700
001FC0
003FF0
007FF0
00FFF0
00FBF0
01F9F0
03F9E0
03F000
03F000
3FFF80
3FFF00
3FFF00
3FFF00
07E000
0FE000
0FE000
1FE000
7FFFC0
7FFF80
FFFF80
FFFF00
1FFE00
ENDCHAR
STARTCHAR 00A4
ENCODING 164
SWIDTH 420 0
DWIDTH 14 0
BBX 16 14 2 5
BITMAP
0400
0E1C
1FFE
3FFF
3FFE
1E78
1C38
1C78
1C70
3CF8
7FFC
FFFC
7F70
3060
ENDCHAR
STARTCHAR 00A5
ENCODING 165
SWIDTH 600 0
DWIDTH 20 0
BBX 22 23 3 0
BITMAP
00007C
0300F8
3F01F0
3F03F0
3F83E0
3F87C0
1F8FC0
1F9F80
1F9F00
0FFF00
3FFF80
3FFF80
3FFF00
7FFF00
3FF000
07E000
7FFF00
7FFF00
7FFE00
FFFE00
07E000
07E000
07C000
ENDCHAR
STARTCHAR 00A6
ENCODING 166
SWIDTH 180 0
DWIDTH 6 0
BBX 11 33 0 -5
BITMAP
01E0
03E0
03E0
03E0
03E0
07C0
07C0
07C0
07C0
07C0
0F80
0F80
0F80
0F80
0800
0000
0000
0000
0000
1E00
3E00
3E00
3E00
7E00
7C00
7C00
7C00
7C00
7C00
F800
F800
F800
F000
ENDCHAR
STARTCHAR 00A7
ENCODING 167
SWIDTH 480 0
DWIDTH 16 0
BBX 16 29 3 -3
BITMAP
0078
01FE
07FF
0FFF
0FFF
0FFE
1FC4
0F80
0FC0
3FF8
3FFC
7FFE
7FFF
FC3F
FC3F
FE7E
FFFE
7FFC
3FFC
07F8
03F0
03F0
63F0
FFF0
FFF0
FFE0
FFC0
7F00
0800
ENDCHAR
STARTCHAR 00A8
ENCODING 168
SWIDTH 300 0
DWIDTH 10 0
BBX 9 4 6 23
BITMAP
6380
F380
E780
4000
ENDCHAR
STARTCHAR 00A9
ENCODING 169
SWIDTH 660 0
DWIDTH 22 0
BBX 22 21 3 1
BITMAP
00FFC0
03FFF0
0FFFF8
1FC1F8
1F00F8
3C3C78
787E38
70FE3C
71FE3C
E1C038
E1C038
E3C078
E3C070
E3F870
F1F8E0
F0F0E0
F803C0
FC1F80
7FFE00
3FFC00
07F000
ENDCHAR
STARTCHAR 00AA
ENCODING 170
SWIDTH 330 0
DWIDTH 11 0
BBX 10 11 3 12
BITMAP
0380
0380
0780
0780
0F80
1B80
1380
3F80
7B80
63C0
E3C0
ENDCHAR
STARTCHAR 00AB
ENCODING 171
SWIDTH 450 0
DWIDTH 15 0
BBX 16 14 2 0
BITMAP
0181
0383
0F0F
1F1F
3F7F
7EFE
F8F0
F0F0
FCF8
FEFC
3E7C
1E3C
0C1C
041C
ENDCHAR
STARTCHAR 00AC
ENCODING 172
SWIDTH 480 0
DWIDTH 16 0
BBX 15 8 3 6
BITMAP
7FFE
FFFE
FFFE
FFFE
FFFC
007C
007C
007C
ENDCHAR
STARTCHAR 00AD
ENCODING 173
SWIDTH 390 0
DWIDTH 13 0
BBX 12 5 3 9
BITMAP
7FF0
FFF0
FFF0
FFF0
FFE0
ENDCHAR
STARTCHAR 00AE
ENCODING 174
SWIDTH 450 0
DWIDTH 15 0
BBX 14 14 4 10
BITMAP
01C0
0FF0
3FF8
391C
77CC
664C
E6CC
C78C
CF9C
CE98
EEB8
F070
7FE0
3FC0
ENDCHAR
STARTCHAR 00AF
ENCODING 175
SWIDTH 300 0
DWIDTH 10 0
BBX 10 3 6 24
BITMAP
FFC0
FFC0
FFC0
ENDCHAR
STARTCHAR 00B0
ENCODING 176
SWIDTH 300 0
DWIDTH 10 0
BBX 10 11 4 13
BITMAP
0700
1F80
3FC0
79C0
71C0
F1C0
F1C0
F3C0
7F80
7F00
3C00
ENDCHAR
STARTCHAR 00B1
ENCODING 177
SWIDTH 450 0
DWIDTH 15 0
BBX 17 19 1 0
BITMAP
00F800
00F800
00F800
00F000
00F000
3FFF80
3FFF80
3FFF80
3FFF80
27FF00
03E000
03E000
03E000
03C000
000000
7FFC00
FFFE00
FFFC00
FFFC00
ENDCHAR
STARTCHAR 00B2
ENCODING 178
SWIDTH 270 0
DWIDTH 9 0
BBX 8 11 4 12
BITMAP
1C
3E
7E
26
0C
0C
18
3F
7E
FE
FC
ENDCHAR
STARTCHAR 00B3
ENCODING 179
SWIDTH 240 0
DWIDTH 8 0
BBX 8 12 3 11
BITMAP
02
1E
16
0C
1E
3F
07
03
03
DE
7E
38
ENDCHAR
STARTCHAR 00B4
ENCODING 180
SWIDTH 210 0
DWIDTH 7 0
BBX 7 5 6 24
BITMAP
1E
3E
7C
78
E0
ENDCHAR
STARTCHAR 00B5
ENCODING 181
SWIDTH 540 0
DWIDTH 18 0
BBX 21 23 0 -5
BITMAP
0180E0
0FC3F0
0F83F0
0F83F0
1F83F8
1F83F0
1F83F0
1F87F0
1F87F0
3F9FE0
3FFFE0
3FFFC0
3FFFC0
3FFF80
7FFF00
7FFF00
7FFC00
7C0000
FC0000
F80000
F80000
F80000
F00000
ENDCHAR
STARTCHAR 00B6
ENCODING 182
SWIDTH 390 0
DWIDTH 13 0
BBX 13 27 4 -3
BITMAP
03F8
0FF8
3FF8
7FF8
7FF8
FF70
FE70
FE70
FE70
FEF0
FCE0
FCE0
FCE0
FDE0
3DE0
3DC0
39C0
39C0
7BC0
7BC0
7B80
7380
7780
F780
F700
F700
0400
ENDCHAR
STARTCHAR 00B7
ENCODING 183
SWIDTH 210 0
DWIDTH 7 0
BBX 6 6 3 9
BITMAP
38
7C
FC
FC
FC
70
ENDCHAR
STARTCHAR 00B8
ENCODING 184
SWIDTH 300 0
DWIDTH 10 0
BBX 9 7 0 -6
BITMAP
1E00
1E00
0F00
0780
FF80
FF00
1400
ENDCHAR
STARTCHAR 00B9
ENCODING 185
SWIDTH 210 0
DWIDTH 7 0
BBX 6 11 5 12
BITMAP
18
3C
FC
D8
38
38
78
78
78
F8
F8
ENDCHAR
STARTCHAR 00BA
ENCODING 186
SWIDTH 270 0
DWIDTH 9 0
BBX 9 11 4 12
BITMAP
1C00
3F00
3F00
7F00
7380
E780
F780
FF00
FF00
FE00
7C00
ENDCHAR
STARTCHAR 00BB
ENCODING 187
SWIDTH 450 0
DWIDTH 15 0
BBX 16 15 1 1
BITMAP
1820
3C30
3C38
3E7C
3F7E
1F7F
070F
070F
3F3F
7EFC
F8F8
F0F0
E0E0
81C0
0100
ENDCHAR
STARTCHAR 00BC
ENCODING 188
SWIDTH 540 0
DWIDTH 18 0
BBX 19 23 2 0
BITMAP
0300E0
0780E0
1F81E0
1B03C0
070780
070780
0F0F00
0F1E00
0F3C00
1F7800
1F7800
00F000
01E700
03C600
078E00
078C00
0F1FC0
1E1FC0
3C1F00
780600
700600
E00E00
400E00
ENDCHAR
STARTCHAR 00BD
ENCODING 189
SWIDTH 540 0
DWIDTH 18 0
BBX 19 23 2 0
BITMAP
0300E0
0780E0
1F81E0
1B03C0
070780
070780
0F0F00
0F1E00
0F3C00
1F7800
1F7800
00F600
01EF00
03FF80
079B00
078300
0F0600
1E0600
3C0F80
781F80
703F00
E07F00
401800
ENDCHAR
STARTCHAR 00BE
ENCODING 190
SWIDTH 540 0
DWIDTH 18 0
BBX 19 23 2 0
BITMAP
0100E0
0F00E0
0B01E0
0603C0
0F0780
1F8780
038F00
019E00
01BC00
6F7800
3F7800
1CF000
01E700
03C600
078E00
078C00
0F1FC0
1E1FC0
3C1F00
780600
700600
E00E00
400E00
ENDCHAR
STARTCHAR 00BF
ENCODING 191
SWIDTH 450 0
DWIDTH 15 0
BBX 15 25 0 -7
BITMAP
0008
003C
007E
007E
007C
0038
0000
0000
00F8
00F8
01F8
03F8
0FF0
1FF0
3F80
7E00
7C00
7C00
FC1C
FFFE
FFFC
FFFC
FFF8
7FF0
0180
ENDCHAR
STARTCHAR 00C0
ENCODING 192
SWIDTH 630 0
DWIDTH 21 0
BBX 20 30 0 -1
BITMAP
000F00
000F80
000780
000780
000380
000000
000000
0003C0
0007C0
0007C0
000FC0
000FC0
001FC0
001FC0
003FC0
007FC0
007FC0
00FFC0
01EFE0
01CFE0
0387E0
078FE0
07FFE0
0FFFE0
1FEFE0
1F0FF0
3F0FF0
7E0FF0
7E0FF0
F00000
ENDCHAR
STARTCHAR 00C1
ENCODING 193
SWIDTH 630 0
DWIDTH 21 0
BBX 23 30 0 -1
BITMAP
00003E
00007C
000078
0000F0
0001E0
000000
000000
0003C0
0007C0
0007C0
000FC0
000FC0
001FC0
001FC0
003FC0
007FC0
007FC0
00FFC0
01EFE0
01CFE0
0387E0
078FE0
07FFE0
0FFFE0
1FEFE0
1F0FF0
3F0FF0
7E0FF0
7E0FF0
F00000
ENDCHAR
STARTCHAR 00C2
ENCODING 194
SWIDTH 630 0
DWIDTH 21 0
BBX 21 30 0 -1
BITMAP
0000C0
0003E0
0007F0
000FF8
001E38
000000
000000
0003C0
0007C0
0007C0
000FC0
000FC0
001FC0
001FC0
003FC0
007FC0
007FC0
00FFC0
01EFE0
01CFE0
0387E0
078FE0
07FFE0
0FFFE0
1FEFE0
1F0FF0
3F0FF0
7E0FF0
7E0FF0
F00000
ENDCHAR
STARTCHAR 00C3
ENCODING 195
SWIDTH 630 0
DWIDTH 21 0
BBX 22 29 0 -1
BITMAP
00079C
000FFC
000FF8
000CF0
000000
000000
0003C0
0007C0
0007C0
000FC0
000FC0
001FC0
001FC0
003FC0
007FC0
007FC0
00FFC0
01EFE0
01CFE0
0387E0
078FE0
07FFE0
0FFFE0
1FEFE0
1F0FF0
3F0FF0
7E0FF0
7E0FF0
F00000
ENDCHAR
STARTCHAR 00C4
ENCODING 196
SWIDTH 630 0
DWIDTH 21 0
BBX 21 28 0 -1
BITMAP
000738
000F38
000E38
000400
000000
0003C0
0007C0
0007C0
000FC0
000FC0
001FC0
001FC0
003FC0
007FC0
007FC0
00FFC0
01EFE0
01CFE0
0387E0
078FE0
07FFE0
0FFFE0
1FEFE0
1F0FF0
3F0FF0
7E0FF0
7E0FF0
F00000
ENDCHAR
STARTCHAR 00C5
ENCODING 197
SWIDTH 630 0
DWIDTH 21 0
BBX 21 30 0 -1
BITMAP
0001E0
0007F0
000FF8
000E38
001C38
001E78
001EF0
000FE0
0007C0
0007C0
000FC0
000FC0
001FC0
001FC0
003FC0
007FC0
007FC0
00FFC0
01EFE0
01CFE0
03C7E0
078FE0
07FFE0
0FFFE0
1FEFE0
1F0FF0
3F0FF0
7E0FF0
7E0FF0
F00000
ENDCHAR
STARTCHAR 00C6
ENCODING 198
SWIDTH 720 0
DWIDTH 24 0
BBX 24 24 1 -1
BITMAP
0001FF
0007FF
000FFF
000FFE
001FFE
001FFE
003FFC
007FC0
007FC0
00FFCC
00FFF8
01FFF8
03DFF8
038FC0
070FC2
0F3FFF
0FFFFF
1FFFFF
3F9FFF
3E1FFF
7E1FFF
FC1FF0
FC1F00
800000
ENDCHAR
STARTCHAR 00C7
ENCODING 199
SWIDTH 480 0
DWIDTH 16 0
BBX 18 29 2 -6
BITMAP
001C00
00FF80
03FFC0
07FFC0
0FFFC0
1FFF80
1FFE80
3FC000
3F8000
3F0000
7F0000
7F0000
7F0000
7FFE00
7FFE00
7FFE00
7FFE00
7FFE00
7FFE00
7FFC00
3FF800
1FE000
0F8000
0F0000
0F8000
03C000
FFC000
FF8000
180000
ENDCHAR
STARTCHAR 00C8
ENCODING 200
SWIDTH 480 0
DWIDTH 16 0
BBX 13 29 4 0
BITMAP
1E00
1F00
0F00
0F80
0780
0000
1FF8
7FF8
7FF8
7FF0
7FF0
7FF0
7FE0
7E00
7E00
7EE0
7FC0
7FC0
7FC0
7C00
7FF0
7FF8
7FF8
7FF8
7FF8
FFF8
FFF0
FF80
F000
ENDCHAR
STARTCHAR 00C9
ENCODING 201
SWIDTH 480 0
DWIDTH 16 0
BBX 13 30 4 0
BITMAP
0008
00F0
01E0
01C0
03C0
0780
0000
1FF8
7FF8
7FF8
7FF0
7FF0
7FF0
7FE0
7E00
7E00
7EE0
7FC0
7FC0
7FC0
7C00
7FF0
7FF8
7FF8
7FF8
7FF8
FFF8
FFF0
FF80
F000
ENDCHAR
STARTCHAR 00CA
ENCODING 202
SWIDTH 480 0
DWIDTH 16 0
BBX 13 29 4 0
BITMAP
0380
0FE0
1FF0
3EF0
3860
0000
1FF8
7FF8
7FF8
7FF0
7FF0
7FF0
7FE0
7E00
7E00
7EE0
7FC0
7FC0
7FC0
7C00
7FF0
7FF8
7FF8
7FF8
7FF8
FFF8
FFF0
FF80
F000
ENDCHAR
STARTCHAR 00CB
ENCODING 203
SWIDTH 480 0
DWIDTH 16 0
BBX 13 28 4 0
BITMAP
0060
1CF0
3CE0
3CC0
1000
1FF8
7FF8
7FF8
7FF0
7FF0
7FF0
7FE0
7E00
7E00
7EE0
7FC0
7FC0
7FC0
7C00
7FF0
7FF8
7FF8
7FF8
7FF8
FFF8
FFF0
FF80
F000
ENDCHAR
STARTCHAR 00CC
ENCODING 204
SWIDTH 330 0
DWIDTH 11 0
BBX 14 29 1 0
BITMAP
01F0
01F0
00F0
0078
0078
0000
0000
01FC
01FC
03F8
03F8
07F0
07F0
07F0
07F0
0FE0
0FE0
0FE0
1FE0
1FC0
1FC0
1FC0
3FC0
3FC0
3F80
7F80
7F00
7F00
F000
ENDCHAR
STARTCHAR 00CD
ENCODING 205
SWIDTH 330 0
DWIDTH 11 0
BBX 17 29 1 0
BITMAP
000780
000F80
001F00
001C00
003800
000000
000000
01FC00
01FC00
03F800
03F800
07F000
07F000
07F000
07F000
0FE000
0FE000
0FE000
1FE000
1FC000
1FC000
1FC000
3FC000
3FC000
3F8000
7F8000
7F0000
7F0000
F00000
ENDCHAR
STARTCHAR 00CE
ENCODING 206
SWIDTH 330 0
DWIDTH 11 0
BBX 16 29 1 0
BITMAP
0018
007C
00FE
01FF
03C7
0000
0000
01FC
01FC
03F8
03F8
07F0
07F0
07F0
07F0
0FE0
0FE0
0FE0
1FE0
1FC0
1FC0
1FC0
3FC0
3FC0
3F80
7F80
7F00
7F00
F000
ENDCHAR
STARTCHAR 00CF
ENCODING 207
SWIDTH 330 0
DWIDTH 11 0
BBX 16 27 1 0
BITMAP
00C7
01E7
01CF
0080
0000
01FC
01FC
03F8
03F8
07F0
07F0
07F0
07F0
0FE0
0FE0
0FE0
1FE0
1FC0
1FC0
1FC0
3FC0
3FC0
3F80
7F80
7F00
7F00
F000
ENDCHAR
STARTCHAR 00D0
ENCODING 208
SWIDTH 480 0
DWIDTH 16 0
BBX 17 23 2 0
BITMAP
03E000
0FF800
0FFC00
0FFE00
1FFF00
1FFF00
1FDF80
1F8F80
1FE780
7FEF80
7FEF80
7FFF00
FF3F00
1F7E00
1FFC00
1FF800
1FF800
1FF000
1FE000
1FC000
1F0000
1C0000
100000
ENDCHAR
STARTCHAR 00D1
ENCODING 209
SWIDTH 540 0
DWIDTH 18 0
BBX 22 28 1 0
BITMAP
000F78
001FF0
003FF0
003BE0
000000
000000
03F8F8
03F9FC
03F9F8
07F1F8
07F3F8
0FF3F0
0FF3F0
0FF3F0
1FF3E0
1FF7E0
1FFFE0
1FFFE0
3FFFC0
3FFFC0
3F7FC0
7F7F80
7F3F80
7E3F80
7E3F80
FE3F00
FE3F00
E00800
ENDCHAR
STARTCHAR 00D2
ENCODING 210
SWIDTH 510 0
DWIDTH 17 0
BBX 17 29 3 0
BITMAP
0F0000
0F8000
078000
078000
03C000
000000
01E000
03F000
07FC00
0FFE00
0FFE00
1FFF00
3FFF00
3FFF00
7F3F80
7E1F80
FE1F80
FC3F80
FC3F80
FE7F00
FFFF00
FFFF00
FFFE00
FFFE00
FFFC00
FFFC00
7FF800
3FF000
1FC000
ENDCHAR
STARTCHAR 00D3
ENCODING 211
SWIDTH 510 0
DWIDTH 17 0
BBX 17 29 3 0
BITMAP
001E00
003C00
007800
00F000
00E000
000000
01E000
03F000
07FC00
0FFE00
0FFE00
1FFF00
3FFF00
3FFF00
7F3F80
7E1F80
FE1F80
FC3F80
FC3F80
FE7F00
FFFF00
FFFF00
FFFE00
FFFE00
FFFC00
FFFC00
7FF800
3FF000
1FC000
ENDCHAR
STARTCHAR 00D4
ENCODING 212
SWIDTH 510 0
DWIDTH 17 0
BBX 17 29 3 0
BITMAP
00E000
01F000
07F800
0F7C00
0E3C00
000000
01E000
03F000
07FC00
0FFE00
0FFE00
1FFF00
3FFF00
3FFF00
7F3F80
7E1F80
FE1F80
FC3F80
FC3F80
FE7F00
FFFF00
FFFF00
FFFE00
FFFE00
FFFC00
FFFC00
7FF800
3FF000
1FC000
ENDCHAR
STARTCHAR 00D5
ENCODING 213
SWIDTH 510 0
DWIDTH 17 0
BBX 17 29 3 0
BITMAP
001C00
07BC00
0FFC00
0FF800
0EF000
0C0000
01E000
03F000
07FC00
0FFE00
0FFE00
1FFF00
3FFF00
3FFF00
7F3F80
7E1F80
FE1F80
FC3F80
FC3F80
FE7F00
FFFF00
FFFF00
FFFE00
FFFE00
FFFC00
FFFC00
7FF800
3FF000
1FC000
ENDCHAR
STARTCHAR 00D6
ENCODING 214
SWIDTH 510 0
DWIDTH 17 0
BBX 17 27 3 0
BITMAP
073800
0F3800
0F3800
060000
01E000
03F000
07FC00
0FFE00
0FFE00
1FFF00
3FFF00
3FFF00
7F3F80
7E1F80
FE1F80
FC3F80
FC3F80
FE7F00
FFFF00
FFFF00
FFFE00
FFFE00
FFFC00
FFFC00
7FF800
3FF000
1FC000
ENDCHAR
STARTCHAR 00D7
ENCODING 215
SWIDTH 420 0
DWIDTH 14 0
BBX 15 13 2 6
BITMAP
0E1C
1E3C
3F7E
3FFC
1FF8
0FF0
0FE0
1FF0
3FF8
7FF8
FCF8
78F0
3060
ENDCHAR
STARTCHAR 00D8
ENCODING 216
SWIDTH 510 0
DWIDTH 17 0
BBX 23 24 0 -1
BITMAP
000022
003C7E
007EFC
00FFF8
01FFF0
01FFE0
03FFE0
07FFE0
07FFE0
0FDFF0
0FBFF0
1F7FF0
1F7BF0
1EF3F0
1FF7E0
1FEFE0
1FFFE0
1FFFC0
1FFFC0
1FFF80
3FFF80
3FFF00
7FFE00
F3F800
ENDCHAR
STARTCHAR 00D9
ENCODING 217
SWIDTH 540 0
DWIDTH 18 0
BBX 19 28 3 1
BITMAP
00F000
00F800
007800
007800
003800
000000
060200
0F83E0
0F83E0
1F03E0
1F07E0
3F07C0
3E07C0
7E0FC0
7E0FC0
7E0FC0
FE1F80
FE1F80
FE1F80
FFFF00
FFFF00
FFFE00
FFFE00
FFFC00
FFF800
FFF000
7FE000
3FC000
ENDCHAR
STARTCHAR 00DA
ENCODING 218
SWIDTH 540 0
DWIDTH 18 0
BBX 19 28 3 1
BITMAP
0003E0
0007C0
000780
000F00
001E00
000000
060200
0F83E0
0F83E0
1F03E0
1F07E0
3F07C0
3E07C0
7E0FC0
7E0FC0
7E0FC0
FE1F80
FE1F80
FE1F80
FFFF00
FFFF00
FFFE00
FFFE00
FFFC00
FFF800
FFF000
7FE000
3FC000
ENDCHAR
STARTCHAR 00DB
ENCODING 219
SWIDTH 540 0
DWIDTH 18 0
BBX 19 28 3 1
BITMAP
000600
001F00
007F80
00FF80
00E380
000000
060200
0F83E0
0F83E0
1F03E0
1F07E0
3F07C0
3E07C0
7E0FC0
7E0FC0
7E0FC0
FE1F80
FE1F80
FE1F80
FFFF00
FFFF00
FFFE00
FFFE00
FFFC00
FFF800
FFF000
7FE000
3FC000
ENDCHAR
STARTCHAR 00DC
ENCODING 220
SWIDTH 540 0
DWIDTH 18 0
BBX 19 26 3 1
BITMAP
007180
00F380
00E380
000300
060200
0F83E0
0F83E0
1F03E0
1F07E0
3F07C0
3E07C0
7E0FC0
7E0FC0
7E0FC0
FE1F80
FE1F80
FE1F80
FFFF00
FFFF00
FFFE00
FFFE00
FFFC00
FFF800
FFF000
7FE000
3FC000
ENDCHAR
STARTCHAR 00DD
ENCODING 221
SWIDTH 600 0
DWIDTH 20 0
BBX 20 29 5 0
BITMAP
000F80
000F00
001E00
003C00
007800
000000
0001F0
0C03E0
FC07C0
FC0FC0
FE0F80
FE1F00
7E3F00
7E7E00
7E7C00
3FFC00
3FF800
3FF000
3FF000
1FE000
1FC000
1F8000
0F8000
0F8000
0F8000
1F8000
1F8000
1F8000
1F0000
ENDCHAR
STARTCHAR 00DE
ENCODING 222
SWIDTH 480 0
DWIDTH 16 0
BBX 16 23 2 0
BITMAP
1F80
1F80
1F80
1FE0
1FFC
3FFE
3FFF
3FFF
3F1F
3F0F
3F0F
3E1F
7E1F
7E3F
7E7F
7FFF
7FFE
7FF8
FFC0
FE00
FE00
FC00
FC00
ENDCHAR
STARTCHAR 00DF
ENCODING 223
SWIDTH 540 0
DWIDTH 18 0
BBX 18 25 2 -2
BITMAP
03F800
07FE00
0FFE00
1FFE00
1FFE00
3E1E00
3E1E00
3E1E00
3E3C00
3E7800
7C7000
7CFF00
7CFF80
7CFF80
7C1FC0
7C0FC0
7C0FC0
780F80
F83F80
F8FF80
F8FF00
F9FC00
F9F800
F80000
F00000
ENDCHAR
STARTCHAR 00E0
ENCODING 224
SWIDTH 630 0
DWIDTH 21 0
BBX 20 30 0 -1
BITMAP
000F00
000F80
000780
000780
000380
000000
000000
0003C0
0007C0
0007C0
000FC0
000FC0
001FC0
001FC0
003FC0
007FC0
007FC0
00FFC0
01EFE0
01CFE0
0387E0
078FE0
07FFE0
0FFFE0
1FEFE0
1F0FF0
3F0FF0
7E0FF0
7E0FF0
F00000
ENDCHAR
STARTCHAR 00E1
ENCODING 225
SWIDTH 630 0
DWIDTH 21 0
BBX 23 30 0 -1
BITMAP
00003E
00007C
000078
0000F0
0001E0
000000
000000
0003C0
0007C0
0007C0
000FC0
000FC0
001FC0
001FC0
003FC0
007FC0
007FC0
00FFC0
01EFE0
01CFE0
0387E0
078FE0
07FFE0
0FFFE0
1FEFE0
1F0FF0
3F0FF0
7E0FF0
7E0FF0
F00000
ENDCHAR
STARTCHAR 00E2
ENCODING 226
SWIDTH 630 0
DWIDTH 21 0
BBX 21 30 0 -1
BITMAP
0000C0
0003E0
0007F0
000FF8
001E38
000000
000000
0003C0
0007C0
0007C0
000FC0
000FC0
001FC0
001FC0
003FC0
007FC0
007FC0
00FFC0
01EFE0
01CFE0
0387E0
078FE0
07FFE0
0FFFE0
1FEFE0
1F0FF0
3F0FF0
7E0FF0
7E0FF0
F00000
ENDCHAR
STARTCHAR 00E3
ENCODING 227
SWIDTH 630 0
DWIDTH 21 0
BBX 22 29 0 -1
BITMAP
00079C
000FFC
000FF8
000CF0
000000
000000
0003C0
0007C0
0007C0
000FC0
000FC0
001FC0
001FC0
003FC0
007FC0
007FC0
00FFC0
01EFE0
01CFE0
0387E0
078FE0
07FFE0
0FFFE0
1FEFE0
1F0FF0
3F0FF0
7E0FF0
7E0FF0
F00000
ENDCHAR
STARTCHAR 00E4
ENCODING 228
SWIDTH 630 0
DWIDTH 21 0
BBX 21 28 0 -1
BITMAP
000738
000F38
000E38
000400
000000
0003C0
0007C0
0007C0
000FC0
000FC0
001FC0
001FC0
003FC0
007FC0
007FC0
00FFC0
01EFE0
01CFE0
0387E0
078FE0
07FFE0
0FFFE0
1FEFE0
1F0FF0
3F0FF0
7E0FF0
7E0FF0
F00000
ENDCHAR
STARTCHAR 00E5
ENCODING 229
SWIDTH 630 0
DWIDTH 21 0
BBX 21 30 0 -1
BITMAP
0001E0
0007F0
000FF8
000E38
001C38
001E78
001EF0
000FE0
0007C0
0007C0
000FC0
000FC0
001FC0
001FC0
003FC0
007FC0
007FC0
00FFC0
01EFE0
01CFE0
03C7E0
078FE0
07FFE0
0FFFE0
1FEFE0
1F0FF0
3F0FF0
7E0FF0
7E0FF0
F00000
ENDCHAR
STARTCHAR 00E6
ENCODING 230
SWIDTH 720 0
DWIDTH 24 0
BBX 24 24 1 -1
BITMAP
0001FF
0007FF
000FFF
000FFE
001FFE
001FFE
003FFC
007FC0
007FC0
00FFCC
00FFF8
01FFF8
03DFF8
038FC0
070FC2
0F3FFF
0FFFFF
1FFFFF
3F9FFF
3E1FFF
7E1FFF
FC1FF0
FC1F00
800000
ENDCHAR
STARTCHAR 00E7
ENCODING 231
SWIDTH 480 0
DWIDTH 16 0
BBX 18 29 2 -6
BITMAP
001C00
00FF80
03FFC0
07FFC0
0FFFC0
1FFF80
1FFE80
3FC000
3F8000
3F0000
7F0000
7F0000
7F0000
7FFE00
7FFE00
7FFE00
7FFE00
7FFE00
7FFE00
7FFC00
3FF800
1FE000
0F8000
0F0000
0F8000
03C000
FFC000
FF8000
180000
ENDCHAR
STARTCHAR 00E8
ENCODING 232
SWIDTH 480 0
DWIDTH 16 0
BBX 13 29 4 0
BITMAP
1E00
1F00
0F00
0F80
0780
0000
1FF8
7FF8
7FF8
7FF0
7FF0
7FF0
7FE0
7E00
7E00
7EE0
7FC0
7FC0
7FC0
7C00
7FF0
7FF8
7FF8
7FF8
7FF8
FFF8
FFF0
FF80
F000
ENDCHAR
STARTCHAR 00E9
ENCODING 233
SWIDTH 480 0
DWIDTH 16 0
BBX 13 30 4 0
BITMAP
0008
00F0
01E0
01C0
03C0
0780
0000
1FF8
7FF8
7FF8
7FF0
7FF0
7FF0
7FE0
7E00
7E00
7EE0
7FC0
7FC0
7FC0
7C00
7FF0
7FF8
7FF8
7FF8
7FF8
FFF8
FFF0
FF80
F000
ENDCHAR
STARTCHAR 00EA
ENCODING 234
SWIDTH 480 0
DWIDTH 16 0
BBX 13 29 4 0
BITMAP
0380
0FE0
1FF0
3EF0
3860
0000
1FF8
7FF8
7FF8
7FF0
7FF0
7FF0
7FE0
7E00
7E00
7EE0
7FC0
7FC0
7FC0
7C00
7FF0
7FF8
7FF8
7FF8
7FF8
FFF8
FFF0
FF80
F000
ENDCHAR
STARTCHAR 00EB
ENCODING 235
SWIDTH 480 0
DWIDTH 16 0
BBX 13 28 4 0
BITMAP
0060
1CF0
3CE0
3CC0
1000
1FF8
7FF8
7FF8
7FF0
7FF0
7FF0
7FE0
7E00
7E00
7EE0
7FC0
7FC0
7FC0
7C00
7FF0
7FF8
7FF8
7FF8
7FF8
FFF8
FFF0
FF80
F000
ENDCHAR
STARTCHAR 00EC
ENCODING 236
SWIDTH 330 0
DWIDTH 11 0
BBX 14 29 1 0
BITMAP
01F0
01F0
00F0
0078
0078
0000
0000
01FC
01FC
03F8
03F8
07F0
07F0
07F0
07F0
0FE0
0FE0
0FE0
1FE0
1FC0
1FC0
1FC0
3FC0
3FC0
3F80
7F80
7F00
7F00
F000
ENDCHAR
STARTCHAR 00ED
ENCODING 237
SWIDTH 330 0
DWIDTH 11 0
BBX 17 29 1 0
BITMAP
000780
000F80
001F00
001C00
003800
000000
000000
01FC00
01FC00
03F800
03F800
07F000
07F000
07F000
07F000
0FE000
0FE000
0FE000
1FE000
1FC000
1FC000
1FC000
3FC000
3FC000
3F8000
7F8000
7F0000
7F0000
F00000
ENDCHAR
STARTCHAR 00EE
ENCODING 238
SWIDTH 330 0
DWIDTH 11 0
BBX 16 29 1 0
BITMAP
0018
007C
00FE
01FF
03C7
0000
0000
01FC
01FC
03F8
03F8
07F0
07F0
07F0
07F0
0FE0
0FE0
0FE0
1FE0
1FC0
1FC0
1FC0
3FC0
3FC0
3F80
7F80
7F00
7F00
F000
ENDCHAR
STARTCHAR 00EF
ENCODING 239
SWIDTH 330 0
DWIDTH 11 0
BBX 16 27 1 0
BITMAP
00C7
01E7
01CF
0080
0000
01FC
01FC
03F8
03F8
07F0
07F0
07F0
07F0
0FE0
0FE0
0FE0
1FE0
1FC0
1FC0
1FC0
3FC0
3FC0
3F80
7F80
7F00
7F00
F000
ENDCHAR
STARTCHAR 00F0
ENCODING 240
SWIDTH 480 0
DWIDTH 16 0
BBX 17 23 2 0
BITMAP
03E000
0FF800
0FFC00
0FFE00
1FFF00
1FFF00
1FDF80
1F8F80
1FE780
7FEF80
7FEF80
7FFF00
FF3F00
1F7E00
1FFC00
1FF800
1FF800
1FF000
1FE000
1FC000
1F0000
1C0000
100000
ENDCHAR
STARTCHAR 00F1
ENCODING 241
SWIDTH 540 0
DWIDTH 18 0
BBX 22 28 1 0
BITMAP
000F78
001FF0
003FF0
003BE0
000000
000000
03F8F8
03F9FC
03F9F8
07F1F8
07F3F8
0FF3F0
0FF3F0
0FF3F0
1FF3E0
1FF7E0
1FFFE0
1FFFE0
3FFFC0
3FFFC0
3F7FC0
7F7F80
7F3F80
7E3F80
7E3F80
FE3F00
FE3F00
E00800
ENDCHAR
STARTCHAR 00F2
ENCODING 242
SWIDTH 510 0
DWIDTH 17 0
BBX 17 29 3 0
BITMAP
0F0000
0F8000
078000
078000
03C000
000000
01E000
03F000
07FC00
0FFE00
0FFE00
1FFF00
3FFF00
3FFF00
7F3F80
7E1F80
FE1F80
FC3F80
FC3F80
FE7F00
FFFF00
FFFF00
FFFE00
FFFE00
FFFC00
FFFC00
7FF800
3FF000
1FC000
ENDCHAR
STARTCHAR 00F3
ENCODING 243
SWIDTH 510 0
DWIDTH 17 0
BBX 17 29 3 0
BITMAP
001E00
003C00
007800
00F000
00E000
000000
01E000
03F000
07FC00
0FFE00
0FFE00
1FFF00
3FFF00
3FFF00
7F3F80
7E1F80
FE1F80
FC3F80
FC3F80
FE7F00
FFFF00
FFFF00
FFFE00
FFFE00
FFFC00
FFFC00
7FF800
3FF000
1FC000
ENDCHAR
STARTCHAR 00F4
ENCODING 244
SWIDTH 510 0
DWIDTH 17 0
BBX 17 29 3 0
BITMAP
00E000
01F000
07F800
0F7C00
0E3C00
000000
01E000
03F000
07FC00
0FFE00
0FFE00
1FFF00
3FFF00
3FFF00
7F3F80
7E1F80
FE1F80
FC3F80
FC3F80
FE7F00
FFFF00
FFFF00
FFFE00
FFFE00
FFFC00
FFFC00
7FF800
3FF000
1FC000
ENDCHAR
STARTCHAR 00F5
ENCODING 245
SWIDTH 510 0
DWIDTH 17 0
BBX 17 29 3 0
BITMAP
001C00
07BC00
0FFC00
0FF800
0EF000
0C0000
01E000
03F000
07FC00
0FFE00
0FFE00
1FFF00
3FFF00
3FFF00
7F3F80
7E1F80
FE1F80
FC3F80
FC3F80
FE7F00
FFFF00
FFFF00
FFFE00
FFFE00
FFFC00
FFFC00
7FF800
3FF000
1FC000
ENDCHAR
STARTCHAR 00F6
ENCODING 246
SWIDTH 510 0
DWIDTH 17 0
BBX 17 27 3 0
BITMAP
073800
0F3800
0F3800
060000
01E000
03F000
07FC00
0FFE00
0FFE00
1FFF00
3FFF00
3FFF00
7F3F80
7E1F80
FE1F80
FC3F80
FC3F80
FE7F00
FFFF00
FFFF00
FFFE00
FFFE00
FFFC00
FFFC00
7FF800
3FF000
1FC000
ENDCHAR
STARTCHAR 00F7
ENCODING 247
SWIDTH 480 0
DWIDTH 16 0
BBX 15 18 3 3
BITMAP
0040
01F0
03F0
03E0
03E0
01C0
0000
7FFE
FFFE
FFFE
FFFE
6000
0000
0F80
0F80
1F80
1F00
0E00
ENDCHAR
STARTCHAR 00F8
ENCODING 248
SWIDTH 510 0
DWIDTH 17 0
BBX 23 24 0 -1
BITMAP
000022
003C7E
007EFC
00FFF8
01FFF0
01FFE0
03FFE0
07FFE0
07FFE0
0FDFF0
0FBFF0
1F7FF0
1F7BF0
1EF3F0
1FF7E0
1FEFE0
1FFFE0
1FFFC0
1FFFC0
1FFF80
3FFF80
3FFF00
7FFE00
F3F800
ENDCHAR
STARTCHAR 00F9
ENCODING 249
SWIDTH 540 0
DWIDTH 18 0
BBX 19 28 3 1
BITMAP
00F000
00F800
007800
007800
003800
000000
060200
0F83E0
0F83E0
1F03E0
1F07E0
3F07C0
3E07C0
7E0FC0
7E0FC0
7E0FC0
FE1F80
FE1F80
FE1F80
FFFF00
FFFF00
FFFE00
FFFE00
FFFC00
FFF800
FFF000
7FE000
3FC000
ENDCHAR
STARTCHAR 00FA
ENCODING 250
SWIDTH 540 0
DWIDTH 18 0
BBX 19 28 3 1
BITMAP
0003E0
0007C0
000780
000F00
001E00
000000
060200
0F83E0
0F83E0
1F03E0
1F07E0
3F07C0
3E07C0
7E0FC0
7E0FC0
7E0FC0
FE1F80
FE1F80
FE1F80
FFFF00
FFFF00
FFFE00
FFFE00
FFFC00
FFF800
FFF000
7FE000
3FC000
ENDCHAR
STARTCHAR 00FB
ENCODING 251
SWIDTH 540 0
DWIDTH 18 0
BBX 19 28 3 1
BITMAP
000600
001F00
007F80
00FF80
00E380
000000
060200
0F83E0
0F83E0
1F03E0
1F07E0
3F07C0
3E07C0
7E0FC0
7E0FC0
7E0FC0
FE1F80
FE1F80
FE1F80
FFFF00
FFFF00
FFFE00
FFFE00
FFFC00
FFF800
FFF000
7FE000
3FC000
ENDCHAR
STARTCHAR 00FC
ENCODING 252
SWIDTH 540 0
DWIDTH 18 0
BBX 19 26 3 1
BITMAP
007180
00F380
00E380
000300
060200
0F83E0
0F83E0
1F03E0
1F07E0
3F07C0
3E07C0
7E0FC0
7E0FC0
7E0FC0
FE1F80
FE1F80
FE1F80
FFFF00
FFFF00
FFFE00
FFFE00
FFFC00
FFF800
FFF000
7FE000
3FC000
ENDCHAR
STARTCHAR 00FD
ENCODING 253
SWIDTH 600 0
DWIDTH 20 0
BBX 20 29 5 0
BITMAP
000F80
000F00
001E00
003C00
007800
000000
0001F0
0C03E0
FC07C0
FC0FC0
FE0F80
FE1F00
7E3F00
7E7E00
7E7C00
3FFC00
3FF800
3FF000
3FF000
1FE000
1FC000
1F8000
0F8000
0F8000
0F8000
1F8000
1F8000
1F8000
1F0000
ENDCHAR
STARTCHAR 00FE
ENCODING 254
SWIDTH 480 0
DWIDTH 16 0
BBX 16 23 2 0
BITMAP
1F80
1F80
1F80
1FE0
1FFC
3FFE
3FFF
3FFF
3F1F
3F0F
3F0F
3E1F
7E1F
7E3F
7E7F
7FFF
7FFE
7FF8
FFC0
FE00
FE00
FC00
FC00
ENDCHAR
STARTCHAR 00FF
ENCODING 255
SWIDTH 600 0
DWIDTH 20 0
BBX 20 27 5 0
BITMAP
01CE00
03CE00
03CE00
010000
0001F0
0C03E0
FC07C0
FC0FC0
FE0F80
FE1F00
7E3F00
7E7E00
7E7C00
3FFC00
3FF800
3FF000
3FF000
1FE000
1FC000
1F8000
0F8000
0F8000
0F8000
1F8000
1F8000
1F8000
1F0000
ENDCHAR
STARTCHAR 0100
ENCODING 256
SWIDTH 630 0
DWIDTH 21 0
BBX 22 28 0 -1
BITMAP
000FFC
000FFC
000FFC
000000
000000
0003C0
0007C0
0007C0
000FC0
000FC0
001FC0
001FC0
003FC0
007FC0
007FC0
00FFC0
01EFE0
01CFE0
0387E0
078FE0
07FFE0
0FFFE0
1FEFE0
1F0FF0
3F0FF0
7E0FF0
7E0FF0
F00000
ENDCHAR
STARTCHAR 0101
ENCODING 257
SWIDTH 630 0
DWIDTH 21 0
BBX 22 28 0 -1
BITMAP
000FFC
000FFC
000FFC
000000
000000
0003C0
0007C0
0007C0
000FC0
000FC0
001FC0
001FC0
003FC0
007FC0
007FC0
00FFC0
01EFE0
01CFE0
0387E0
078FE0
07FFE0
0FFFE0
1FEFE0
1F0FF0
3F0FF0
7E0FF0
7E0FF0
F00000
ENDCHAR
STARTCHAR 0102
ENCODING 258
SWIDTH 630 0
DWIDTH 21 0
BBX 22 30 0 -1
BITMAP
000E1C
000E3C
000FF8
000FF0
0007E0
000000
000000
0003C0
0007C0
0007C0
000FC0
000FC0
001FC0
001FC0
003FC0
007FC0
007FC0
00FFC0
01EFE0
01CFE0
03C7E0
078FE0
07FFE0
0FFFE0
1FEFE0
1F0FF0
3F0FF0
7E0FF0
7E0FF0
F00000
ENDCHAR
STARTCHAR 0103
ENCODING 259
SWIDTH 630 0
DWIDTH 21 0
BBX 22 30 0 -1
BITMAP
000E1C
000E3C
000FF8
000FF0
0007E0
000000
000000
0003C0
0007C0
0007C0
000FC0
000FC0
001FC0
001FC0
003FC0
007FC0
007FC0
00FFC0
01EFE0
01CFE0
03C7E0
078FE0
07FFE0
0FFFE0
1FEFE0
1F0FF0
3F0FF0
7E0FF0
7E0FF0
F00000
ENDCHAR
STARTCHAR 0104
ENCODING 260
SWIDTH 630 0
DWIDTH 21 0
BBX 20 28 0 -5
BITMAP
0003C0
0007C0
0007C0
000FC0
000FC0
001FC0
001FC0
003FC0
007FC0
007FC0
00FFC0
01EFE0
01CFE0
03C7E0
078FE0
07FFE0
0FFFE0
1FEFE0
1F0FF0
3F0FF0
7E0FF0
7E0FF0
F01C00
001C00
003800
003FC0
003FC0
000A00
ENDCHAR
STARTCHAR 0105
ENCODING 261
SWIDTH 630 0
DWIDTH 21 0
BBX 20 28 0 -5
BITMAP
0003C0
0007C0
0007C0
000FC0
000FC0
001FC0
001FC0
003FC0
007FC0
007FC0
00FFC0
01EFE0
01CFE0
03C7E0
078FE0
07FFE0
0FFFE0
1FEFE0
1F0FF0
3F0FF0
7E0FF0
7E0FF0
F01C00
001C00
003800
003FC0
003FC0
000A00
ENDCHAR
STARTCHAR 0106
ENCODING 262
SWIDTH 480 0
DWIDTH 16 0
BBX 18 29 3 0
BITMAP
0003C0
0007C0
000F80
000F00
001E00
000000
003800
01FF00
07FF80
0FFF80
1FFF80
3FFF00
3FFD00
7F8000
7F0000
7E0000
FE0000
FE0000
FE0000
FFFC00
FFFC00
FFFC00
FFFC00
FFFC00
FFFC00
FFF800
7FF000
3FC000
030000
ENDCHAR
STARTCHAR 0107
ENCODING 263
SWIDTH 480 0
DWIDTH 16 0
BBX 18 29 3 0
BITMAP
0003C0
0007C0
000F80
000F00
001E00
000000
003800
01FF00
07FF80
0FFF80
1FFF80
3FFF00
3FFD00
7F8000
7F0000
7E0000
FE0000
FE0000
FE0000
FFFC00
FFFC00
FFFC00
FFFC00
FFFC00
FFFC00
FFF800
7FF000
3FC000
030000
ENDCHAR
STARTCHAR 0108
ENCODING 264
SWIDTH 480 0
DWIDTH 16 0
BBX 17 29 3 0
BITMAP
000C00
003E00
007F00
00FF80
01E380
000000
003800
01FF00
07FF80
0FFF80
1FFF80
3FFF00
3FFD00
7F8000
7F0000
7E0000
FE0000
FE0000
FE0000
FFFC00
FFFC00
FFFC00
FFFC00
FFFC00
FFFC00
FFF800
7FF000
3FC000
030000
ENDCHAR
STARTCHAR 0109
ENCODING 265
SWIDTH 480 0
DWIDTH 16 0
BBX 17 29 3 0
BITMAP
000C00
003E00
007F00
00FF80
01E380
000000
003800
01FF00
07FF80
0FFF80
1FFF80
3FFF00
3FFD00
7F8000
7F0000
7E0000
FE0000
FE0000
FE0000
FFFC00
FFFC00
FFFC00
FFFC00
FFFC00
FFFC00
FFF800
7FF000
3FC000
030000
ENDCHAR
STARTCHAR 010A
ENCODING 266
SWIDTH 480 0
DWIDTH 16 0
BBX 17 27 3 0
BITMAP
001C00
003C00
003C00
001800
003800
01FF00
07FF80
0FFF80
1FFF80
3FFF00
3FFD00
7F8000
7F0000
7E0000
FE0000
FE0000
FE0000
FFFC00
FFFC00
FFFC00
FFFC00
FFFC00
FFFC00
FFF800
7FF000
3FC000
030000
ENDCHAR
STARTCHAR 010B
ENCODING 267
SWIDTH 480 0
DWIDTH 16 0
BBX 17 27 3 0
BITMAP
001C00
003C00
003C00
001800
003800
01FF00
07FF80
0FFF80
1FFF80
3FFF00
3FFD00
7F8000
7F0000
7E0000
FE0000
FE0000
FE0000
FFFC00
FFFC00
FFFC00
FFFC00
FFFC00
FFFC00
FFF800
7FF000
3FC000
030000
ENDCHAR
STARTCHAR 010C
ENCODING 268
SWIDTH 480 0
DWIDTH 16 0
BBX 18 29 3 0
BITMAP
006180
00F7C0
00FF80
007F00
003C00
000000
003800
01FF00
07FF80
0FFF80
1FFF80
3FFF00
3FFD00
7F8000
7F0000
7E0000
FE0000
FE0000
FE0000
FFFC00
FFFC00
FFFC00
FFFC00
FFFC00
FFFC00
FFF800
7FF000
3FC000
030000
ENDCHAR
STARTCHAR 010D
ENCODING 269
SWIDTH 480 0
DWIDTH 16 0
BBX 18 29 3 0
BITMAP
006180
00F7C0
00FF80
007F00
003C00
000000
003800
01FF00
07FF80
0FFF80
1FFF80
3FFF00
3FFD00
7F8000
7F0000
7E0000
FE0000
FE0000
FE0000
FFFC00
FFFC00
FFFC00
FFFC00
FFFC00
FFFC00
FFF800
7FF000
3FC000
030000
ENDCHAR
STARTCHAR 010E
ENCODING 270
SWIDTH 450 0
DWIDTH 15 0
BBX 15 29 3 0
BITMAP
043C
1E78
0FF0
07E0
03C0
0000
0F80
3FE0
3FF0
3FF8
7FFC
7FFC
7F7C
7E3E
7E1E
7E3E
7E3E
7C7C
7CF8
7DF8
FFF0
FFE0
FFE0
FFC0
FF80
7F00
7C00
7000
4000
ENDCHAR
STARTCHAR 010F
ENCODING 271
SWIDTH 450 0
DWIDTH 15 0
BBX 15 29 3 0
BITMAP
043C
1E78
0FF0
07E0
03C0
0000
0F80
3FE0
3FF0
3FF8
7FFC
7FFC
7F7C
7E3E
7E1E
7E3E
7E3E
7C7C
7CF8
7DF8
FFF0
FFE0
FFE0
FFC0
FF80
7F00
7C00
7000
4000
ENDCHAR
STARTCHAR 0110
ENCODING 272
SWIDTH 480 0
DWIDTH 16 0
BBX 17 23 2 0
BITMAP
03E000
0FF800
0FFC00
0FFE00
1FFF00
1FFF00
1FDF80
1F8F80
1FE780
7FEF80
7FEF80
7FFF00
FF3F00
1F7E00
1FFC00
1FF800
1FF800
1FF000
1FE000
1FC000
1F0000
1C0000
100000
ENDCHAR
STARTCHAR 0111
ENCODING 273
SWIDTH 480 0
DWIDTH 16 0
BBX 17 23 2 0
BITMAP
03E000
0FF800
0FFC00
0FFE00
1FFF00
1FFF00
1FDF80
1F8F80
1FE780
7FEF80
7FEF80
7FFF00
FF3F00
1F7E00
1FFC00
1FF800
1FF800
1FF000
1FE000
1FC000
1F0000
1C0000
100000
ENDCHAR
STARTCHAR 0112
ENCODING 274
SWIDTH 480 0
DWIDTH 16 0
BBX 13 27 4 0
BITMAP
1FF0
3FF0
3F80
0000
1FF8
7FF8
7FF8
7FF0
7FF0
7FF0
7FE0
7E00
7E00
7EE0
7FC0
7FC0
7FC0
7C00
7FF0
7FF8
7FF8
7FF8
7FF8
FFF8
FFF0
FF80
F000
ENDCHAR
STARTCHAR 0113
ENCODING 275
SWIDTH 480 0
DWIDTH 16 0
BBX 13 27 4 0
BITMAP
1FF0
3FF0
3F80
0000
1FF8
7FF8
7FF8
7FF0
7FF0
7FF0
7FE0
7E00
7E00
7EE0
7FC0
7FC0
7FC0
7C00
7FF0
7FF8
7FF8
7FF8
7FF8
FFF8
FFF0
FF80
F000
ENDCHAR
STARTCHAR 0114
ENCODING 276
SWIDTH 480 0
DWIDTH 16 0
BBX 13 29 4 0
BITMAP
1878
1CF0
1FE0
1FC0
0F80
0000
1FF8
7FF8
7FF8
7FF0
7FF0
7FF0
7FE0
7E00
7E00
7EE0
7FC0
7FC0
7FC0
7C00
7FF0
7FF8
7FF8
7FF8
7FF8
FFF8
FFF0
FF80
F000
ENDCHAR
STARTCHAR 0115
ENCODING 277
SWIDTH 480 0
DWIDTH 16 0
BBX 13 29 4 0
BITMAP
1878
1CF0
1FE0
1FC0
0F80
0000
1FF8
7FF8
7FF8
7FF0
7FF0
7FF0
7FE0
7E00
7E00
7EE0
7FC0
7FC0
7FC0
7C00
7FF0
7FF8
7FF8
7FF8
7FF8
FFF8
FFF0
FF80
F000
ENDCHAR
STARTCHAR 0116
ENCODING 278
SWIDTH 480 0
DWIDTH 16 0
BBX 13 27 4 1
BITMAP
0780
0780
0700
0000
1FF8
7FF8
7FF8
7FF0
7FF0
7FF0
7FE0
7E00
7E00
7EE0
7FC0
7FC0
7FC0
7C00
7FF0
7FF8
7FF8
7FF8
7FF8
FFF8
FFF0
FF80
F000
ENDCHAR
STARTCHAR 0117
ENCODING 279
SWIDTH 480 0
DWIDTH 16 0
BBX 13 27 4 1
BITMAP
0780
0780
0700
0000
1FF8
7FF8
7FF8
7FF0
7FF0
7FF0
7FE0
7E00
7E00
7EE0
7FC0
7FC0
7FC0
7C00
7FF0
7FF8
7FF8
7FF8
7FF8
FFF8
FFF0
FF80
F000
ENDCHAR
STARTCHAR 0118
ENCODING 280
SWIDTH 480 0
DWIDTH 16 0
BBX 13 28 4 -5
BITMAP
1FF8
7FF8
7FF8
7FF0
7FF0
7FF0
7FE0
7E00
7E00
7EE0
7FC0
7FC0
7FC0
7C00
7FF0
7FF8
7FF8
7FF8
7FF8
FFF8
FFF0
FF00
FE00
0C00
1C20
1FE0
1FE0
1F80
ENDCHAR
STARTCHAR 0119
ENCODING 281
SWIDTH 480 0
DWIDTH 16 0
BBX 13 28 4 -5
BITMAP
1FF8
7FF8
7FF8
7FF0
7FF0
7FF0
7FE0
7E00
7E00
7EE0
7FC0
7FC0
7FC0
7C00
7FF0
7FF8
7FF8
7FF8
7FF8
FFF8
FFF0
FF00
FE00
0C00
1C20
1FE0
1FE0
1F80
ENDCHAR
STARTCHAR 011A
ENCODING 282
SWIDTH 480 0
DWIDTH 16 0
BBX 13 29 4 0
BITMAP
0878
3CF0
1FE0
0FC0
0780
0000
1FF8
7FF8
7FF8
7FF0
7FF0
7FF0
7FE0
7E00
7E00
7EE0
7FC0
7FC0
7FC0
7C00
7FF0
7FF8
7FF8
7FF8
7FF8
FFF8
FFF0
FF80
F000
ENDCHAR
STARTCHAR 011B
ENCODING 283
SWIDTH 480 0
DWIDTH 16 0
BBX 13 29 4 0
BITMAP
0878
3CF0
1FE0
0FC0
0780
0000
1FF8
7FF8
7FF8
7FF0
7FF0
7FF0
7FE0
7E00
7E00
7EE0
7FC0
7FC0
7FC0
7C00
7FF0
7FF8
7FF8
7FF8
7FF8
FFF8
FFF0
FF80
F000
ENDCHAR
STARTCHAR 011C
ENCODING 284
SWIDTH 480 0
DWIDTH 16 0
BBX 18 29 2 0
BITMAP
000C00
003E00
007F00
00FF80
01E380
000000
003E00
00FF80
01FF80
03FFC0
07FF80
07E700
0F8000
1F0000
1E0000
1E0000
3C3F80
3C7F80
7C7F00
7C7F00
FC7F00
FC7F00
FFFE00
FFFE00
FFFC00
FFF800
7FE000
7F8000
180000
ENDCHAR
STARTCHAR 011D
ENCODING 285
SWIDTH 480 0
DWIDTH 16 0
BBX 18 29 2 0
BITMAP
000C00
003E00
007F00
00FF80
01E380
000000
003E00
00FF80
01FF80
03FFC0
07FF80
07E700
0F8000
1F0000
1E0000
1E0000
3C3F80
3C7F80
7C7F00
7C7F00
FC7F00
FC7F00
FFFE00
FFFE00
FFFC00
FFF800
7FE000
7F8000
180000
ENDCHAR
STARTCHAR 011E
ENCODING 286
SWIDTH 480 0
DWIDTH 16 0
BBX 18 29 2 0
BITMAP
00E1C0
00E3C0
00FF80
007F00
007E00
000000
003E00
00FF80
01FF80
03FFC0
07FF80
07E700
0F8000
1F0000
1E0000
1E0000
3C3F80
3C7F80
7C7F00
7C7F00
FC7F00
FC7F00
FFFE00
FFFE00
FFFC00
FFF800
7FE000
7F8000
180000
ENDCHAR
STARTCHAR 011F
ENCODING 287
SWIDTH 480 0
DWIDTH 16 0
BBX 18 29 2 0
BITMAP
00E1C0
00E3C0
00FF80
007F00
007E00
000000
003E00
00FF80
01FF80
03FFC0
07FF80
07E700
0F8000
1F0000
1E0000
1E0000
3C3F80
3C7F80
7C7F00
7C7F00
FC7F00
FC7F00
FFFE00
FFFE00
FFFC00
FFF800
7FE000
7F8000
180000
ENDCHAR
STARTCHAR 0120
ENCODING 288
SWIDTH 480 0
DWIDTH 16 0
BBX 18 27 2 0
BITMAP
001C00
001C00
003C00
001800
003E00
00FF80
01FF80
03FFC0
07FF80
07E700
0F8000
1F0000
1E0000
1E0000
3C3F80
3C7F80
7C7F00
7C7F00
FC7F00
FC7F00
FFFE00
FFFE00
FFFC00
FFF800
7FE000
7F8000
180000
ENDCHAR
STARTCHAR 0121
ENCODING 289
SWIDTH 480 0
DWIDTH 16 0
BBX 18 27 2 0
BITMAP
001C00
001C00
003C00
001800
003E00
00FF80
01FF80
03FFC0
07FF80
07E700
0F8000
1F0000
1E0000
1E0000
3C3F80
3C7F80
7C7F00
7C7F00
FC7F00
FC7F00
FFFE00
FFFE00
FFFC00
FFF800
7FE000
7F8000
180000
ENDCHAR
STARTCHAR 0122
ENCODING 290
SWIDTH 480 0
DWIDTH 16 0
BBX 18 29 2 -6
BITMAP
003E00
00FF80
01FF80
03FFC0
07FF80
07E700
0F8000
1F0000
1E0000
1E0000
3C3F80
3C7F80
7C7F00
7C7F00
FC7F00
FC7F00
FFFE00
FFFE00
FFFC00
FFF800
7FE000
7F8000
180000
1C0000
3E0000
3C0000
7C0000
780000
200000
ENDCHAR
STARTCHAR 0123
ENCODING 291
SWIDTH 480 0
DWIDTH 16 0
BBX 18 29 2 -6
BITMAP
003E00
00FF80
01FF80
03FFC0
07FF80
07E700
0F8000
1F0000
1E0000
1E0000
3C3F80
3C7F80
7C7F00
7C7F00
FC7F00
FC7F00
FFFE00
FFFE00
FFFC00
FFF800
7FE000
7F8000
180000
1C0000
3E0000
3C0000
7C0000
780000
200000
ENDCHAR
STARTCHAR 0124
ENCODING 292
SWIDTH 540 0
DWIDTH 18 0
BBX 22 29 1 0
BITMAP
0000C0
0003E0
0007F0
000FF8
001E78
000000
000800
03F87C
03F0FC
03F9F8
03F1F8
07F1F8
07F3F0
07F3F0
0FE3F0
0FFFF0
0FFFE0
1FFFE0
1FFFE0
1FFFE0
1FFFE0
3FAFC0
3F9FC0
3F9FC0
7F9F80
7F1F80
7F1F80
FF3F00
0A2000
ENDCHAR
STARTCHAR 0125
ENCODING 293
SWIDTH 540 0
DWIDTH 18 0
BBX 22 29 1 0
BITMAP
0000C0
0003E0
0007F0
000FF8
001E78
000000
000800
03F87C
03F0FC
03F9F8
03F1F8
07F1F8
07F3F0
07F3F0
0FE3F0
0FFFF0
0FFFE0
1FFFE0
1FFFE0
1FFFE0
1FFFE0
3FAFC0
3F9FC0
3F9FC0
7F9F80
7F1F80
7F1F80
FF3F00
0A2000
ENDCHAR
STARTCHAR 0126
ENCODING 294
SWIDTH 570 0
DWIDTH 19 0
BBX 22 23 1 0
BITMAP
001800
03F87C
03F8FC
0FFFFC
0FFFFC
1FFFFC
1FFFFC
0FF3F0
0FE3F0
0FFFF0
0FFFE0
1FFFE0
1FFFE0
1FFFE0
1FFFE0
3F8FC0
3F9FC0
3F9FC0
7F9F80
7F1F80
7F1F80
FF3F00
040000
ENDCHAR
STARTCHAR 0127
ENCODING 295
SWIDTH 570 0
DWIDTH 19 0
BBX 22 23 1 0
BITMAP
001800
03F87C
03F8FC
0FFFFC
0FFFFC
1FFFFC
1FFFFC
0FF3F0
0FE3F0
0FFFF0
0FFFE0
1FFFE0
1FFFE0
1FFFE0
1FFFE0
3F8FC0
3F9FC0
3F9FC0
7F9F80
7F1F80
7F1F80
FF3F00
040000
ENDCHAR
STARTCHAR 0128
ENCODING 296
SWIDTH 330 0
DWIDTH 11 0
BBX 17 28 1 0
BITMAP
00F380
01FF80
01FF00
01BE00
000000
000000
01FC00
01FC00
03F800
03F800
07F000
07F000
07F000
07F000
0FE000
0FE000
0FE000
1FE000
1FC000
1FC000
1FC000
3FC000
3FC000
3F8000
7F8000
7F0000
7F0000
F00000
ENDCHAR
STARTCHAR 0129
ENCODING 297
SWIDTH 330 0
DWIDTH 11 0
BBX 17 28 1 0
BITMAP
00F380
01FF80
01FF00
01BE00
000000
000000
01FC00
01FC00
03F800
03F800
07F000
07F000
07F000
07F000
0FE000
0FE000
0FE000
1FE000
1FC000
1FC000
1FC000
3FC000
3FC000
3F8000
7F8000
7F0000
7F0000
F00000
ENDCHAR
STARTCHAR 012A
ENCODING 298
SWIDTH 330 0
DWIDTH 11 0
BBX 17 27 1 0
BITMAP
01FF80
01FF00
03FF00
000000
000000
01FC00
01FC00
03F800
03F800
07F000
07F000
07F000
07F000
0FE000
0FE000
0FE000
1FE000
1FC000
1FC000
1FC000
3FC000
3FC000
3F8000
7F8000
7F0000
7F0000
F00000
ENDCHAR
STARTCHAR 012B
ENCODING 299
SWIDTH 330 0
DWIDTH 11 0
BBX 17 27 1 0
BITMAP
01FF80
01FF00
03FF00
000000
000000
01FC00
01FC00
03F800
03F800
07F000
07F000
07F000
07F000
0FE000
0FE000
0FE000
1FE000
1FC000
1FC000
1FC000
3FC000
3FC000
3F8000
7F8000
7F0000
7F0000
F00000
ENDCHAR
STARTCHAR 012C
ENCODING 300
SWIDTH 330 0
DWIDTH 11 0
BBX 17 29 1 0
BITMAP
01C380
01C380
01FF00
00FE00
00FC00
000000
000000
01FC00
01FC00
03F800
03F800
07F000
07F000
07F000
07F000
0FE000
0FE000
0FE000
1FE000
1FC000
1FC000
1FC000
3FC000
3FC000
3F8000
7F8000
7F0000
7F0000
F00000
ENDCHAR
STARTCHAR 012D
ENCODING 301
SWIDTH 330 0
DWIDTH 11 0
BBX 17 29 1 0
BITMAP
01C380
01C380
01FF00
00FE00
00FC00
000000
000000
01FC00
01FC00
03F800
03F800
07F000
07F000
07F000
07F000
0FE000
0FE000
0FE000
1FE000
1FC000
1FC000
1FC000
3FC000
3FC000
3F8000
7F8000
7F0000
7F0000
F00000
ENDCHAR
STARTCHAR 012E
ENCODING 302
SWIDTH 330 0
DWIDTH 11 0
BBX 14 28 1 -6
BITMAP
01FC
01FC
03F8
03F8
07F0
07F0
07F0
07F0
0FE0
0FE0
0FE0
1FE0
1FC0
1FC0
1FC0
3FC0
3FC0
3F80
7F80
7F00
7F00
F800
3800
7000
F080
FF80
FF80
0E00
ENDCHAR
STARTCHAR 012F
ENCODING 303
SWIDTH 330 0
DWIDTH 11 0
BBX 14 28 1 -6
BITMAP
01FC
01FC
03F8
03F8
07F0
07F0
07F0
07F0
0FE0
0FE0
0FE0
1FE0
1FC0
1FC0
1FC0
3FC0
3FC0
3F80
7F80
7F00
7F00
F800
3800
7000
F080
FF80
FF80
0E00
ENDCHAR
STARTCHAR 0130
ENCODING 304
SWIDTH 330 0
DWIDTH 11 0
BBX 14 27 1 0
BITMAP
0038
0038
0038
0000
0000
01FC
01FC
03F8
03F8
07F0
07F0
07F0
07F0
0FE0
0FE0
0FE0
1FE0
1FC0
1FC0
1FC0
3FC0
3FC0
3F80
7F80
7F00
7F00
F000
ENDCHAR
STARTCHAR 0131
ENCODING 305
SWIDTH 330 0
DWIDTH 11 0
BBX 14 27 1 0
BITMAP
0038
0038
0038
0000
0000
01FC
01FC
03F8
03F8
07F0
07F0
07F0
07F0
0FE0
0FE0
0FE0
1FE0
1FC0
1FC0
1FC0
3FC0
3FC0
3F80
7F80
7F00
7F00
F000
ENDCHAR
STARTCHAR 0132
ENCODING 306
SWIDTH 600 0
DWIDTH 20 0
BBX 23 23 1 0
BITMAP
000002
03F07E
03F07E
03E0FE
07E0FC
07E0FC
07C1FC
0FC1FC
0FC1FC
0FC1FC
0F83F8
1F83F8
1F83F8
1F81F8
1F01F0
3F0BF0
3F7BF0
3F7BE0
3FFBE0
7EFFC0
7E7F80
FC7F00
E01E00
ENDCHAR
STARTCHAR 0133
ENCODING 307
SWIDTH 600 0
DWIDTH 20 0
BBX 23 23 1 0
BITMAP
000002
03F07E
03F07E
03E0FE
07E0FC
07E0FC
07C1FC
0FC1FC
0FC1FC
0FC1FC
0F83F8
1F83F8
1F83F8
1F81F8
1F01F0
3F0BF0
3F7BF0
3F7BE0
3FFBE0
7EFFC0
7E7F80
FC7F00
E01E00
ENDCHAR
STARTCHAR 0134
ENCODING 308
SWIDTH 450 0
DWIDTH 15 0
BBX 19 29 2 0
BITMAP
000700
001F80
003FC0
007FE0
00F1C0
000000
000000
003F80
007F80
007F80
00FF00
00FF00
00FF00
01FF00
01FF00
01FF00
01FE00
01FE00
01FE00
01FE00
01FC00
09FC00
F9FC00
FDF800
FDF000
FFF000
FFE000
7FC000
1F0000
ENDCHAR
STARTCHAR 0135
ENCODING 309
SWIDTH 450 0
DWIDTH 15 0
BBX 19 29 2 0
BITMAP
000700
001F80
003FC0
007FE0
00F1C0
000000
000000
003F80
007F80
007F80
00FF00
00FF00
00FF00
01FF00
01FF00
01FF00
01FE00
01FE00
01FE00
01FE00
01FC00
09FC00
F9FC00
FDF800
FDF000
FFF000
FFE000
7FC000
1F0000
ENDCHAR
STARTCHAR 0136
ENCODING 310
SWIDTH 540 0
DWIDTH 18 0
BBX 21 29 1 -6
BITMAP
004860
07F8E0
0FF9F8
0FF3F8
0FF7F0
0FF7E0
1FFFC0
1FFF80
1FFF00
1FFE00
3FFC00
3FFC00
3FF800
3FFC00
7FFE00
7FFE00
7FFF00
7FBF00
7F9F80
FF9F80
FF8F80
FF8E80
DF0C00
01C000
03E000
03C000
07C000
078000
010000
ENDCHAR
STARTCHAR 0137
ENCODING 311
SWIDTH 540 0
DWIDTH 18 0
BBX 21 29 1 -6
BITMAP
004860
07F8E0
0FF9F8
0FF3F8
0FF7F0
0FF7E0
1FFFC0
1FFF80
1FFF00
1FFE00
3FFC00
3FFC00
3FF800
3FFC00
7FFE00
7FFE00
7FFF00
7FBF00
7F9F80
FF9F80
FF8F80
FF8E80
DF0C00
01C000
03E000
03C000
07C000
078000
010000
ENDCHAR
STARTCHAR 0138
ENCODING 312
SWIDTH 510 0
DWIDTH 17 0
BBX 19 18 1 -1
BITMAP
0FF180
0FF3C0
1FE7E0
1FEFC0
1FEF80
1FFF00
3FFE00
3FFC00
3FF800
7FF000
7FF800
7FF800
7FFC00
FFFE00
FFBF00
FF1F00
FF1F00
FF0C00
ENDCHAR
STARTCHAR 0139
ENCODING 313
SWIDTH 510 0
DWIDTH 17 0
BBX 19 29 1 -1
BITMAP
0003E0
0007C0
000780
000F00
001E00
000000
001E00
01FF00
01FE00
03FE00
03FE00
03FC00
07FC00
07F800
07F800
07F800
0FF000
0FF000
1FF000
1FE000
1FE000
3FE000
3FFF00
3FFF00
3FFF00
7FFF00
7FFF00
7FFF00
FFF800
ENDCHAR
STARTCHAR 013A
ENCODING 314
SWIDTH 510 0
DWIDTH 17 0
BBX 19 29 1 -1
BITMAP
0003E0
0007C0
000780
000F00
001E00
000000
001E00
01FF00
01FE00
03FE00
03FE00
03FC00
07FC00
07F800
07F800
07F800
0FF000
0FF000
1FF000
1FE000
1FE000
3FE000
3FFF00
3FFF00
3FFF00
7FFF00
7FFF00
7FFF00
FFF800
ENDCHAR
STARTCHAR 013B
ENCODING 315
SWIDTH 510 0
DWIDTH 17 0
BBX 16 29 1 -6
BITMAP
001E
01FF
01FE
03FE
03FE
03FC
07FC
07F8
07F8
07F8
0FF0
0FF0
1FF0
1FE0
1FE0
3FE0
3FFF
3FFF
3FFF
7FFF
7FFF
7FFF
FFF8
0300
0780
0F80
0F00
1E00
0400
ENDCHAR
STARTCHAR 013C
ENCODING 316
SWIDTH 510 0
DWIDTH 17 0
BBX 16 29 1 -6
BITMAP
001E
01FF
01FE
03FE
03FE
03FC
07FC
07F8
07F8
07F8
0FF0
0FF0
1FF0
1FE0
1FE0
3FE0
3FFF
3FFF
3FFF
7FFF
7FFF
7FFF
FFF8
0300
0780
0F80
0F00
1E00
0400
ENDCHAR
STARTCHAR 013D
ENCODING 317
SWIDTH 510 0
DWIDTH 17 0
BBX 20 24 1 -1
BITMAP
000070
001E70
01FF70
01FEF0
03FEE0
03FEE0
03FDC0
07FCC0
07F800
07F800
07F800
0FF000
0FF000
1FF000
1FE000
1FE000
3FE000
3FFF00
3FFF00
3FFF00
7FFF00
7FFF00
7FFF00
FFF800
ENDCHAR
STARTCHAR 013E
ENCODING 318
SWIDTH 510 0
DWIDTH 17 0
BBX 20 24 1 -1
BITMAP
000070
001E70
01FF70
01FEF0
03FEE0
03FEE0
03FDC0
07FCC0
07F800
07F800
07F800
0FF000
0FF000
1FF000
1FE000
1FE000
3FE000
3FFF00
3FFF00
3FFF00
7FFF00
7FFF00
7FFF00
FFF800
ENDCHAR
STARTCHAR 013F
ENCODING 319
SWIDTH 510 0
DWIDTH 17 0
BBX 16 23 1 -1
BITMAP
001E
01FF
01FE
03FE
03FE
03FC
07FC
07F8
07F8
07F8
0FF7
0FF7
1FF7
1FE0
1FE0
3FE0
3FFF
3FFF
3FFF
7FFF
7FFF
7FFF
FFF8
ENDCHAR
STARTCHAR 0140
ENCODING 320
SWIDTH 510 0
DWIDTH 17 0
BBX 16 23 1 -1
BITMAP
001E
01FF
01FE
03FE
03FE
03FC
07FC
07F8
07F8
07F8
0FF7
0FF7
1FF7
1FE0
1FE0
3FE0
3FFF
3FFF
3FFF
7FFF
7FFF
7FFF
FFF8
ENDCHAR
STARTCHAR 0141
ENCODING 321
SWIDTH 540 0
DWIDTH 18 0
BBX 19 23 2 -1
BITMAP
001E00
01FF00
01FE00
03FE00
03FEC0
03FFE0
07FFE0
07FFC0
07FF80
07FF00
0FFC00
0FF800
1FF000
3FE000
FFE000
FFE000
FFFF80
FFFF00
BFFF00
7FFF00
7FFF00
7FFF00
FFF800
ENDCHAR
STARTCHAR 0142
ENCODING 322
SWIDTH 540 0
DWIDTH 18 0
BBX 19 23 2 -1
BITMAP
001E00
01FF00
01FE00
03FE00
03FEC0
03FFE0
07FFE0
07FFC0
07FF80
07FF00
0FFC00
0FF800
1FF000
3FE000
FFE000
FFE000
FFFF80
FFFF00
BFFF00
7FFF00
7FFF00
7FFF00
FFF800
ENDCHAR
STARTCHAR 0143
ENCODING 323
SWIDTH 540 0
DWIDTH 18 0
BBX 22 29 1 0
BITMAP
000078
0000F8
0001F0
0001E0
000380
000000
000000
03F8F8
03F9FC
03F9F8
07F1F8
07F3F8
0FF3F0
0FF3F0
0FF3F0
1FF3E0
1FF7E0
1FFFE0
1FFFE0
3FFFC0
3FFFC0
3F7FC0
7F7F80
7F3F80
7E3F80
7E3F80
FE3F00
FE3F00
E00800
ENDCHAR
STARTCHAR 0144
ENCODING 324
SWIDTH 540 0
DWIDTH 18 0
BBX 22 29 1 0
BITMAP
000078
0000F8
0001F0
0001E0
000380
000000
000000
03F8F8
03F9FC
03F9F8
07F1F8
07F3F8
0FF3F0
0FF3F0
0FF3F0
1FF3E0
1FF7E0
1FFFE0
1FFFE0
3FFFC0
3FFFC0
3F7FC0
7F7F80
7F3F80
7E3F80
7E3F80
FE3F00
FE3F00
E00800
ENDCHAR
STARTCHAR 0145
ENCODING 325
SWIDTH 540 0
DWIDTH 18 0
BBX 22 28 1 -6
BITMAP
03F8F8
03F9FC
03F9F8
07F1F8
07F3F8
0FF3F0
0FF3F0
0FF3F0
1FF3E0
1FF7E0
1FFFE0
1FFFE0
3FFFC0
3FFFC0
3F7FC0
7F7F80
7F3F80
7E3F80
7E3F80
FE3F00
FE3F00
E00800
030000
078000
0F8000
0F0000
1E0000
040000
ENDCHAR
STARTCHAR 0146
ENCODING 326
SWIDTH 540 0
DWIDTH 18 0
BBX 22 28 1 -6
BITMAP
03F8F8
03F9FC
03F9F8
07F1F8
07F3F8
0FF3F0
0FF3F0
0FF3F0
1FF3E0
1FF7E0
1FFFE0
1FFFE0
3FFFC0
3FFFC0
3F7FC0
7F7F80
7F3F80
7E3F80
7E3F80
FE3F00
FE3F00
E00800
030000
078000
0F8000
0F0000
1E0000
040000
ENDCHAR
STARTCHAR 0147
ENCODING 327
SWIDTH 540 0
DWIDTH 18 0
BBX 22 28 1 0
BITMAP
001C78
001FF0
000FE0
0007C0
000300
000000
03F8F8
03F9FC
03F9F8
07F1F8
07F3F8
0FF3F0
0FF3F0
0FF3F0
1FF3E0
1FF7E0
1FFFE0
1FFFE0
3FFFC0
3FFFC0
3F7FC0
7F7F80
7F3F80
7E3F80
7E3F80
FE3F00
FE3F00
E00800
ENDCHAR
STARTCHAR 0148
ENCODING 328
SWIDTH 540 0
DWIDTH 18 0
BBX 22 28 1 0
BITMAP
001C78
001FF0
000FE0
0007C0
000300
000000
03F8F8
03F9FC
03F9F8
07F1F8
07F3F8
0FF3F0
0FF3F0
0FF3F0
1FF3E0
1FF7E0
1FFFE0
1FFFE0
3FFFC0
3FFFC0
3F7FC0
7F7F80
7F3F80
7E3F80
7E3F80
FE3F00
FE3F00
E00800
ENDCHAR
STARTCHAR 0149
ENCODING 329
SWIDTH 630 0
DWIDTH 21 0
BBX 21 24 4 0
BITMAP
3E0000
3E0000
3FF8F8
7DF9F8
7FF9F8
7FF9F0
7BF3F0
FFF3F0
F7F3E0
F7F3E0
EFFBE0
4FFFE0
0FFFC0
0FFFC0
1FFFC0
1FFF80
1FBF80
3F3F80
3F3F00
3F3F00
3F3F00
7E3F00
7E3F00
700000
ENDCHAR
STARTCHAR 014A
ENCODING 330
SWIDTH 540 0
DWIDTH 18 0
BBX 19 27 2 -4
BITMAP
0F3E00
1FFF80
1FFF80
1FFFC0
1FFFC0
3FFFC0
3FFFC0
3FDFE0
3F0FE0
3E0FC0
7E0FC0
7E0FC0
7C0FC0
7C0FC0
7C0F80
7C0F80
F81F80
F81F00
F81F00
F81F00
F83E00
F03E00
80FE00
03FC00
07FC00
07F000
07C000
ENDCHAR
STARTCHAR 014B
ENCODING 331
SWIDTH 540 0
DWIDTH 18 0
BBX 19 27 2 -4
BITMAP
0F3E00
1FFF80
1FFF80
1FFFC0
1FFFC0
3FFFC0
3FFFC0
3FDFE0
3F0FE0
3E0FC0
7E0FC0
7E0FC0
7C0FC0
7C0FC0
7C0F80
7C0F80
F81F80
F81F00
F81F00
F81F00
F83E00
F03E00
80FE00
03FC00
07FC00
07F000
07C000
ENDCHAR
STARTCHAR 014C
ENCODING 332
SWIDTH 510 0
DWIDTH 17 0
BBX 17 27 3 0
BITMAP
0FFC00
0FFC00
0FFC00
000000
01E000
03F000
07FC00
0FFE00
0FFE00
1FFF00
3FFF00
3FFF00
7F3F80
7E1F80
FE1F80
FC3F80
FC3F80
FE7F00
FFFF00
FFFF00
FFFE00
FFFE00
FFFC00
FFFC00
7FF800
3FF000
1FC000
ENDCHAR
STARTCHAR 014D
ENCODING 333
SWIDTH 510 0
DWIDTH 17 0
BBX 17 27 3 0
BITMAP
0FFC00
0FFC00
0FFC00
000000
01E000
03F000
07FC00
0FFE00
0FFE00
1FFF00
3FFF00
3FFF00
7F3F80
7E1F80
FE1F80
FC3F80
FC3F80
FE7F00
FFFF00
FFFF00
FFFE00
FFFE00
FFFC00
FFFC00
7FF800
3FF000
1FC000
ENDCHAR
STARTCHAR 014E
ENCODING 334
SWIDTH 510 0
DWIDTH 17 0
BBX 17 29 3 0
BITMAP
060E00
071C00
07FC00
07F800
03E000
000000
01E000
03F000
07FC00
0FFE00
0FFE00
1FFF00
3FFF00
3FFF00
7F3F80
7E1F80
FE1F80
FC3F80
FC3F80
FE7F00
FFFF00
FFFF00
FFFE00
FFFE00
FFFC00
FFFC00
7FF800
3FF000
1FC000
ENDCHAR
STARTCHAR 014F
ENCODING 335
SWIDTH 510 0
DWIDTH 17 0
BBX 17 29 3 0
BITMAP
060E00
071C00
07FC00
07F800
03E000
000000
01E000
03F000
07FC00
0FFE00
0FFE00
1FFF00
3FFF00
3FFF00
7F3F80
7E1F80
FE1F80
FC3F80
FC3F80
FE7F00
FFFF00
FFFF00
FFFE00
FFFE00
FFFC00
FFFC00
7FF800
3FF000
1FC000
ENDCHAR
STARTCHAR 0150
ENCODING 336
SWIDTH 510 0
DWIDTH 17 0
BBX 18 29 3 0
BITMAP
01F7C0
01EF80
03CF00
079E00
0F3C00
000000
01E000
03F000
07FC00
0FFE00
0FFE00
1FFF00
3FFF00
3FFF00
7F3F80
7E1F80
FE1F80
FC3F80
FC3F80
FE7F00
FFFF00
FFFF00
FFFE00
FFFE00
FFFC00
FFFC00
7FF800
3FF000
1FC000
ENDCHAR
STARTCHAR 0151
ENCODING 337
SWIDTH 510 0
DWIDTH 17 0
BBX 18 29 3 0
BITMAP
01F7C0
01EF80
03CF00
079E00
0F3C00
000000
01E000
03F000
07FC00
0FFE00
0FFE00
1FFF00
3FFF00
3FFF00
7F3F80
7E1F80
FE1F80
FC3F80
FC3F80
FE7F00
FFFF00
FFFF00
FFFE00
FFFE00
FFFC00
FFFC00
7FF800
3FF000
1FC000
ENDCHAR
STARTCHAR 0152
ENCODING 338
SWIDTH 720 0
DWIDTH 24 0
BBX 23 24 2 -1
BITMAP
000FFE
003FFE
00FFFE
01FFFC
03FFFC
07FFFC
0FFFF8
1FFF80
1FFF80
3F1F98
3F0FF0
7E0FF0
7E1FF0
7E1F80
FF7F84
FFFFFE
FFFFFE
FFFFFE
FFFFFE
7FFFFE
7FFFFE
7FFFE0
1FFE00
020000
ENDCHAR
STARTCHAR 0153
ENCODING 339
SWIDTH 720 0
DWIDTH 24 0
BBX 23 24 2 -1
BITMAP
000FFE
003FFE
00FFFE
01FFFC
03FFFC
07FFFC
0FFFF8
1FFF80
1FFF80
3F1F98
3F0FF0
7E0FF0
7E1FF0
7E1F80
FF7F84
FFFFFE
FFFFFE
FFFFFE
FFFFFE
7FFFFE
7FFFFE
7FFFE0
1FFE00
020000
ENDCHAR
STARTCHAR 0154
ENCODING 340
SWIDTH 570 0
DWIDTH 19 0
BBX 18 30 2 -1
BITMAP
003C00
007C00
00F800
00F000
01E000
000000
00F800
0FFE00
1FFF80
1FFF80
1FC7C0
3FC3C0
3FC3C0
3FC3C0
3FC780
3FDF80
3FFF00
3FFE00
7FFC00
7FFC00
7FFC00
7FBE00
7FBE00
7FBF00
7F9F00
FF9F00
FF1F80
FF1F80
7F0F00
780000
ENDCHAR
STARTCHAR 0155
ENCODING 341
SWIDTH 570 0
DWIDTH 19 0
BBX 18 30 2 -1
BITMAP
003C00
007C00
00F800
00F000
01E000
000000
00F800
0FFE00
1FFF80
1FFF80
1FC7C0
3FC3C0
3FC3C0
3FC3C0
3FC780
3FDF80
3FFF00
3FFE00
7FFC00
7FFC00
7FFC00
7FBE00
7FBE00
7FBF00
7F9F00
FF9F00
FF1F80
FF1F80
7F0F00
780000
ENDCHAR
STARTCHAR 0156
ENCODING 342
SWIDTH 570 0
DWIDTH 19 0
BBX 18 29 2 -6
BITMAP
00F800
0FFE00
1FFF80
1FFF80
1FC7C0
3FC3C0
3FC3C0
3FC3C0
3FC780
3FDF80
3FFF00
3FFE00
7FFC00
7FFC00
7FFC00
7FBE00
7FBE00
7FBF00
7F9F00
FF9F00
FF1F80
FF1F80
7F0F00
79E000
03E000
03E000
03C000
078000
010000
ENDCHAR
STARTCHAR 0157
ENCODING 343
SWIDTH 570 0
DWIDTH 19 0
BBX 18 29 2 -6
BITMAP
00F800
0FFE00
1FFF80
1FFF80
1FC7C0
3FC3C0
3FC3C0
3FC3C0
3FC780
3FDF80
3FFF00
3FFE00
7FFC00
7FFC00
7FFC00
7FBE00
7FBE00
7FBF00
7F9F00
FF9F00
FF1F80
FF1F80
7F0F00
79E000
03E000
03E000
03C000
078000
010000
ENDCHAR
STARTCHAR 0158
ENCODING 344
SWIDTH 570 0
DWIDTH 19 0
BBX 18 30 2 -1
BITMAP
001C00
0F3C00
0FF800
07F000
01E000
000000
00F800
0FFE00
1FFF80
1FFF80
1FC7C0
3FC3C0
3FC3C0
3FC3C0
3FC780
3FDF80
3FFF00
3FFE00
7FFC00
7FFC00
7FFC00
7FBE00
7FBE00
7FBF00
7F9F00
FF9F00
FF1F80
FF1F80
7F0F00
780000
ENDCHAR
STARTCHAR 0159
ENCODING 345
SWIDTH 570 0
DWIDTH 19 0
BBX 18 30 2 -1
BITMAP
001C00
0F3C00
0FF800
07F000
01E000
000000
00F800
0FFE00
1FFF80
1FFF80
1FC7C0
3FC3C0
3FC3C0
3FC3C0
3FC780
3FDF80
3FFF00
3FFE00
7FFC00
7FFC00
7FFC00
7FBE00
7FBE00
7FBF00
7F9F00
FF9F00
FF1F80
FF1F80
7F0F00
780000
ENDCHAR
STARTCHAR 015A
ENCODING 346
SWIDTH 480 0
DWIDTH 16 0
BBX 20 29 1 0
BITMAP
0001E0
0003E0
0007C0
000780
000F00
000000
003FE0
01FFF0
01FFE0
03FFC0
07FFC0
07FF80
0FFF00
0FFF00
0FDE00
0F8000
0FE000
0FF800
07FE00
01FF00
007F00
003F00
303F00
7FFF00
FFFE00
FFFE00
7FFC00
7FF000
1FC000
ENDCHAR
STARTCHAR 015B
ENCODING 347
SWIDTH 480 0
DWIDTH 16 0
BBX 20 29 1 0
BITMAP
0001E0
0003E0
0007C0
000780
000F00
000000
003FE0
01FFF0
01FFE0
03FFC0
07FFC0
07FF80
0FFF00
0FFF00
0FDE00
0F8000
0FE000
0FF800
07FE00
01FF00
007F00
003F00
303F00
7FFF00
FFFE00
FFFE00
7FFC00
7FF000
1FC000
ENDCHAR
STARTCHAR 015C
ENCODING 348
SWIDTH 480 0
DWIDTH 16 0
BBX 20 29 1 0
BITMAP
000300
000F80
003FC0
007FE0
0079E0
000000
003FE0
01FFF0
01FFE0
03FFC0
07FFC0
07FF80
0FFF00
0FFF00
0FDE00
0F8000
0FE000
0FF800
07FE00
01FF00
007F00
003F00
303F00
7FFF00
FFFE00
FFFE00
7FFC00
7FF000
1FC000
ENDCHAR
STARTCHAR 015D
ENCODING 349
SWIDTH 480 0
DWIDTH 16 0
BBX 20 29 1 0
BITMAP
000300
000F80
003FC0
007FE0
0079E0
000000
003FE0
01FFF0
01FFE0
03FFC0
07FFC0
07FF80
0FFF00
0FFF00
0FDE00
0F8000
0FE000
0FF800
07FE00
01FF00
007F00
003F00
303F00
7FFF00
FFFE00
FFFE00
7FFC00
7FF000
1FC000
ENDCHAR
STARTCHAR 015E
ENCODING 350
SWIDTH 480 0
DWIDTH 16 0
BBX 20 29 1 -6
BITMAP
003FE0
01FFF0
01FFE0
03FFC0
07FFC0
07FF80
0FFF00
0FFF00
0FDE00
0F8000
0FE000
0FF800
07FE00
01FF00
007F00
003F00
303F00
7FFF00
FFFE00
FFFE00
7FFC00
7FF000
1FC000
078000
07C000
01E000
7FE000
7FC000
0C0000
ENDCHAR
STARTCHAR 015F
ENCODING 351
SWIDTH 480 0
DWIDTH 16 0
BBX 20 29 1 -6
BITMAP
003FE0
01FFF0
01FFE0
03FFC0
07FFC0
07FF80
0FFF00
0FFF00
0FDE00
0F8000
0FE000
0FF800
07FE00
01FF00
007F00
003F00
303F00
7FFF00
FFFE00
FFFE00
7FFC00
7FF000
1FC000
078000
07C000
01E000
7FE000
7FC000
0C0000
ENDCHAR
STARTCHAR 0160
ENCODING 352
SWIDTH 480 0
DWIDTH 16 0
BBX 20 29 1 0
BITMAP
003060
0079E0
003FC0
001F80
000F00
000000
003FE0
01FFF0
01FFE0
03FFC0
07FFC0
07FF80
0FFF00
0FFF00
0FDE00
0F8000
0FE000
0FF800
07FE00
01FF00
007F00
003F00
303F00
7FFF00
FFFE00
FFFE00
7FFC00
7FF000
1FC000
ENDCHAR
STARTCHAR 0161
ENCODING 353
SWIDTH 480 0
DWIDTH 16 0
BBX 20 29 1 0
BITMAP
003060
0079E0
003FC0
001F80
000F00
000000
003FE0
01FFF0
01FFE0
03FFC0
07FFC0
07FF80
0FFF00
0FFF00
0FDE00
0F8000
0FE000
0FF800
07FE00
01FF00
007F00
003F00
303F00
7FFF00
FFFE00
FFFE00
7FFC00
7FF000
1FC000
ENDCHAR
STARTCHAR 0162
ENCODING 354
SWIDTH 570 0
DWIDTH 19 0
BBX 19 29 4 -6
BITMAP
000100
7FFFC0
7FFFC0
7FFFE0
7FFFE0
FFFFC0
FFFFC0
F9F800
81F000
03E000
03E000
03E000
03E000
07C000
07C000
07C000
07C000
0F8000
0F8000
0F8000
0F8000
0F8000
0F0000
0F0000
078000
03C000
7FC000
7F8000
0A0000
ENDCHAR
STARTCHAR 0163
ENCODING 355
SWIDTH 570 0
DWIDTH 19 0
BBX 19 29 4 -6
BITMAP
000100
7FFFC0
7FFFC0
7FFFE0
7FFFE0
FFFFC0
FFFFC0
F9F800
81F000
03E000
03E000
03E000
03E000
07C000
07C000
07C000
07C000
0F8000
0F8000
0F8000
0F8000
0F8000
0F0000
0F0000
078000
03C000
7FC000
7F8000
0A0000
ENDCHAR
STARTCHAR 0164
ENCODING 356
SWIDTH 570 0
DWIDTH 19 0
BBX 19 29 4 0
BITMAP
008300
01E780
01FF00
00FE00
007800
000000
000100
7FFFC0
7FFFC0
7FFFE0
7FFFE0
FFFFC0
FFFFC0
F9F800
81F000
03E000
03E000
03E000
03E000
07C000
07C000
07C000
07C000
0F8000
0F8000
0F8000
0F8000
0F8000
0F0000
ENDCHAR
STARTCHAR 0165
ENCODING 357
SWIDTH 570 0
DWIDTH 19 0
BBX 19 29 4 0
BITMAP
008300
01E780
01FF00
00FE00
007800
000000
000100
7FFFC0
7FFFC0
7FFFE0
7FFFE0
FFFFC0
FFFFC0
F9F800
81F000
03E000
03E000
03E000
03E000
07C000
07C000
07C000
07C000
0F8000
0F8000
0F8000
0F8000
0F8000
0F0000
ENDCHAR
STARTCHAR 0166
ENCODING 358
SWIDTH 570 0
DWIDTH 19 0
BBX 19 23 4 0
BITMAP
000100
7FFFC0
7FFFC0
7FFFE0
7FFFE0
FFFFC0
FFFFC0
F9F800
81F000
03E000
03E400
7FFE00
7FFE00
7FFE00
7FFE00
07C000
07C000
0F8000
0F8000
0F8000
0F8000
0F8000
0F0000
ENDCHAR
STARTCHAR 0167
ENCODING 359
SWIDTH 570 0
DWIDTH 19 0
BBX 19 23 4 0
BITMAP
000100
7FFFC0
7FFFC0
7FFFE0
7FFFE0
FFFFC0
FFFFC0
F9F800
81F000
03E000
03E400
7FFE00
7FFE00
7FFE00
7FFE00
07C000
07C000
0F8000
0F8000
0F8000
0F8000
0F8000
0F0000
ENDCHAR
STARTCHAR 0168
ENCODING 360
SWIDTH 540 0
DWIDTH 18 0
BBX 19 27 3 1
BITMAP
007DC0
007FC0
00FFC0
00EF80
000000
060200
0F83E0
0F83E0
1F03E0
1F07E0
3F07C0
3E07C0
7E0FC0
7E0FC0
7E0FC0
FE1F80
FE1F80
FE1F80
FFFF00
FFFF00
FFFE00
FFFE00
FFFC00
FFF800
FFF000
7FE000
3FC000
ENDCHAR
STARTCHAR 0169
ENCODING 361
SWIDTH 540 0
DWIDTH 18 0
BBX 19 27 3 1
BITMAP
007DC0
007FC0
00FFC0
00EF80
000000
060200
0F83E0
0F83E0
1F03E0
1F07E0
3F07C0
3E07C0
7E0FC0
7E0FC0
7E0FC0
FE1F80
FE1F80
FE1F80
FFFF00
FFFF00
FFFE00
FFFE00
FFFC00
FFF800
FFF000
7FE000
3FC000
ENDCHAR
STARTCHAR 016A
ENCODING 362
SWIDTH 540 0
DWIDTH 18 0
BBX 19 26 3 1
BITMAP
00FFC0
00FFC0
00FF80
000000
060200
0F83E0
0F83E0
1F03E0
1F07E0
3F07C0
3E07C0
7E0FC0
7E0FC0
7E0FC0
FE1F80
FE1F80
FE1F80
FFFF00
FFFF00
FFFE00
FFFE00
FFFC00
FFF800
FFF000
7FE000
3FC000
ENDCHAR
STARTCHAR 016B
ENCODING 363
SWIDTH 540 0
DWIDTH 18 0
BBX 19 26 3 1
BITMAP
00FFC0
00FFC0
00FF80
000000
060200
0F83E0
0F83E0
1F03E0
1F07E0
3F07C0
3E07C0
7E0FC0
7E0FC0
7E0FC0
FE1F80
FE1F80
FE1F80
FFFF00
FFFF00
FFFE00
FFFE00
FFFC00
FFF800
FFF000
7FE000
3FC000
ENDCHAR
STARTCHAR 016C
ENCODING 364
SWIDTH 540 0
DWIDTH 18 0
BBX 19 28 3 1
BITMAP
0070E0
0070C0
007FC0
007F80
003F00
000000
060200
0F83E0
0F83E0
1F03E0
1F07E0
3F07C0
3E07C0
7E0FC0
7E0FC0
7E0FC0
FE1F80
FE1F80
FE1F80
FFFF00
FFFF00
FFFE00
FFFE00
FFFC00
FFF800
FFF000
7FE000
3FC000
ENDCHAR
STARTCHAR 016D
ENCODING 365
SWIDTH 540 0
DWIDTH 18 0
BBX 19 28 3 1
BITMAP
0070E0
0070C0
007FC0
007F80
003F00
000000
060200
0F83E0
0F83E0
1F03E0
1F07E0
3F07C0
3E07C0
7E0FC0
7E0FC0
7E0FC0
FE1F80
FE1F80
FE1F80
FFFF00
FFFF00
FFFE00
FFFE00
FFFC00
FFF800
FFF000
7FE000
3FC000
ENDCHAR
STARTCHAR 016E
ENCODING 366
SWIDTH 540 0
DWIDTH 18 0
BBX 19 29 3 1
BITMAP
001F00
007F80
00F3C0
00E1C0
00E380
00FF80
007F00
061200
0F83E0
0F83E0
1F03E0
1F07E0
3F07C0
3E07C0
7E0FC0
7E0FC0
7E0FC0
FE1F80
FE1F80
FE1F80
FFFF00
FFFF00
FFFE00
FFFE00
FFFC00
FFF800
FFF000
7FE000
3FC000
ENDCHAR
STARTCHAR 016F
ENCODING 367
SWIDTH 540 0
DWIDTH 18 0
BBX 19 29 3 1
BITMAP
001F00
007F80
00F3C0
00E1C0
00E380
00FF80
007F00
061200
0F83E0
0F83E0
1F03E0
1F07E0
3F07C0
3E07C0
7E0FC0
7E0FC0
7E0FC0
FE1F80
FE1F80
FE1F80
FFFF00
FFFF00
FFFE00
FFFE00
FFFC00
FFF800
FFF000
7FE000
3FC000
ENDCHAR
STARTCHAR 0170
ENCODING 368
SWIDTH 540 0
DWIDTH 18 0
BBX 21 28 3 1
BITMAP
001E78
003EF8
007DF0
0079E0
00F380
000000
060200
0F83E0
0F83E0
1F03E0
1F07E0
3F07C0
3E07C0
7E0FC0
7E0FC0
7E0FC0
FE1F80
FE1F80
FE1F80
FFFF00
FFFF00
FFFE00
FFFE00
FFFC00
FFF800
FFF000
7FE000
3FC000
ENDCHAR
STARTCHAR 0171
ENCODING 369
SWIDTH 540 0
DWIDTH 18 0
BBX 21 28 3 1
BITMAP
001E78
003EF8
007DF0
0079E0
00F380
000000
060200
0F83E0
0F83E0
1F03E0
1F07E0
3F07C0
3E07C0
7E0FC0
7E0FC0
7E0FC0
FE1F80
FE1F80
FE1F80
FFFF00
FFFF00
FFFE00
FFFE00
FFFC00
FFF800
FFF000
7FE000
3FC000
ENDCHAR
STARTCHAR 0172
ENCODING 370
SWIDTH 540 0
DWIDTH 18 0
BBX 19 28 3 -5
BITMAP
060200
0F83E0
0F83E0
1F03E0
1F07E0
3F07C0
3E07C0
7E0FC0
7E0FC0
7E0FC0
FE1F80
FE1F80
FE1F80
FFFF00
FFFF00
FFFE00
FFFE00
FFFC00
FFF800
FFF000
7FE000
3FC000
0E0000
1C0000
380000
384000
3FC000
3FC000
ENDCHAR
STARTCHAR 0173
ENCODING 371
SWIDTH 540 0
DWIDTH 18 0
BBX 19 28 3 -5
BITMAP
060200
0F83E0
0F83E0
1F03E0
1F07E0
3F07C0
3E07C0
7E0FC0
7E0FC0
7E0FC0
FE1F80
FE1F80
FE1F80
FFFF00
FFFF00
FFFE00
FFFE00
FFFC00
FFF800
FFF000
7FE000
3FC000
0E0000
1C0000
380000
384000
3FC000
3FC000
ENDCHAR
STARTCHAR 0174
ENCODING 372
SWIDTH 720 0
DWIDTH 24 0
BBX 23 29 5 0
BITMAP
000C00
003F00
007F80
00F780
01E380
000000
000022
FC183E
FC187E
FE38FC
FE38FC
FE39F8
FE79F8
FE7BF0
FF7FF0
FFFFF0
7FFFE0
7FFFE0
7FFFC0
7FFFC0
3FFFC0
3F9F80
3F9F80
3F1F80
1E1F00
1E1F00
1C1E00
0C1C00
080000
ENDCHAR
STARTCHAR 0175
ENCODING 373
SWIDTH 720 0
DWIDTH 24 0
BBX 23 29 5 0
BITMAP
000C00
003F00
007F80
00F780
01E380
000000
000022
FC183E
FC187E
FE38FC
FE38FC
FE39F8
FE79F8
FE7BF0
FF7FF0
FFFFF0
7FFFE0
7FFFE0
7FFFC0
7FFFC0
3FFFC0
3F9F80
3F9F80
3F1F80
1E1F00
1E1F00
1C1E00
0C1C00
080000
ENDCHAR
STARTCHAR 0176
ENCODING 374
SWIDTH 600 0
DWIDTH 20 0
BBX 20 29 5 0
BITMAP
003000
00FC00
01FE00
03DE00
078E00
000000
0001F0
0C03E0
FC07C0
FC0FC0
FE0F80
FE1F00
7E3F00
7E7E00
7E7C00
3FFC00
3FF800
3FF000
3FF000
1FE000
1FC000
1F8000
0F8000
0F8000
0F8000
1F8000
1F8000
1F8000
1F0000
ENDCHAR
STARTCHAR 0177
ENCODING 375
SWIDTH 600 0
DWIDTH 20 0
BBX 20 29 5 0
BITMAP
003000
00FC00
01FE00
03DE00
078E00
000000
0001F0
0C03E0
FC07C0
FC0FC0
FE0F80
FE1F00
7E3F00
7E7E00
7E7C00
3FFC00
3FF800
3FF000
3FF000
1FE000
1FC000
1F8000
0F8000
0F8000
0F8000
1F8000
1F8000
1F8000
1F0000
ENDCHAR
STARTCHAR 0178
ENCODING 376
SWIDTH 600 0
DWIDTH 20 0
BBX 20 27 5 0
BITMAP
01CE00
03CE00
03CE00
010000
0001F0
0C03E0
FC07C0
FC0FC0
FE0F80
FE1F00
7E3F00
7E7E00
7E7C00
3FFC00
3FF800
3FF000
3FF000
1FE000
1FC000
1F8000
0F8000
0F8000
0F8000
1F8000
1F8000
1F8000
1F0000
ENDCHAR
STARTCHAR 0179
ENCODING 377
SWIDTH 600 0
DWIDTH 20 0
BBX 17 29 4 0
BITMAP
000F00
001E00
003C00
007800
007000
000000
01FE00
1FFF80
3FFF00
7FFE00
7FFC00
FFFC00
80F800
01F000
01F000
03E000
03E000
07C000
0FC000
0F8000
1F8000
1F0000
3E0000
3FFF80
7FFF00
7FFF00
FFFE00
0FFC00
01C000
ENDCHAR
STARTCHAR 017A
ENCODING 378
SWIDTH 600 0
DWIDTH 20 0
BBX 17 29 4 0
BITMAP
000F00
001E00
003C00
007800
007000
000000
01FE00
1FFF80
3FFF00
7FFE00
7FFC00
FFFC00
80F800
01F000
01F000
03E000
03E000
07C000
0FC000
0F8000
1F8000
1F0000
3E0000
3FFF80
7FFF00
7FFF00
FFFE00
0FFC00
01C000
ENDCHAR
STARTCHAR 017B
ENCODING 379
SWIDTH 600 0
DWIDTH 20 0
BBX 17 27 4 0
BITMAP
007000
00F000
00E000
000000
01FE00
1FFF80
3FFF00
7FFE00
7FFC00
FFFC00
80F800
01F000
01F000
03E000
03E000
07C000
0FC000
0F8000
1F8000
1F0000
3E0000
3FFF80
7FFF00
7FFF00
FFFE00
0FFC00
01C000
ENDCHAR
STARTCHAR 017C
ENCODING 380
SWIDTH 600 0
DWIDTH 20 0
BBX 17 27 4 0
BITMAP
007000
00F000
00E000
000000
01FE00
1FFF80
3FFF00
7FFE00
7FFC00
FFFC00
80F800
01F000
01F000
03E000
03E000
07C000
0FC000
0F8000
1F8000
1F0000
3E0000
3FFF80
7FFF00
7FFF00
FFFE00
0FFC00
01C000
ENDCHAR
STARTCHAR 017D
ENCODING 381
SWIDTH 600 0
DWIDTH 20 0
BBX 17 29 4 0
BITMAP
018600
03DF00
03FE00
01FC00
00F000
000000
01FE00
1FFF80
3FFF00
7FFE00
7FFC00
FFFC00
80F800
01F000
01F000
03E000
03E000
07C000
0FC000
0F8000
1F8000
1F0000
3E0000
3FFF80
7FFF00
7FFF00
FFFE00
0FFC00
01C000
ENDCHAR
STARTCHAR 017E
ENCODING 382
SWIDTH 600 0
DWIDTH 20 0
BBX 17 29 4 0
BITMAP
018600
03DF00
03FE00
01FC00
00F000
000000
01FE00
1FFF80
3FFF00
7FFE00
7FFC00
FFFC00
80F800
01F000
01F000
03E000
03E000
07C000
0FC000
0F8000
1F8000
1F0000
3E0000
3FFF80
7FFF00
7FFF00
FFFE00
0FFC00
01C000
ENDCHAR
STARTCHAR 017F
ENCODING 383
SWIDTH 420 0
DWIDTH 14 0
BBX 17 28 1 -5
BITMAP
00FE00
01FF80
07FF80
0FFF80
0FCF80
1F8700
1F8000
1F8000
1F0000
1F0000
1F0000
1F0000
3F0000
3F0000
3E0000
3E0000
3E0000
3E0000
3E0000
7C0000
7C0000
7C0000
7C0000
7C0000
FC0000
F80000
F80000
700000
ENDCHAR
STARTCHAR 0180
ENCODING 384
SWIDTH 510 0
DWIDTH 17 0
BBX 16 23 2 0
BITMAP
07F0
1FFC
1FFE
1FFE
1FFF
1FBF
1F1F
1F1E
1F1E
1FFC
3FF8
3FFC
3FFE
3FFF
3FDF
FFDF
FFDF
FFBF
FFFE
7FFE
7FF8
7FF0
3E00
ENDCHAR
STARTCHAR 0181
ENCODING 385
SWIDTH 660 0
DWIDTH 22 0
BBX 20 23 4 0
BITMAP
01FE00
0FFFC0
1FFFC0
3FFFC0
7FFFE0
7FF7E0
FBE3E0
F3E3C0
E3E3C0
E3F7C0
F3FF00
FBFF80
F7FFC0
F7FFE0
67E3E0
07E3F0
07E7E0
07EFE0
07FFE0
07FFC0
07FF00
07FE00
07C000
ENDCHAR
STARTCHAR 0186
ENCODING 390
SWIDTH 480 0
DWIDTH 16 0
BBX 17 23 2 0
BITMAP
00E000
07F800
0FFE00
1FFF00
1FFF00
3FFF80
1FFF80
007F80
003F80
003F80
003F80
003F00
007F00
7FFF00
7FFE00
FFFE00
FFFC00
FFFC00
FFF800
FFF800
7FF000
3FC000
0C0000
ENDCHAR
STARTCHAR 0187
ENCODING 391
SWIDTH 480 0
DWIDTH 16 0
BBX 19 29 3 0
BITMAP
000060
0007E0
001FE0
003FC0
003FC0
007F00
007E00
01FF00
07FF80
0FFF80
1FFF80
3FFF00
3FFD00
7F8000
7F0000
7E0000
FE0000
FE0000
FE0000
FFFC00
FFFC00
FFFC00
FFFC00
FFFC00
FFFC00
FFF800
7FF000
3FC000
030000
ENDCHAR
STARTCHAR 0188
ENCODING 392
SWIDTH 480 0
DWIDTH 16 0
BBX 19 29 3 0
BITMAP
000060
0007E0
001FE0
003FC0
003FC0
007F00
007E00
01FF00
07FF80
0FFF80
1FFF80
3FFF00
3FFD00
7F8000
7F0000
7E0000
FE0000
FE0000
FE0000
FFFC00
FFFC00
FFFC00
FFFC00
FFFC00
FFFC00
FFF800
7FF000
3FC000
030000
ENDCHAR
STARTCHAR 0189
ENCODING 393
SWIDTH 480 0
DWIDTH 16 0
BBX 17 23 2 0
BITMAP
03E000
0FF800
0FFC00
0FFE00
1FFF00
1FFF00
1FDF80
1F8F80
1FE780
7FEF80
7FEF80
7FFF00
FF3F00
1F7E00
1FFC00
1FF800
1FF800
1FF000
1FE000
1FC000
1F0000
1C0000
100000
ENDCHAR
STARTCHAR 018A
ENCODING 394
SWIDTH 630 0
DWIDTH 21 0
BBX 20 23 4 0
BITMAP
00F800
0FFF00
1FFF80
3FFFC0
7FFFE0
7FFFE0
FBFFE0
F3F1F0
E3E1F0
E3E1F0
F7E1E0
FFE3E0
F7E7C0
F7EFC0
67FF80
07FF00
07FE00
07FE00
07FC00
07F800
07E000
078000
060000
ENDCHAR
STARTCHAR 018F
ENCODING 399
SWIDTH 480 0
DWIDTH 16 0
BBX 16 23 2 0
BITMAP
01F8
07FC
0FFE
1FFE
1FFF
0E7F
001F
000F
000F
3FFF
7FFF
7FFF
7FFF
7E3F
7C3E
7E7E
FFFE
FFFE
FFFC
7FFC
3FF8
1FE0
01C0
ENDCHAR
STARTCHAR 0190
ENCODING 400
SWIDTH 480 0
DWIDTH 16 0
BBX 16 23 3 0
BITMAP
03F8
0FFE
1FFE
3FFF
3FC2
7F00
7E00
7E00
7E00
7F10
3FF0
3FF0
3FF0
7F00
7C00
FC00
FC00
FC1C
FFFC
FFF8
7FF8
7FF0
1FC0
ENDCHAR
STARTCHAR 0191
ENCODING 401
SWIDTH 480 0
DWIDTH 16 0
BBX 23 27 -3 -4
BITMAP
001FFE
00FFFE
00FFFE
00FFFE
01FFFE
01FC00
01F800
01F800
01FB00
01FF00
03FF00
03FF00
03FF00
03F000
07E000
07E000
07E000
07E000
0FE000
0FC000
0FC000
0FC000
1FC000
7F8000
7F8000
FE0000
FC0000
ENDCHAR
STARTCHAR 0192
ENCODING 402
SWIDTH 480 0
DWIDTH 16 0
BBX 23 27 -3 -4
BITMAP
001FFE
00FFFE
00FFFE
00FFFE
01FFFE
01FC00
01F800
01F800
01FB00
01FF00
03FF00
03FF00
03FF00
03F000
07E000
07E000
07E000
07E000
0FE000
0FC000
0FC000
0FC000
1FC000
7F8000
7F8000
FE0000
FC0000
ENDCHAR
STARTCHAR 0193
ENCODING 403
SWIDTH 480 0
DWIDTH 16 0
BBX 20 29 2 0
BITMAP
000010
0003F0
0007F0
000FF0
001FE0
001F80
003F80
00FF80
01FF80
03FFC0
07FF80
07E700
0F8000
1F0000
1E0000
1E0000
3C3F80
3C7F80
7C7F00
7C7F00
FC7F00
FC7F00
FFFE00
FFFE00
FFFC00
FFF800
7FE000
7F8000
180000
ENDCHAR
STARTCHAR 0194
ENCODING 404
SWIDTH 600 0
DWIDTH 20 0
BBX 19 26 5 -4
BITMAP
FC0300
FC07E0
7C07E0
7C0FC0
7C1FC0
7C1F80
7C3F00
7C3E00
7C7E00
3EFC00
3EFC00
3FF800
1FF000
1FE000
1FE000
1F8000
3FC000
7FC000
7BC000
F3C000
F3C000
E3C000
F78000
FF0000
7E0000
3C0000
ENDCHAR
STARTCHAR 0197
ENCODING 407
SWIDTH 360 0
DWIDTH 12 0
BBX 15 22 1 0
BITMAP
01FE
01FC
01FC
03F8
03F8
03F8
07F0
07F0
07F0
3FF8
3FF8
3FF8
3FF8
1FE0
1FC0
1FC0
1FC0
3FC0
3F80
3F80
7F00
F000
ENDCHAR
STARTCHAR 0198
ENCODING 408
SWIDTH 600 0
DWIDTH 20 0
BBX 23 23 1 0
BITMAP
004878
07F8FC
0FF9FC
0FF3FC
0FF7FC
0FF7BE
1FFFBC
1FFF3C
1FFE78
1FFCF8
3FFCF0
3FF9E0
3FF840
3FFC00
7FFE00
7FFE00
7FFF00
7FBF00
7F9F80
FF9F80
FF8F80
FF8E80
DF0C00
ENDCHAR
STARTCHAR 0199
ENCODING 409
SWIDTH 600 0
DWIDTH 20 0
BBX 23 23 1 0
BITMAP
004878
07F8FC
0FF9FC
0FF3FC
0FF7FC
0FF7BE
1FFFBC
1FFF3C
1FFE78
1FFCF8
3FFCF0
3FF9E0
3FF840
3FFC00
7FFE00
7FFE00
7FFF00
7FBF00
7F9F80
FF9F80
FF8F80
FF8E80
DF0C00
ENDCHAR
STARTCHAR 019D
ENCODING 413
SWIDTH 540 0
DWIDTH 18 0
BBX 26 26 -3 -4
BITMAP
003F8F80
003F9FC0
003F9F80
007F1F80
007F3F80
00FF3F00
00FF3F00
00FF3F00
01FF3E00
01FF7E00
01FFFE00
01FFFE00
03FFFC00
03FFFC00
03F7FC00
07F7F800
07F3F800
07E3F800
07E3F800
0FC3F000
0FC3F000
1FC08000
7F800000
7F800000
FE000000
FC000000
ENDCHAR
STARTCHAR 01A0
ENCODING 416
SWIDTH 540 0
DWIDTH 18 0
BBX 20 24 3 0
BITMAP
0000F0
01E0F0
03F0E0
07FCE0
0FFEE0
0FFEE0
1FFFE0
3FFFC0
3FFFC0
7F3F80
7E1F80
FE1F80
FC3F80
FC3F80
FE7F00
FFFF00
FFFF00
FFFE00
FFFE00
FFFC00
FFFC00
7FF800
3FF000
1FC000
ENDCHAR
STARTCHAR 01A1
ENCODING 417
SWIDTH 540 0
DWIDTH 18 0
BBX 20 24 3 0
BITMAP
0000F0
01E0F0
03F0E0
07FCE0
0FFEE0
0FFEE0
1FFFE0
3FFFC0
3FFFC0
7F3F80
7E1F80
FE1F80
FC3F80
FC3F80
FE7F00
FFFF00
FFFF00
FFFE00
FFFE00
FFFC00
FFFC00
7FF800
3FF000
1FC000
ENDCHAR
STARTCHAR 01AF
ENCODING 431
SWIDTH 600 0
DWIDTH 20 0
BBX 21 24 3 0
BITMAP
000038
000138
3E1F38
3E1F38
3E0F38
3C1F38
3C1FF0
7C1FF0
7C1FE0
7C1FC0
7C1F00
FC3F00
FC3F00
FC7F00
FDFE00
FFFE00
FFFE00
FFFC00
FFFC00
7FF800
7FF000
3FF000
3FC000
1F0000
ENDCHAR
STARTCHAR 01B0
ENCODING 432
SWIDTH 600 0
DWIDTH 20 0
BBX 21 24 3 0
BITMAP
000038
000138
3E1F38
3E1F38
3E0F38
3C1F38
3C1FF0
7C1FF0
7C1FE0
7C1FC0
7C1F00
FC3F00
FC3F00
FC7F00
FDFE00
FFFE00
FFFE00
FFFC00
FFFC00
7FF800
7FF000
3FF000
3FC000
1F0000
ENDCHAR
STARTCHAR 01B1
ENCODING 433
SWIDTH 600 0
DWIDTH 20 0
BBX 23 23 2 0
BITMAP
1FF1FE
1FF1FE
1FE3FC
1FE3FC
1FE3FC
07C3E0
0F81F0
1F01F0
1F01F0
3E00F0
3E01F0
7E01F0
7C01F0
7C03F0
7E07E0
7E0FE0
7FFFC0
FFFFC0
7FFF80
7FFF00
7FFE00
3FFC00
1FE000
ENDCHAR
STARTCHAR 01B2
ENCODING 434
SWIDTH 540 0
DWIDTH 18 0
BBX 18 22 3 1
BITMAP
001E00
3E7F00
3E3F00
3E3F80
3E1F80
7E0FC0
7E0FC0
7E0FC0
7E0FC0
7E0FC0
7E0FC0
FE1FC0
FE1F80
7E3F80
7FFF80
7FFF00
7FFF00
7FFE00
3FFE00
3FFC00
1FF800
1FE000
ENDCHAR
STARTCHAR 01B3
ENCODING 435
SWIDTH 660 0
DWIDTH 22 0
BBX 21 23 5 0
BITMAP
0001C0
0C07E0
FC07F0
FC0FF0
FE1FF0
FE1FF8
7E3FF8
7E7E70
7E7CF0
3FFCF0
3FFBE0
3FF3C0
3FF3C0
1FE780
1FC000
1F8000
0F8000
0F8000
0F8000
1F8000
1F8000
1F8000
1F0000
ENDCHAR
STARTCHAR 01B4
ENCODING 436
SWIDTH 660 0
DWIDTH 22 0
BBX 21 23 5 0
BITMAP
0001C0
0C07E0
FC07F0
FC0FF0
FE1FF0
FE1FF8
7E3FF8
7E7E70
7E7CF0
3FFCF0
3FFBE0
3FF3C0
3FF3C0
1FE780
1FC000
1F8000
0F8000
0F8000
0F8000
1F8000
1F8000
1F8000
1F0000
ENDCHAR
STARTCHAR 01B5
ENCODING 437
SWIDTH 600 0
DWIDTH 20 0
BBX 17 23 4 0
BITMAP
01FE00
1FFF80
3FFF00
7FFE00
7FFC00
FFFC00
80F800
01F000
01F000
7FFF00
7FFE00
FFFE00
FFFE00
FF8000
1F8000
1F0000
3E0000
3FFF80
7FFF00
7FFF00
FFFE00
0FFC00
01C000
ENDCHAR
STARTCHAR 01B6
ENCODING 438
SWIDTH 600 0
DWIDTH 20 0
BBX 17 23 4 0
BITMAP
01FE00
1FFF80
3FFF00
7FFE00
7FFC00
FFFC00
80F800
01F000
01F000
7FFF00
7FFE00
FFFE00
FFFE00
FF8000
1F8000
1F0000
3E0000
3FFF80
7FFF00
7FFF00
FFFE00
0FFC00
01C000
ENDCHAR
STARTCHAR 01B7
ENCODING 439
SWIDTH 480 0
DWIDTH 16 0
BBX 18 23 1 0
BITMAP
01FF80
07FFC0
07FFC0
07FF80
000700
001E00
003C00
00F800
01FC00
07FF00
0FFF00
0FFF00
001F80
000F80
000F80
000F80
600F00
7E1F00
FFFF00
FFFE00
7FFC00
3FF800
1FE000
ENDCHAR
STARTCHAR 01BB
ENCODING 443
SWIDTH 510 0
DWIDTH 17 0
BBX 17 23 2 0
BITMAP
01F000
03FC00
07FE00
1FFE00
3FFE00
1F7E00
1E3C00
083C00
007C80
1FFF80
1FFF80
1FFF80
3FE000
03E380
07FF00
07FF00
0FFE00
1FFE00
3FFE00
7FFC00
FFFC00
7FC000
060000
ENDCHAR
STARTCHAR 01C0
ENCODING 448
SWIDTH 180 0
DWIDTH 6 0
BBX 9 23 1 0
BITMAP
0780
0F80
0F80
0F80
0F80
1F00
1F00
1F00
1F00
1F00
3E00
3E00
3E00
3E00
7E00
7C00
7C00
7C00
FC00
F800
F800
F800
F800
ENDCHAR
STARTCHAR 01C1
ENCODING 449
SWIDTH 300 0
DWIDTH 10 0
BBX 13 23 1 0
BITMAP
0638
0F78
0F78
0F78
0F78
1E78
1EF0
1EF0
1EF0
3EF0
3CE0
3DE0
3DE0
3DE0
79E0
7BC0
7BC0
7BC0
FBC0
F380
F780
F780
F380
ENDCHAR
STARTCHAR 01C2
ENCODING 450
SWIDTH 330 0
DWIDTH 11 0
BBX 12 23 2 0
BITMAP
03C0
03E0
07C0
07C0
07C0
07F0
3FF0
3FF0
3FF0
7FE0
0F80
1F00
1F00
1F00
7FC0
FFC0
FFC0
FFC0
FE00
3E00
3C00
7C00
7C00
ENDCHAR
STARTCHAR 01C3
ENCODING 451
SWIDTH 210 0
DWIDTH 7 0
BBX 10 23 1 0
BITMAP
07C0
0FC0
0FC0
0FC0
0FC0
0F80
1F80
1F80
1F80
1F00
3F00
3F00
3E00
3E00
3C00
0000
0000
3800
7C00
FC00
FC00
F800
7000
ENDCHAR
STARTCHAR 01CA
ENCODING 458
SWIDTH 720 0
DWIDTH 24 0
BBX 27 23 1 0
BITMAP
00000020
03C783E0
07CF83E0
07CF07E0
07CF07E0
0FDF07E0
0FDF0FC0
0FDE0FC0
1FDE0FC0
1FFE0FC0
1FFC0FC0
1FFC1FC0
3FFC1F80
3FFC0F80
3FF81F80
3DF85F00
7DFBDF00
7DF3DF00
79F3DE00
F9F3FE00
F9F3FC00
F9F1F800
C080F000
ENDCHAR
STARTCHAR 01CB
ENCODING 459
SWIDTH 720 0
DWIDTH 24 0
BBX 27 23 1 0
BITMAP
00000020
03C783E0
07CF83E0
07CF07E0
07CF07E0
0FDF07E0
0FDF0FC0
0FDE0FC0
1FDE0FC0
1FFE0FC0
1FFC0FC0
1FFC1FC0
3FFC1F80
3FFC0F80
3FF81F80
3DF85F00
7DFBDF00
7DF3DF00
79F3DE00
F9F3FE00
F9F3FC00
F9F1F800
C080F000
ENDCHAR
STARTCHAR 01CC
ENCODING 460
SWIDTH 720 0
DWIDTH 24 0
BBX 27 23 1 0
BITMAP
00000020
03C783E0
07CF83E0
07CF07E0
07CF07E0
0FDF07E0
0FDF0FC0
0FDE0FC0
1FDE0FC0
1FFE0FC0
1FFC0FC0
1FFC1FC0
3FFC1F80
3FFC0F80
3FF81F80
3DF85F00
7DFBDF00
7DF3DF00
79F3DE00
F9F3FE00
F9F3FC00
F9F1F800
C080F000
ENDCHAR
STARTCHAR 01CD
ENCODING 461
SWIDTH 630 0
DWIDTH 21 0
BBX 22 30 0 -1
BITMAP
000608
000F3C
000FF8
0007F0
0003C0
000000
000000
0003C0
0007C0
0007C0
000FC0
000FC0
001FC0
001FC0
003FC0
007FC0
007FC0
00FFC0
01EFE0
01CFE0
0387E0
078FE0
07FFE0
0FFFE0
1FEFE0
1F0FF0
3F0FF0
7E0FF0
7E0FF0
F00000
ENDCHAR
STARTCHAR 01CE
ENCODING 462
SWIDTH 630 0
DWIDTH 21 0
BBX 22 30 0 -1
BITMAP
000608
000F3C
000FF8
0007F0
0003C0
000000
000000
0003C0
0007C0
0007C0
000FC0
000FC0
001FC0
001FC0
003FC0
007FC0
007FC0
00FFC0
01EFE0
01CFE0
0387E0
078FE0
07FFE0
0FFFE0
1FEFE0
1F0FF0
3F0FF0
7E0FF0
7E0FF0
F00000
ENDCHAR
STARTCHAR 01CF
ENCODING 463
SWIDTH 330 0
DWIDTH 11 0
BBX 17 29 1 0
BITMAP
00C100
01E780
01FF00
00FE00
007800
000000
000000
01FC00
01FC00
03F800
03F800
07F000
07F000
07F000
07F000
0FE000
0FE000
0FE000
1FE000
1FC000
1FC000
1FC000
3FC000
3FC000
3F8000
7F8000
7F0000
7F0000
F00000
ENDCHAR
STARTCHAR 01D0
ENCODING 464
SWIDTH 330 0
DWIDTH 11 0
BBX 17 29 1 0
BITMAP
00C100
01E780
01FF00
00FE00
007800
000000
000000
01FC00
01FC00
03F800
03F800
07F000
07F000
07F000
07F000
0FE000
0FE000
0FE000
1FE000
1FC000
1FC000
1FC000
3FC000
3FC000
3F8000
7F8000
7F0000
7F0000
F00000
ENDCHAR
STARTCHAR 01D1
ENCODING 465
SWIDTH 510 0
DWIDTH 17 0
BBX 17 29 3 0
BITMAP
0E1C00
0F3C00
0FF800
07E000
03C000
000000
01E000
03F000
07FC00
0FFE00
0FFE00
1FFF00
3FFF00
3FFF00
7F3F80
7E1F80
FE1F80
FC3F80
FC3F80
FE7F00
FFFF00
FFFF00
FFFE00
FFFE00
FFFC00
FFFC00
7FF800
3FF000
1FC000
ENDCHAR
STARTCHAR 01D2
ENCODING 466
SWIDTH 510 0
DWIDTH 17 0
BBX 17 29 3 0
BITMAP
0E1C00
0F3C00
0FF800
07E000
03C000
000000
01E000
03F000
07FC00
0FFE00
0FFE00
1FFF00
3FFF00
3FFF00
7F3F80
7E1F80
FE1F80
FC3F80
FC3F80
FE7F00
FFFF00
FFFF00
FFFE00
FFFE00
FFFC00
FFFC00
7FF800
3FF000
1FC000
ENDCHAR
STARTCHAR 01D3
ENCODING 467
SWIDTH 540 0
DWIDTH 18 0
BBX 19 28 3 1
BITMAP
0070C0
007BE0
007FC0
003F80
001E00
000000
060200
0F83E0
0F83E0
1F03E0
1F07E0
3F07C0
3E07C0
7E0FC0
7E0FC0
7E0FC0
FE1F80
FE1F80
FE1F80
FFFF00
FFFF00
FFFE00
FFFE00
FFFC00
FFF800
FFF000
7FE000
3FC000
ENDCHAR
STARTCHAR 01D4
ENCODING 468
SWIDTH 540 0
DWIDTH 18 0
BBX 19 28 3 1
BITMAP
0070C0
007BE0
007FC0
003F80
001E00
000000
060200
0F83E0
0F83E0
1F03E0
1F07E0
3F07C0
3E07C0
7E0FC0
7E0FC0
7E0FC0
FE1F80
FE1F80
FE1F80
FFFF00
FFFF00
FFFE00
FFFE00
FFFC00
FFF800
FFF000
7FE000
3FC000
ENDCHAR
STARTCHAR 01D5
ENCODING 469
SWIDTH 540 0
DWIDTH 18 0
BBX 19 29 3 1
BITMAP
007FE0
007FC0
007FC0
000000
00F380
00E380
004300
060200
0F83E0
0F83E0
1F03E0
1F07E0
3F07C0
3E07C0
7E0FC0
7E0FC0
7E0FC0
FE1F80
FE1F80
FE1F80
FFFF00
FFFF00
FFFE00
FFFE00
FFFC00
FFF800
FFF000
7FE000
3FC000
ENDCHAR
STARTCHAR 01D6
ENCODING 470
SWIDTH 540 0
DWIDTH 18 0
BBX 19 29 3 1
BITMAP
007FE0
007FC0
007FC0
000000
00F380
00E380
004300
060200
0F83E0
0F83E0
1F03E0
1F07E0
3F07C0
3E07C0
7E0FC0
7E0FC0
7E0FC0
FE1F80
FE1F80
FE1F80
FFFF00
FFFF00
FFFE00
FFFE00
FFFC00
FFF800
FFF000
7FE000
3FC000
ENDCHAR
STARTCHAR 01D7
ENCODING 471
SWIDTH 540 0
DWIDTH 18 0
BBX 19 29 3 1
BITMAP
0003E0
000780
000F00
000000
00F380
00E380
004300
060200
0F83E0
0F83E0
1F03E0
1F07E0
3F07C0
3E07C0
7E0FC0
7E0FC0
7E0FC0
FE1F80
FE1F80
FE1F80
FFFF00
FFFF00
FFFE00
FFFE00
FFFC00
FFF800
FFF000
7FE000
3FC000
ENDCHAR
STARTCHAR 01D8
ENCODING 472
SWIDTH 540 0
DWIDTH 18 0
BBX 19 29 3 1
BITMAP
0003E0
000780
000F00
000000
00F380
00E380
004300
060200
0F83E0
0F83E0
1F03E0
1F07E0
3F07C0
3E07C0
7E0FC0
7E0FC0
7E0FC0
FE1F80
FE1F80
FE1F80
FFFF00
FFFF00
FFFE00
FFFE00
FFFC00
FFF800
FFF000
7FE000
3FC000
ENDCHAR
STARTCHAR 01D9
ENCODING 473
SWIDTH 540 0
DWIDTH 18 0
BBX 19 29 3 1
BITMAP
0079E0
007FC0
001F00
000800
00F380
00E380
004300
060200
0F83E0
0F83E0
1F03E0
1F07E0
3F07C0
3E07C0
7E0FC0
7E0FC0
7E0FC0
FE1F80
FE1F80
FE1F80
FFFF00
FFFF00
FFFE00
FFFE00
FFFC00
FFF800
FFF000
7FE000
3FC000
ENDCHAR
STARTCHAR 01DA
ENCODING 474
SWIDTH 540 0
DWIDTH 18 0
BBX 19 29 3 1
BITMAP
0079E0
007FC0
001F00
000800
00F380
00E380
004300
060200
0F83E0
0F83E0
1F03E0
1F07E0
3F07C0
3E07C0
7E0FC0
7E0FC0
7E0FC0
FE1F80
FE1F80
FE1F80
FFFF00
FFFF00
FFFE00
FFFE00
FFFC00
FFF800
FFF000
7FE000
3FC000
ENDCHAR
STARTCHAR 01DB
ENCODING 475
SWIDTH 540 0
DWIDTH 18 0
BBX 19 29 3 1
BITMAP
007800
003C00
001E00
000000
00F380
00E380
004300
060200
0F83E0
0F83E0
1F03E0
1F07E0
3F07C0
3E07C0
7E0FC0
7E0FC0
7E0FC0
FE1F80
FE1F80
FE1F80
FFFF00
FFFF00
FFFE00
FFFE00
FFFC00
FFF800
FFF000
7FE000
3FC000
ENDCHAR
STARTCHAR 01DC
ENCODING 476
SWIDTH 540 0
DWIDTH 18 0
BBX 19 29 3 1
BITMAP
007800
003C00
001E00
000000
00F380
00E380
004300
060200
0F83E0
0F83E0
1F03E0
1F07E0
3F07C0
3E07C0
7E0FC0
7E0FC0
7E0FC0
FE1F80
FE1F80
FE1F80
FFFF00
FFFF00
FFFE00
FFFE00
FFFC00
FFF800
FFF000
7FE000
3FC000
ENDCHAR
STARTCHAR 01DE
ENCODING 478
SWIDTH 630 0
DWIDTH 21 0
BBX 23 31 0 -1
BITMAP
0007FE
0007FC
000600
000218
000F38
000E38
000600
000000
0003C0
0007C0
0007C0
000FC0
000FC0
001FC0
001FC0
003FC0
007FC0
007FC0
00FFC0
01EFE0
01CFE0
0387E0
078FE0
07FFE0
0FFFE0
1FEFE0
1F0FF0
3F0FF0
7E0FF0
7E0FF0
F00000
ENDCHAR
STARTCHAR 01DF
ENCODING 479
SWIDTH 630 0
DWIDTH 21 0
BBX 23 31 0 -1
BITMAP
0007FE
0007FC
000600
000218
000F38
000E38
000600
000000
0003C0
0007C0
0007C0
000FC0
000FC0
001FC0
001FC0
003FC0
007FC0
007FC0
00FFC0
01EFE0
01CFE0
0387E0
078FE0
07FFE0
0FFFE0
1FEFE0
1F0FF0
3F0FF0
7E0FF0
7E0FF0
F00000
ENDCHAR
STARTCHAR 01E0
ENCODING 480
SWIDTH 630 0
DWIDTH 21 0
BBX 23 31 0 -1
BITMAP
0007FE
0007FC
000600
000080
0001E0
0001C0
000080
000000
0003C0
0007C0
0007C0
000FC0
000FC0
001FC0
001FC0
003FC0
007FC0
007FC0
00FFC0
01EFE0
01CFE0
0387E0
078FE0
07FFE0
0FFFE0
1FEFE0
1F0FF0
3F0FF0
7E0FF0
7E0FF0
F00000
ENDCHAR
STARTCHAR 01E1
ENCODING 481
SWIDTH 630 0
DWIDTH 21 0
BBX 23 31 0 -1
BITMAP
0007FE
0007FC
000600
000080
0001E0
0001C0
000080
000000
0003C0
0007C0
0007C0
000FC0
000FC0
001FC0
001FC0
003FC0
007FC0
007FC0
00FFC0
01EFE0
01CFE0
0387E0
078FE0
07FFE0
0FFFE0
1FEFE0
1F0FF0
3F0FF0
7E0FF0
7E0FF0
F00000
ENDCHAR
STARTCHAR 01E2
ENCODING 482
SWIDTH 720 0
DWIDTH 24 0
BBX 24 28 1 -1
BITMAP
0001FF
0003FF
0003FF
000000
0001FF
0007FF
000FFF
000FFE
001FFE
001FFE
003FFC
007FC0
007FC0
00FFCC
00FFF8
01FFF8
03DFF8
038FC0
070FC2
0F3FFF
0FFFFF
1FFFFF
3F9FFF
3E1FFF
7E1FFF
FC1FF0
FC1F00
800000
ENDCHAR
STARTCHAR 01E3
ENCODING 483
SWIDTH 720 0
DWIDTH 24 0
BBX 24 28 1 -1
BITMAP
0001FF
0003FF
0003FF
000000
0001FF
0007FF
000FFF
000FFE
001FFE
001FFE
003FFC
007FC0
007FC0
00FFCC
00FFF8
01FFF8
03DFF8
038FC0
070FC2
0F3FFF
0FFFFF
1FFFFF
3F9FFF
3E1FFF
7E1FFF
FC1FF0
FC1F00
800000
ENDCHAR
STARTCHAR 01E4
ENCODING 484
SWIDTH 540 0
DWIDTH 18 0
BBX 18 23 3 0
BITMAP
003E00
007F80
00FFC0
01FFC0
03FFC0
07E380
078000
0FC000
7FC000
FFC000
FFDF80
FFBF80
3C3F80
7C3F80
7C3F00
7E7F00
7FFF00
FFFF00
FFFE00
7FF800
7FF000
3F8000
180000
ENDCHAR
STARTCHAR 01E5
ENCODING 485
SWIDTH 540 0
DWIDTH 18 0
BBX 18 23 3 0
BITMAP
003E00
007F80
00FFC0
01FFC0
03FFC0
07E380
078000
0FC000
7FC000
FFC000
FFDF80
FFBF80
3C3F80
7C3F80
7C3F00
7E7F00
7FFF00
FFFF00
FFFE00
7FF800
7FF000
3F8000
180000
ENDCHAR
STARTCHAR 01E6
ENCODING 486
SWIDTH 480 0
DWIDTH 16 0
BBX 18 29 2 0
BITMAP
0060C0
00F3C0
00FF80
007F00
003C00
000000
003E00
00FF80
01FF80
03FFC0
07FF80
07E700
0F8000
1F0000
1E0000
1E0000
3C3F80
3C7F80
7C7F00
7C7F00
FC7F00
FC7F00
FFFE00
FFFE00
FFFC00
FFF800
7FE000
7F8000
180000
ENDCHAR
STARTCHAR 01E7
ENCODING 487
SWIDTH 480 0
DWIDTH 16 0
BBX 18 29 2 0
BITMAP
0060C0
00F3C0
00FF80
007F00
003C00
000000
003E00
00FF80
01FF80
03FFC0
07FF80
07E700
0F8000
1F0000
1E0000
1E0000
3C3F80
3C7F80
7C7F00
7C7F00
FC7F00
FC7F00
FFFE00
FFFE00
FFFC00
FFF800
7FE000
7F8000
180000
ENDCHAR
STARTCHAR 01E8
ENCODING 488
SWIDTH 540 0
DWIDTH 18 0
BBX 21 29 1 0
BITMAP
000C18
001E78
000FF0
000FE0
000780
000000
004860
07F8E0
0FF9F8
0FF3F8
0FF7F0
0FF7E0
1FFFC0
1FFF80
1FFF00
1FFE00
3FFC00
3FFC00
3FF800
3FFC00
7FFE00
7FFE00
7FFF00
7FBF00
7F9F80
FF9F80
FF8F80
FF8E80
DF0C00
ENDCHAR
STARTCHAR 01E9
ENCODING 489
SWIDTH 540 0
DWIDTH 18 0
BBX 21 29 1 0
BITMAP
000C18
001E78
000FF0
000FE0
000780
000000
004860
07F8E0
0FF9F8
0FF3F8
0FF7F0
0FF7E0
1FFFC0
1FFF80
1FFF00
1FFE00
3FFC00
3FFC00
3FF800
3FFC00
7FFE00
7FFE00
7FFF00
7FBF00
7F9F80
FF9F80
FF8F80
FF8E80
DF0C00
ENDCHAR
STARTCHAR 01EA
ENCODING 490
SWIDTH 510 0
DWIDTH 17 0
BBX 17 28 3 -5
BITMAP
01E000
03F000
07FC00
0FFE00
0FFE00
1FFF00
3FFF00
3FFF00
7F3F80
7E1F80
FE1F80
FC3F80
FC3F80
FE7F00
FFFF00
FFFF00
FFFE00
FFFE00
FFFC00
FFFC00
7FF800
3FF000
1FC000
060000
0E0000
1E3000
1FF000
1FF000
ENDCHAR
STARTCHAR 01EB
ENCODING 491
SWIDTH 510 0
DWIDTH 17 0
BBX 17 28 3 -5
BITMAP
01E000
03F000
07FC00
0FFE00
0FFE00
1FFF00
3FFF00
3FFF00
7F3F80
7E1F80
FE1F80
FC3F80
FC3F80
FE7F00
FFFF00
FFFF00
FFFE00
FFFE00
FFFC00
FFFC00
7FF800
3FF000
1FC000
060000
0E0000
1E3000
1FF000
1FF000
ENDCHAR
STARTCHAR 01EC
ENCODING 492
SWIDTH 510 0
DWIDTH 17 0
BBX 17 32 3 -5
BITMAP
0FFC00
0FFC00
0FFC00
000000
01E000
03F000
07FC00
0FFE00
0FFE00
1FFF00
3FFF00
3FFF00
7F3F80
7E1F80
FE1F80
FC3F80
FC3F80
FE7F00
FFFF00
FFFF00
FFFE00
FFFE00
FFFC00
FFFC00
7FF800
3FF000
1FC000
060000
0E0000
1E3000
1FF000
1FF000
ENDCHAR
STARTCHAR 01ED
ENCODING 493
SWIDTH 510 0
DWIDTH 17 0
BBX 17 32 3 -5
BITMAP
0FFC00
0FFC00
0FFC00
000000
01E000
03F000
07FC00
0FFE00
0FFE00
1FFF00
3FFF00
3FFF00
7F3F80
7E1F80
FE1F80
FC3F80
FC3F80
FE7F00
FFFF00
FFFF00
FFFE00
FFFE00
FFFC00
FFFC00
7FF800
3FF000
1FC000
060000
0E0000
1E3000
1FF000
1FF000
ENDCHAR
STARTCHAR 01EE
ENCODING 494
SWIDTH 480 0
DWIDTH 16 0
BBX 18 29 1 0
BITMAP
004080
00E7C0
00FF80
007F00
003C00
001000
01FF80
07FFC0
07FFC0
07FF80
000700
001E00
003C00
00F800
01FC00
07FF00
0FFF00
0FFF00
001F80
000F80
000F80
000F80
600F00
7E1F00
FFFF00
FFFE00
7FFC00
3FF800
1FE000
ENDCHAR
STARTCHAR 01EF
ENCODING 495
SWIDTH 480 0
DWIDTH 16 0
BBX 18 29 1 0
BITMAP
004080
00E7C0
00FF80
007F00
003C00
001000
01FF80
07FFC0
07FFC0
07FF80
000700
001E00
003C00
00F800
01FC00
07FF00
0FFF00
0FFF00
001F80
000F80
000F80
000F80
600F00
7E1F00
FFFF00
FFFE00
7FFC00
3FF800
1FE000
ENDCHAR
STARTCHAR 01F0
ENCODING 496
SWIDTH 450 0
DWIDTH 15 0
BBX 19 29 2 0
BITMAP
003860
0079E0
003FE0
001F80
000F00
000000
000000
003F80
007F80
007F80
00FF00
00FF00
00FF00
01FF00
01FF00
01FF00
01FE00
01FE00
01FE00
01FE00
01FC00
09FC00
F9FC00
FDF800
FDF000
FFF000
FFE000
7FC000
1F0000
ENDCHAR
STARTCHAR 01F4
ENCODING 500
SWIDTH 480 0
DWIDTH 16 0
BBX 18 29 2 0
BITMAP
0003C0
0007C0
000F00
001E00
001C00
000000
003E00
00FF80
01FF80
03FFC0
07FF80
07E700
0F8000
1F0000
1E0000
1E0000
3C3F80
3C7F80
7C7F00
7C7F00
FC7F00
FC7F00
FFFE00
FFFE00
FFFC00
FFF800
7FE000
7F8000
180000
ENDCHAR
STARTCHAR 01F5
ENCODING 501
SWIDTH 480 0
DWIDTH 16 0
BBX 18 29 2 0
BITMAP
0003C0
0007C0
000F00
001E00
001C00
000000
003E00
00FF80
01FF80
03FFC0
07FF80
07E700
0F8000
1F0000
1E0000
1E0000
3C3F80
3C7F80
7C7F00
7C7F00
FC7F00
FC7F00
FFFE00
FFFE00
FFFC00
FFF800
7FE000
7F8000
180000
ENDCHAR
STARTCHAR 01F8
ENCODING 504
SWIDTH 540 0
DWIDTH 18 0
BBX 22 29 1 0
BITMAP
001E00
001E00
001F00
000F00
000700
000000
000000
03F8F8
03F9FC
03F9F8
07F1F8
07F3F8
0FF3F0
0FF3F0
0FF3F0
1FF3E0
1FF7E0
1FFFE0
1FFFE0
3FFFC0
3FFFC0
3F7FC0
7F7F80
7F3F80
7E3F80
7E3F80
FE3F00
FE3F00
E00800
ENDCHAR
STARTCHAR 01F9
ENCODING 505
SWIDTH 540 0
DWIDTH 18 0
BBX 22 29 1 0
BITMAP
001E00
001E00
001F00
000F00
000700
000000
000000
03F8F8
03F9FC
03F9F8
07F1F8
07F3F8
0FF3F0
0FF3F0
0FF3F0
1FF3E0
1FF7E0
1FFFE0
1FFFE0
3FFFC0
3FFFC0
3F7FC0
7F7F80
7F3F80
7E3F80
7E3F80
FE3F00
FE3F00
E00800
ENDCHAR
STARTCHAR 01FE
ENCODING 510
SWIDTH 510 0
DWIDTH 17 0
BBX 23 29 0 -1
BITMAP
0003C0
000780
000F00
001E00
001C00
000022
003C7E
007EFC
00FFF8
01FFF0
01FFE0
03FFE0
07FFE0
07FFE0
0FDFF0
0FBFF0
1F7FF0
1F7BF0
1EF3F0
1FF7E0
1FEFE0
1FFFE0
1FFFC0
1FFFC0
1FFF80
3FFF80
3FFF00
7FFE00
F3F800
ENDCHAR
STARTCHAR 01FF
ENCODING 511
SWIDTH 510 0
DWIDTH 17 0
BBX 23 29 0 -1
BITMAP
0003C0
000780
000F00
001E00
001C00
000022
003C7E
007EFC
00FFF8
01FFF0
01FFE0
03FFE0
07FFE0
07FFE0
0FDFF0
0FBFF0
1F7FF0
1F7BF0
1EF3F0
1FF7E0
1FEFE0
1FFFE0
1FFFC0
1FFFC0
1FFF80
3FFF80
3FFF00
7FFE00
F3F800
ENDCHAR
STARTCHAR 0218
ENCODING 536
SWIDTH 480 0
DWIDTH 16 0
BBX 20 29 1 -6
BITMAP
003FE0
01FFF0
01FFE0
03FFC0
07FFC0
07FF80
0FFF00
0FFF00
0FDE00
0F8000
0FE000
0FF800
07FE00
01FF00
007F00
003F00
303F00
7FFF00
FFFE00
FFFE00
7FFC00
7FF000
1FC000
070000
0F0000
1F0000
1E0000
1C0000
080000
ENDCHAR
STARTCHAR 0219
ENCODING 537
SWIDTH 480 0
DWIDTH 16 0
BBX 20 29 1 -6
BITMAP
003FE0
01FFF0
01FFE0
03FFC0
07FFC0
07FF80
0FFF00
0FFF00
0FDE00
0F8000
0FE000
0FF800
07FE00
01FF00
007F00
003F00
303F00
7FFF00
FFFE00
FFFE00
7FFC00
7FF000
1FC000
070000
0F0000
1F0000
1E0000
1C0000
080000
ENDCHAR
STARTCHAR 021A
ENCODING 538
SWIDTH 570 0
DWIDTH 19 0
BBX 19 29 4 -6
BITMAP
000100
7FFFC0
7FFFC0
7FFFE0
7FFFE0
FFFFC0
FFFFC0
F9F800
81F000
03E000
03E000
03E000
03E000
07C000
07C000
07C000
07C000
0F8000
0F8000
0F8000
0F8000
0F8000
0F0000
0E0000
1E0000
1E0000
3C0000
3C0000
100000
ENDCHAR
STARTCHAR 021B
ENCODING 539
SWIDTH 570 0
DWIDTH 19 0
BBX 19 29 4 -6
BITMAP
000100
7FFFC0
7FFFC0
7FFFE0
7FFFE0
FFFFC0
FFFFC0
F9F800
81F000
03E000
03E000
03E000
03E000
07C000
07C000
07C000
07C000
0F8000
0F8000
0F8000
0F8000
0F8000
0F0000
0E0000
1E0000
1E0000
3C0000
3C0000
100000
ENDCHAR
STARTCHAR 021E
ENCODING 542
SWIDTH 540 0
DWIDTH 18 0
BBX 22 29 1 0
BITMAP
000E18
000F7C
000FF8
0007E0
0003C0
000000
000800
03F87C
03F0FC
03F9F8
03F1F8
07F1F8
07F3F0
07F3F0
0FE3F0
0FFFF0
0FFFE0
1FFFE0
1FFFE0
1FFFE0
1FFFE0
3FAFC0
3F9FC0
3F9FC0
7F9F80
7F1F80
7F1F80
FF3F00
0A2000
ENDCHAR
STARTCHAR 021F
ENCODING 543
SWIDTH 540 0
DWIDTH 18 0
BBX 22 29 1 0
BITMAP
000E18
000F7C
000FF8
0007E0
0003C0
000000
000800
03F87C
03F0FC
03F9F8
03F1F8
07F1F8
07F3F0
07F3F0
0FE3F0
0FFFF0
0FFFE0
1FFFE0
1FFFE0
1FFFE0
1FFFE0
3FAFC0
3F9FC0
3F9FC0
7F9F80
7F1F80
7F1F80
FF3F00
0A2000
ENDCHAR
STARTCHAR 0224
ENCODING 548
SWIDTH 600 0
DWIDTH 20 0
BBX 17 27 4 -4
BITMAP
01FE00
1FFF80
3FFF00
7FFE00
7FFC00
FFFC00
80F800
01F000
01F000
03E000
03E000
07C000
0FC000
0F8000
1F8000
1F0000
3E0000
3FFF80
7FFF00
7FFF00
FFFF00
803F00
007E00
01FE00
03FC00
03F800
03F000
ENDCHAR
STARTCHAR 0225
ENCODING 549
SWIDTH 600 0
DWIDTH 20 0
BBX 17 27 4 -4
BITMAP
01FE00
1FFF80
3FFF00
7FFE00
7FFC00
FFFC00
80F800
01F000
01F000
03E000
03E000
07C000
0FC000
0F8000
1F8000
1F0000
3E0000
3FFF80
7FFF00
7FFF00
FFFF00
803F00
007E00
01FE00
03FC00
03F800
03F000
ENDCHAR
STARTCHAR 0226
ENCODING 550
SWIDTH 630 0
DWIDTH 21 0
BBX 20 28 0 -1
BITMAP
0000C0
0001C0
0001C0
000080
000000
0003C0
0007C0
0007C0
000FC0
000FC0
001FC0
001FC0
003FC0
007FC0
007FC0
00FFC0
01EFE0
01CFE0
0387E0
078FE0
07FFE0
0FFFE0
1FEFE0
1F0FF0
3F0FF0
7E0FF0
7E0FF0
F00000
ENDCHAR
STARTCHAR 0227
ENCODING 551
SWIDTH 630 0
DWIDTH 21 0
BBX 20 28 0 -1
BITMAP
0000C0
0001C0
0001C0
000080
000000
0003C0
0007C0
0007C0
000FC0
000FC0
001FC0
001FC0
003FC0
007FC0
007FC0
00FFC0
01EFE0
01CFE0
0387E0
078FE0
07FFE0
0FFFE0
1FEFE0
1F0FF0
3F0FF0
7E0FF0
7E0FF0
F00000
ENDCHAR
STARTCHAR 0228
ENCODING 552
SWIDTH 480 0
DWIDTH 16 0
BBX 13 29 4 -6
BITMAP
1FF8
7FF8
7FF8
7FF0
7FF0
7FF0
7FE0
7E00
7E00
7EE0
7FC0
7FC0
7FC0
7C00
7FF0
7FF8
7FF8
7FF8
7FF8
FFF8
FFF0
FF80
FF00
0F00
0780
03C0
7FC0
7F80
0A00
ENDCHAR
STARTCHAR 0229
ENCODING 553
SWIDTH 480 0
DWIDTH 16 0
BBX 13 29 4 -6
BITMAP
1FF8
7FF8
7FF8
7FF0
7FF0
7FF0
7FE0
7E00
7E00
7EE0
7FC0
7FC0
7FC0
7C00
7FF0
7FF8
7FF8
7FF8
7FF8
FFF8
FFF0
FF80
FF00
0F00
0780
03C0
7FC0
7F80
0A00
ENDCHAR
STARTCHAR 022A
ENCODING 554
SWIDTH 510 0
DWIDTH 17 0
BBX 17 30 3 0
BITMAP
07FE00
07FE00
03FC00
020000
0F3800
0F3800
063000
01E000
03F000
07FC00
0FFE00
0FFE00
1FFF00
3FFF00
3FFF00
7F3F80
7E1F80
FE1F80
FC3F80
FC3F80
FE7F00
FFFF00
FFFF00
FFFE00
FFFE00
FFFC00
FFFC00
7FF800
3FF000
1FC000
ENDCHAR
STARTCHAR 022B
ENCODING 555
SWIDTH 510 0
DWIDTH 17 0
BBX 17 30 3 0
BITMAP
07FE00
07FE00
03FC00
020000
0F3800
0F3800
063000
01E000
03F000
07FC00
0FFE00
0FFE00
1FFF00
3FFF00
3FFF00
7F3F80
7E1F80
FE1F80
FC3F80
FC3F80
FE7F00
FFFF00
FFFF00
FFFE00
FFFE00
FFFC00
FFFC00
7FF800
3FF000
1FC000
ENDCHAR
STARTCHAR 022C
ENCODING 556
SWIDTH 510 0
DWIDTH 17 0
BBX 17 30 3 0
BITMAP
07FE00
07FC00
060000
031C00
0FFC00
0FF800
000000
01E000
03F000
07FC00
0FFE00
0FFE00
1FFF00
3FFF00
3FFF00
7F3F80
7E1F80
FE1F80
FC3F80
FC3F80
FE7F00
FFFF00
FFFF00
FFFE00
FFFE00
FFFC00
FFFC00
7FF800
3FF000
1FC000
ENDCHAR
STARTCHAR 022D
ENCODING 557
SWIDTH 510 0
DWIDTH 17 0
BBX 17 30 3 0
BITMAP
07FE00
07FC00
060000
031C00
0FFC00
0FF800
000000
01E000
03F000
07FC00
0FFE00
0FFE00
1FFF00
3FFF00
3FFF00
7F3F80
7E1F80
FE1F80
FC3F80
FC3F80
FE7F00
FFFF00
FFFF00
FFFE00
FFFE00
FFFC00
FFFC00
7FF800
3FF000
1FC000
ENDCHAR
STARTCHAR 022E
ENCODING 558
SWIDTH 510 0
DWIDTH 17 0
BBX 17 27 3 0
BITMAP
01C000
01C000
01C000
000000
01E000
03F000
07FC00
0FFE00
0FFE00
1FFF00
3FFF00
3FFF00
7F3F80
7E1F80
FE1F80
FC3F80
FC3F80
FE7F00
FFFF00
FFFF00
FFFE00
FFFE00
FFFC00
FFFC00
7FF800
3FF000
1FC000
ENDCHAR
STARTCHAR 022F
ENCODING 559
SWIDTH 510 0
DWIDTH 17 0
BBX 17 27 3 0
BITMAP
01C000
01C000
01C000
000000
01E000
03F000
07FC00
0FFE00
0FFE00
1FFF00
3FFF00
3FFF00
7F3F80
7E1F80
FE1F80
FC3F80
FC3F80
FE7F00
FFFF00
FFFF00
FFFE00
FFFE00
FFFC00
FFFC00
7FF800
3FF000
1FC000
ENDCHAR
STARTCHAR 0230
ENCODING 560
SWIDTH 510 0
DWIDTH 17 0
BBX 17 30 3 0
BITMAP
07FE00
07FC00
060000
00E000
01E000
01C000
000000
01E000
03F000
07FC00
0FFE00
0FFE00
1FFF00
3FFF00
3FFF00
7F3F80
7E1F80
FE1F80
FC3F80
FC3F80
FE7F00
FFFF00
FFFF00
FFFE00
FFFE00
FFFC00
FFFC00
7FF800
3FF000
1FC000
ENDCHAR
STARTCHAR 0231
ENCODING 561
SWIDTH 510 0
DWIDTH 17 0
BBX 17 30 3 0
BITMAP
07FE00
07FC00
060000
00E000
01E000
01C000
000000
01E000
03F000
07FC00
0FFE00
0FFE00
1FFF00
3FFF00
3FFF00
7F3F80
7E1F80
FE1F80
FC3F80
FC3F80
FE7F00
FFFF00
FFFF00
FFFE00
FFFE00
FFFC00
FFFC00
7FF800
3FF000
1FC000
ENDCHAR
STARTCHAR 0232
ENCODING 562
SWIDTH 600 0
DWIDTH 20 0
BBX 20 27 5 0
BITMAP
03FF00
03FF00
03FF00
000000
0001F0
0C03E0
FC07C0
FC0FC0
FE0F80
FE1F00
7E3F00
7E7E00
7E7C00
3FFC00
3FF800
3FF000
3FF000
1FE000
1FC000
1F8000
0F8000
0F8000
0F8000
1F8000
1F8000
1F8000
1F0000
ENDCHAR
STARTCHAR 0233
ENCODING 563
SWIDTH 600 0
DWIDTH 20 0
BBX 20 27 5 0
BITMAP
03FF00
03FF00
03FF00
000000
0001F0
0C03E0
FC07C0
FC0FC0
FE0F80
FE1F00
7E3F00
7E7E00
7E7C00
3FFC00
3FF800
3FF000
3FF000
1FE000
1FC000
1F8000
0F8000
0F8000
0F8000
1F8000
1F8000
1F8000
1F0000
ENDCHAR
STARTCHAR 0241
ENCODING 577
SWIDTH 450 0
DWIDTH 15 0
BBX 15 23 4 0
BITMAP
1FFC
3FFE
3FFE
7FFE
7FFE
787E
207C
007C
007C
00FC
01F8
07F0
1FE0
3FC0
3F00
3E00
3E00
7C00
7C00
7C00
7C00
7800
F800
ENDCHAR
STARTCHAR 0242
ENCODING 578
SWIDTH 450 0
DWIDTH 15 0
BBX 15 23 4 0
BITMAP
1FFC
3FFE
3FFE
7FFE
7FFE
787E
207C
007C
007C
00FC
01F8
07F0
1FE0
3FC0
3F00
3E00
3E00
7C00
7C00
7C00
7C00
7800
F800
ENDCHAR
STARTCHAR 0243
ENCODING 579
SWIDTH 510 0
DWIDTH 17 0
BBX 16 23 2 0
BITMAP
07F0
1FFC
1FFE
1FFE
1FFF
1FBF
1F1F
1F1E
1F1E
1FFC
3FF8
3FFC
3FFE
3FFF
3FDF
FFDF
FFDF
FFBF
FFFE
7FFE
7FF8
7FF0
3E00
ENDCHAR
STARTCHAR 0244
ENCODING 580
SWIDTH 570 0
DWIDTH 19 0
BBX 20 22 3 1
BITMAP
070000
07C3F0
0F83F0
0F83E0
1F83E0
7FFFE0
7FFFE0
7FFFE0
7FFFE0
7E0FC0
7E0FC0
FE0FC0
FF1F80
FFFF80
FFFF00
FFFF00
FFFE00
FFFE00
7FFC00
7FF800
7FF000
1FC000
ENDCHAR
STARTCHAR 0253
ENCODING 595
SWIDTH 660 0
DWIDTH 22 0
BBX 20 23 4 0
BITMAP
01FE00
0FFFC0
1FFFC0
3FFFC0
7FFFE0
7FF7E0
FBE3E0
F3E3C0
E3E3C0
E3F7C0
F3FF00
FBFF80
F7FFC0
F7FFE0
67E3E0
07E3F0
07E7E0
07EFE0
07FFE0
07FFC0
07FF00
07FE00
07C000
ENDCHAR
STARTCHAR 0254
ENCODING 596
SWIDTH 480 0
DWIDTH 16 0
BBX 17 23 2 0
BITMAP
00E000
07F800
0FFE00
1FFF00
1FFF00
3FFF80
1FFF80
007F80
003F80
003F80
003F80
003F00
007F00
7FFF00
7FFE00
FFFE00
FFFC00
FFFC00
FFF800
FFF800
7FF000
3FC000
0C0000
ENDCHAR
STARTCHAR 0256
ENCODING 598
SWIDTH 480 0
DWIDTH 16 0
BBX 17 23 2 0
BITMAP
03E000
0FF800
0FFC00
0FFE00
1FFF00
1FFF00
1FDF80
1F8F80
1FE780
7FEF80
7FEF80
7FFF00
FF3F00
1F7E00
1FFC00
1FF800
1FF800
1FF000
1FE000
1FC000
1F0000
1C0000
100000
ENDCHAR
STARTCHAR 0257
ENCODING 599
SWIDTH 630 0
DWIDTH 21 0
BBX 20 23 4 0
BITMAP
00F800
0FFF00
1FFF80
3FFFC0
7FFFE0
7FFFE0
FBFFE0
F3F1F0
E3E1F0
E3E1F0
F7E1E0
FFE3E0
F7E7C0
F7EFC0
67FF80
07FF00
07FE00
07FE00
07FC00
07F800
07E000
078000
060000
ENDCHAR
STARTCHAR 0259
ENCODING 601
SWIDTH 480 0
DWIDTH 16 0
BBX 16 23 2 0
BITMAP
01F8
07FC
0FFE
1FFE
1FFF
0E7F
001F
000F
000F
3FFF
7FFF
7FFF
7FFF
7E3F
7C3E
7E7E
FFFE
FFFE
FFFC
7FFC
3FF8
1FE0
01C0
ENDCHAR
STARTCHAR 025B
ENCODING 603
SWIDTH 480 0
DWIDTH 16 0
BBX 16 23 3 0
BITMAP
03F8
0FFE
1FFE
3FFF
3FC2
7F00
7E00
7E00
7E00
7F10
3FF0
3FF0
3FF0
7F00
7C00
FC00
FC00
FC1C
FFFC
FFF8
7FF8
7FF0
1FC0
ENDCHAR
STARTCHAR 0260
ENCODING 608
SWIDTH 480 0
DWIDTH 16 0
BBX 20 29 2 0
BITMAP
000010
0003F0
0007F0
000FF0
001FE0
001F80
003F80
00FF80
01FF80
03FFC0
07FF80
07E700
0F8000
1F0000
1E0000
1E0000
3C3F80
3C7F80
7C7F00
7C7F00
FC7F00
FC7F00
FFFE00
FFFE00
FFFC00
FFF800
7FE000
7F8000
180000
ENDCHAR
STARTCHAR 0263
ENCODING 611
SWIDTH 600 0
DWIDTH 20 0
BBX 19 26 5 -4
BITMAP
FC0300
FC07E0
7C07E0
7C0FC0
7C1FC0
7C1F80
7C3F00
7C3E00
7C7E00
3EFC00
3EFC00
3FF800
1FF000
1FE000
1FE000
1F8000
3FC000
7FC000
7BC000
F3C000
F3C000
E3C000
F78000
FF0000
7E0000
3C0000
ENDCHAR
STARTCHAR 0268
ENCODING 616
SWIDTH 360 0
DWIDTH 12 0
BBX 15 22 1 0
BITMAP
01FE
01FC
01FC
03F8
03F8
03F8
07F0
07F0
07F0
3FF8
3FF8
3FF8
3FF8
1FE0
1FC0
1FC0
1FC0
3FC0
3F80
3F80
7F00
F000
ENDCHAR
STARTCHAR 0272
ENCODING 626
SWIDTH 540 0
DWIDTH 18 0
BBX 26 26 -3 -4
BITMAP
003F8F80
003F9FC0
003F9F80
007F1F80
007F3F80
00FF3F00
00FF3F00
00FF3F00
01FF3E00
01FF7E00
01FFFE00
01FFFE00
03FFFC00
03FFFC00
03F7FC00
07F7F800
07F3F800
07E3F800
07E3F800
0FC3F000
0FC3F000
1FC08000
7F800000
7F800000
FE000000
FC000000
ENDCHAR
STARTCHAR 0278
ENCODING 632
SWIDTH 660 0
DWIDTH 22 0
BBX 23 27 2 -2
BITMAP
000F40
001FC0
001FC0
00DF98
07FFFC
0FFFFC
0FFFFE
1FFFFE
1FFFFE
3FBEFE
3F7EFE
7E7EFC
7E7CFC
7EFCFC
7EFCFC
7EFDF8
FEF9F8
FFFFF0
FFFFF0
FFFFE0
FFFFC0
7FFF80
7BFF00
07EC00
07C000
07C000
010000
ENDCHAR
STARTCHAR 0289
ENCODING 649
SWIDTH 570 0
DWIDTH 19 0
BBX 20 22 3 1
BITMAP
070000
07C3F0
0F83F0
0F83E0
1F83E0
7FFFE0
7FFFE0
7FFFE0
7FFFE0
7E0FC0
7E0FC0
FE0FC0
FF1F80
FFFF80
FFFF00
FFFF00
FFFE00
FFFE00
7FFC00
7FF800
7FF000
1FC000
ENDCHAR
STARTCHAR 028B
ENCODING 651
SWIDTH 540 0
DWIDTH 18 0
BBX 18 22 3 1
BITMAP
001E00
3E7F00
3E3F00
3E3F80
3E1F80
7E0FC0
7E0FC0
7E0FC0
7E0FC0
7E0FC0
7E0FC0
FE1FC0
FE1F80
7E3F80
7FFF80
7FFF00
7FFF00
7FFE00
3FFE00
3FFC00
1FF800
1FE000
ENDCHAR
STARTCHAR 0292
ENCODING 658
SWIDTH 480 0
DWIDTH 16 0
BBX 18 23 1 0
BITMAP
01FF80
07FFC0
07FFC0
07FF80
000700
001E00
003C00
00F800
01FC00
07FF00
0FFF00
0FFF00
001F80
000F80
000F80
000F80
600F00
7E1F00
FFFF00
FFFE00
7FFC00
3FF800
1FE000
ENDCHAR
STARTCHAR 0294
ENCODING 660
SWIDTH 450 0
DWIDTH 15 0
BBX 15 23 4 0
BITMAP
1FFC
3FFE
3FFE
7FFE
7FFE
787E
207C
007C
007C
00FC
01F8
07F0
1FE0
3FC0
3F00
3E00
3E00
7C00
7C00
7C00
7C00
7800
F800
ENDCHAR
STARTCHAR 0295
ENCODING 661
SWIDTH 450 0
DWIDTH 15 0
BBX 15 23 4 0
BITMAP
0FFC
3FFC
7FFE
7FFE
FFFE
FC3C
FC08
F800
F800
F800
FC00
FE00
7F80
3F80
1F80
1F80
0F80
1F80
1F00
1F00
1F00
1F00
1E00
ENDCHAR
STARTCHAR 0296
ENCODING 662
SWIDTH 450 0
DWIDTH 15 0
BBX 15 23 2 0
BITMAP
01F0
01F0
01F0
03E0
03E0
03E0
03E0
07E0
07F0
07F8
03FC
00FE
007E
007E
007E
007E
607C
F8FC
FFFC
FFF8
FFF8
FFF0
7F80
ENDCHAR
STARTCHAR 02B9
ENCODING 697
SWIDTH 210 0
DWIDTH 7 0
BBX 8 12 3 12
BITMAP
07
0F
0F
1E
1E
3C
3C
38
78
70
F0
60
ENDCHAR
STARTCHAR 02BA
ENCODING 698
SWIDTH 390 0
DWIDTH 13 0
BBX 15 12 3 12
BITMAP
071E
0F3E
0F3C
1E38
1E78
3C70
3CF0
38E0
79E0
71C0
F1C0
6180
ENDCHAR
STARTCHAR 02BB
ENCODING 699
SWIDTH 210 0
DWIDTH 7 0
BBX 7 12 4 12
BITMAP
0C
1E
1E
3E
7C
7C
FC
F8
F8
F8
F8
F0
ENDCHAR
STARTCHAR 02BC
ENCODING 700
SWIDTH 210 0
DWIDTH 7 0
BBX 7 12 4 12
BITMAP
3E
3E
3E
3E
7E
7C
7C
F8
F8
F0
E0
40
ENDCHAR
STARTCHAR 02BD
ENCODING 701
SWIDTH 210 0
DWIDTH 7 0
BBX 6 12 5 12
BITMAP
7C
FC
F8
F8
F8
F8
F8
F8
F8
F0
70
40
ENDCHAR
STARTCHAR 02C6
ENCODING 710
SWIDTH 330 0
DWIDTH 11 0
BBX 10 5 6 24
BITMAP
0600
1F00
7F80
FFC0
F3C0
ENDCHAR
STARTCHAR 02C7
ENCODING 711
SWIDTH 330 0
DWIDTH 11 0
BBX 10 5 6 24
BITMAP
60C0
F3C0
7FC0
3F00
1E00
ENDCHAR
STARTCHAR 02C8
ENCODING 712
SWIDTH 120 0
DWIDTH 4 0
BBX 4 6 6 23
BITMAP
70
E0
E0
E0
C0
C0
ENDCHAR
STARTCHAR 02C9
ENCODING 713
SWIDTH 300 0
DWIDTH 10 0
BBX 10 3 6 24
BITMAP
FFC0
FFC0
FFC0
ENDCHAR
STARTCHAR 02CA
ENCODING 714
SWIDTH 210 0
DWIDTH 7 0
BBX 7 5 6 24
BITMAP
1E
3E
7C
78
E0
ENDCHAR
STARTCHAR 02CB
ENCODING 715
SWIDTH 210 0
DWIDTH 7 0
BBX 5 5 7 24
BITMAP
F0
F0
F8
78
38
ENDCHAR
STARTCHAR 02CC
ENCODING 716
SWIDTH 120 0
DWIDTH 4 0
BBX 3 6 0 -6
BITMAP
60
E0
E0
E0
E0
C0
ENDCHAR
STARTCHAR 02CD
ENCODING 717
SWIDTH 300 0
DWIDTH 10 0
BBX 10 3 0 -4
BITMAP
4000
FFC0
FFC0
ENDCHAR
STARTCHAR 02D0
ENCODING 720
SWIDTH 210 0
DWIDTH 7 0
BBX 9 17 1 0
BITMAP
0700
1F80
1F80
1F00
1E00
1E00
0C00
0000
0000
0000
0000
1800
3800
7800
7C00
FC00
FC00
ENDCHAR
STARTCHAR 02D1
ENCODING 721
SWIDTH 210 0
DWIDTH 7 0
BBX 6 7 4 10
BITMAP
38
FC
FC
F8
F0
F0
60
ENDCHAR
STARTCHAR 02D8
ENCODING 728
SWIDTH 330 0
DWIDTH 11 0
BBX 10 5 7 24
BITMAP
C1C0
C380
FF80
FF00
7C00
ENDCHAR
STARTCHAR 02D9
ENCODING 729
SWIDTH 120 0
DWIDTH 4 0
BBX 4 4 6 23
BITMAP
60
F0
E0
40
ENDCHAR
STARTCHAR 02DA
ENCODING 730
SWIDTH 300 0
DWIDTH 10 0
BBX 10 9 6 20
BITMAP
0E00
3F80
7BC0
E3C0
E3C0
E380
F780
7E00
3C00
ENDCHAR
STARTCHAR 02DB
ENCODING 731
SWIDTH 270 0
DWIDTH 9 0
BBX 9 8 0 -5
BITMAP
0800
3800
7000
7000
E000
FF80
FF00
0800
ENDCHAR
STARTCHAR 02DC
ENCODING 732
SWIDTH 300 0
DWIDTH 10 0
BBX 10 4 6 24
BITMAP
79C0
FFC0
FF80
EF00
ENDCHAR
STARTCHAR 02DD
ENCODING 733
SWIDTH 390 0
DWIDTH 13 0
BBX 13 5 6 24
BITMAP
1E78
3EF8
7DF0
7BC0
E380
ENDCHAR
STARTCHAR 0300
ENCODING 768
SWIDTH 0 0
DWIDTH 0 0
BBX 6 5 -8 24
BITMAP
F8
78
7C
3C
1C
ENDCHAR
STARTCHAR 0301
ENCODING 769
SWIDTH 0 0
DWIDTH 0 0
BBX 7 5 -4 24
BITMAP
1E
3E
7C
70
E0
ENDCHAR
STARTCHAR 0302
ENCODING 770
SWIDTH 0 0
DWIDTH 0 0
BBX 10 5 -9 24
BITMAP
0600
1F00
3F80
7FC0
F3C0
ENDCHAR
STARTCHAR 0303
ENCODING 771
SWIDTH 0 0
DWIDTH 0 0
BBX 11 4 -9 25
BITMAP
3DE0
7FC0
FFC0
EF80
ENDCHAR
STARTCHAR 0304
ENCODING 772
SWIDTH 0 0
DWIDTH 0 0
BBX 10 3 -9 24
BITMAP
7FC0
FFC0
FFC0
ENDCHAR
STARTCHAR 0305
ENCODING 773
SWIDTH 0 0
DWIDTH 0 0
BBX 12 5 -10 23
BITMAP
3FE0
7FF0
FFF0
FFF0
7E00
ENDCHAR
STARTCHAR 0306
ENCODING 774
SWIDTH 0 0
DWIDTH 0 0
BBX 10 5 -8 24
BITMAP
E1C0
E180
FF80
FF00
7E00
ENDCHAR
STARTCHAR 0307
ENCODING 775
SWIDTH 0 0
DWIDTH 0 0
BBX 4 4 -6 23
BITMAP
70
70
F0
60
ENDCHAR
STARTCHAR 0308
ENCODING 776
SWIDTH 0 0
DWIDTH 0 0
BBX 9 4 -8 23
BITMAP
E300
E780
E780
0200
ENDCHAR
STARTCHAR 030A
ENCODING 778
SWIDTH 0 0
DWIDTH 0 0
BBX 10 8 -9 22
BITMAP
1F80
3FC0
71C0
F1C0
F1C0
7F80
3F00
0800
ENDCHAR
STARTCHAR 030B
ENCODING 779
SWIDTH 0 0
DWIDTH 0 0
BBX 13 5 -8 24
BITMAP
1F78
3EF8
3DF0
79E0
F3C0
ENDCHAR
STARTCHAR 030C
ENCODING 780
SWIDTH 0 0
DWIDTH 0 0
BBX 10 5 -8 24
BITMAP
E180
F7C0
FF80
7F00
3C00
ENDCHAR
STARTCHAR 030D
ENCODING 781
SWIDTH 0 0
DWIDTH 0 0
BBX 4 6 -6 23
BITMAP
70
70
70
70
E0
E0
ENDCHAR
STARTCHAR 0311
ENCODING 785
SWIDTH 0 0
DWIDTH 0 0
BBX 10 5 -9 24
BITMAP
0E00
3F80
7F80
7FC0
E1C0
ENDCHAR
STARTCHAR 0323
ENCODING 803
SWIDTH 0 0
DWIDTH 0 0
BBX 4 3 -12 -5
BITMAP
70
F0
E0
ENDCHAR
STARTCHAR 0326
ENCODING 806
SWIDTH 0 0
DWIDTH 0 0
BBX 5 6 -13 -6
BITMAP
30
78
F8
F0
E0
40
ENDCHAR
STARTCHAR 0327
ENCODING 807
SWIDTH 0 0
DWIDTH 0 0
BBX 9 9 -15 -6
BITMAP
0600
0E00
1E00
1E00
0F80
0780
FF80
FF00
3400
ENDCHAR
STARTCHAR 0328
ENCODING 808
SWIDTH 0 0
DWIDTH 0 0
BBX 9 7 -14 -4
BITMAP
0800
1800
3000
7000
F180
FF80
FF80
ENDCHAR
STARTCHAR 0329
ENCODING 809
SWIDTH 0 0
DWIDTH 0 0
BBX 4 6 -12 -6
BITMAP
70
70
70
60
E0
E0
ENDCHAR
STARTCHAR 0331
ENCODING 817
SWIDTH 0 0
DWIDTH 0 0
BBX 10 2 -15 -3
BITMAP
FFC0
FFC0
ENDCHAR
STARTCHAR 0342
ENCODING 834
SWIDTH 0 0
DWIDTH 0 0
BBX 11 4 -9 25
BITMAP
3DE0
7FC0
FFC0
EF80
ENDCHAR
STARTCHAR 0344
ENCODING 836
SWIDTH 0 0
DWIDTH 0 0
BBX 10 7 -9 23
BITMAP
0380
0700
0600
2D80
73C0
F380
2000
ENDCHAR
STARTCHAR 0345
ENCODING 837
SWIDTH 0 0
DWIDTH 0 0
BBX 6 6 -11 -6
BITMAP
E0
E0
C0
FC
F8
38
ENDCHAR
STARTCHAR 0374
ENCODING 884
SWIDTH 210 0
DWIDTH 7 0
BBX 7 5 5 19
BITMAP
3E
3C
78
F0
E0
ENDCHAR
STARTCHAR 0375
ENCODING 885
SWIDTH 210 0
DWIDTH 7 0
BBX 6 6 0 -6
BITMAP
1C
1C
38
78
F0
E0
ENDCHAR
STARTCHAR 037A
ENCODING 890
SWIDTH 210 0
DWIDTH 7 0
BBX 6 6 0 -6
BITMAP
E0
E0
E0
FC
FC
30
ENDCHAR
STARTCHAR 037B
ENCODING 891
SWIDTH 480 0
DWIDTH 16 0
BBX 17 23 2 0
BITMAP
00E000
07F800
0FFE00
1FFF00
1FFF00
3FFF80
1FFF80
007F80
003F80
003F80
003F80
003F00
007F00
7FFF00
7FFE00
FFFE00
FFFC00
FFFC00
FFF800
FFF800
7FF000
3FC000
0C0000
ENDCHAR
STARTCHAR 037E
ENCODING 894
SWIDTH 210 0
DWIDTH 7 0
BBX 10 21 0 -6
BITMAP
0780
0FC0
1F80
1F80
0F80
0600
0000
0000
0000
0000
1E00
3E00
3E00
3E00
7E00
7C00
7C00
F800
F800
F000
E000
ENDCHAR
STARTCHAR 037F
ENCODING 895
SWIDTH 450 0
DWIDTH 15 0
BBX 17 22 2 1
BITMAP
003F80
007F80
007F80
00FF00
00FF00
00FF00
01FF00
01FF00
01FF00
01FE00
01FE00
01FE00
01FE00
01FC00
09FC00
F9FC00
FDF800
FDF000
FFF000
FFE000
7FC000
1F0000
ENDCHAR
STARTCHAR 0384
ENCODING 900
SWIDTH 150 0
DWIDTH 5 0
BBX 5 5 5 19
BITMAP
38
78
70
E0
C0
ENDCHAR
STARTCHAR 0385
ENCODING 901
SWIDTH 300 0
DWIDTH 10 0
BBX 9 7 6 23
BITMAP
0380
0700
0E00
5D00
F380
E780
4000
ENDCHAR
STARTCHAR 0386
ENCODING 902
SWIDTH 630 0
DWIDTH 21 0
BBX 20 25 0 -1
BITMAP
003800
003800
0073C0
00E7C0
00C7C0
000FC0
000FC0
001FC0
001FC0
003FC0
007FC0
007FC0
00FFC0
01EFE0
01CFE0
0387E0
078FE0
07FFE0
0FFFE0
1FEFE0
1F0FF0
3F0FF0
7E0FF0
7E0FF0
F00000
ENDCHAR
STARTCHAR 0387
ENCODING 903
SWIDTH 210 0
DWIDTH 7 0
BBX 7 6 3 10
BITMAP
3C
7E
FC
FC
7C
30
ENDCHAR
STARTCHAR 0388
ENCODING 904
SWIDTH 570 0
DWIDTH 19 0
BBX 16 24 4 0
BITMAP
1C00
3BFF
7FFF
7FFF
EFFE
0FFE
0FFE
0FFC
0FC0
0FC0
0FDC
0FF8
0FF8
0FF8
0FC0
0FFE
0FFF
0FFF
0FFF
0FFF
1FFF
1FFE
1FF0
0E00
ENDCHAR
STARTCHAR 0389
ENCODING 905
SWIDTH 600 0
DWIDTH 20 0
BBX 21 24 3 0
BITMAP
0E0000
1C1000
3BF8F8
3FF1F8
77F1F8
07F1F8
07F3F0
07E3F0
0FE3F0
0FE7E0
0FFFE0
1FFFE0
1FFFE0
1FFFC0
3FFFC0
3FFFC0
3F9FC0
3F9FC0
7F1F80
7F1F80
7F3F80
FF3F00
FE3F00
0C0000
ENDCHAR
STARTCHAR 038A
ENCODING 906
SWIDTH 360 0
DWIDTH 12 0
BBX 15 24 2 0
BITMAP
0700
0E00
1DFE
1DFC
39FC
03F8
03F8
03F8
07F0
07F0
07F0
0FF0
0FE0
0FE0
0FE0
1FE0
1FE0
1FC0
1FC0
3FC0
3F80
3F80
7F80
F800
ENDCHAR
STARTCHAR 038C
ENCODING 908
SWIDTH 540 0
DWIDTH 18 0
BBX 17 24 3 0
BITMAP
0E0000
1DE000
3BF800
3BFC00
77FE00
0FFF00
0FFF00
1FFF80
3FFF80
3FBF80
7F1F80
7E1F80
FE1F80
FE1F80
FE3F80
FFFF80
FFFF00
FFFF00
FFFE00
7FFE00
7FFC00
7FFC00
3FF000
0FE000
ENDCHAR
STARTCHAR 038E
ENCODING 910
SWIDTH 690 0
DWIDTH 23 0
BBX 23 24 4 0
BITMAP
1C0000
38003E
71807E
7FC07C
FFC0F8
0FC1F8
0FC1F0
0FE3E0
07E7E0
07EFC0
07EF80
07FF80
03FF00
03FE00
03FE00
01FC00
01F800
01F800
01F800
01F800
01F000
01F000
01F000
01E000
ENDCHAR
STARTCHAR 038F
ENCODING 911
SWIDTH 630 0
DWIDTH 21 0
BBX 22 24 2 0
BITMAP
070000
0E7FC0
1DFFE0
1FFFF0
3FFFF8
07FFF8
0FFFF8
0FE7FC
1FC1FC
1F80FC
1F00FC
1F00F8
3F00F8
3E00F8
1E00F0
1F01F0
1F03E0
1F03E0
0F87C0
7F8FF0
FF8FF0
FF8FF0
FF1FE0
FF1FE0
ENDCHAR
STARTCHAR 0390
ENCODING 912
SWIDTH 330 0
DWIDTH 11 0
BBX 16 30 1 0
BITMAP
0007
000E
001C
00BA
01C7
01CF
0080
0000
01FC
01FC
03F8
03F8
07F0
07F0
07F0
07F0
0FE0
0FE0
0FE0
1FE0
1FC0
1FC0
1FC0
3FC0
3FC0
3F80
7F80
7F00
7F00
F000
ENDCHAR
STARTCHAR 0391
ENCODING 913
SWIDTH 630 0
DWIDTH 21 0
BBX 20 23 0 0
BITMAP
0003C0
0007C0
0007C0
000FC0
000FC0
001FC0
001FC0
003FC0
007FC0
007FC0
00FFC0
01EFE0
01CFE0
0387E0
078FE0
07FFE0
0FFFE0
1FEFE0
1F0FF0
3F0FF0
7E0FF0
7E0FF0
F00000
ENDCHAR
STARTCHAR 0392
ENCODING 914
SWIDTH 510 0
DWIDTH 17 0
BBX 15 23 3 0
BITMAP
0FE0
3FF8
3FFC
3FFC
3FFE
3F7E
3E3E
3E3C
3E3C
3FF8
7FF0
7FF8
7FFC
7FFE
7E3E
7E3E
7E7E
7EFE
7FFC
FFFC
FFF0
FFE0
7C00
ENDCHAR
STARTCHAR 0393
ENCODING 915
SWIDTH 480 0
DWIDTH 16 0
BBX 19 23 1 0
BITMAP
01FFE0
0FFFE0
0FFFE0
0FFFE0
1FFFE0
1FC000
1F8000
1F8000
1F8000
1F0000
3F0000
3F0000
3F0000
3E0000
7E0000
7E0000
7E0000
7E0000
7C0000
7C0000
7C0000
FE0000
780000
ENDCHAR
STARTCHAR 0394
ENCODING 916
SWIDTH 570 0
DWIDTH 19 0
BBX 19 22 1 0
BITMAP
000FC0
001FC0
001FC0
003FC0
007FC0
00FFC0
00FFC0
01FFC0
03FFC0
03FFC0
07EFC0
0FEFC0
0FCFC0
1FCFC0
1F8FC0
3F0FE0
7F0FE0
7E7FE0
FFFFE0
FFFFE0
FFFFC0
FFFFC0
ENDCHAR
STARTCHAR 0395
ENCODING 917
SWIDTH 480 0
DWIDTH 16 0
BBX 13 23 4 0
BITMAP
1FF8
7FF8
7FF8
7FF0
7FF0
7FF0
7FE0
7E00
7E00
7EE0
7FC0
7FC0
7FC0
7C00
7FF0
7FF8
7FF8
7FF8
7FF8
FFF8
FFF0
FF80
F000
ENDCHAR
STARTCHAR 0396
ENCODING 918
SWIDTH 600 0
DWIDTH 20 0
BBX 17 23 4 0
BITMAP
01FE00
1FFF80
3FFF00
7FFE00
7FFC00
FFFC00
80F800
01F000
01F000
03E000
03E000
07C000
0FC000
0F8000
1F8000
1F0000
3E0000
3FFF80
7FFF00
7FFF00
FFFE00
0FFC00
01C000
ENDCHAR
STARTCHAR 0397
ENCODING 919
SWIDTH 540 0
DWIDTH 18 0
BBX 22 23 1 0
BITMAP
000800
03F87C
03F0FC
03F9F8
03F1F8
07F1F8
07F3F0
07F3F0
0FE3F0
0FFFF0
0FFFE0
1FFFE0
1FFFE0
1FFFE0
1FFFE0
3FAFC0
3F9FC0
3F9FC0
7F9F80
7F1F80
7F1F80
FF3F00
0A2000
ENDCHAR
STARTCHAR 0398
ENCODING 920
SWIDTH 510 0
DWIDTH 17 0
BBX 17 23 3 0
BITMAP
01F800
07FE00
0FFF00
1FFF00
1FFF80
3FFF80
3FFF80
7FFF80
7F3F80
FE1F80
FFFF80
FFFF80
FFFF80
FC3F00
FC3F00
FFFE00
FFFE00
FFFC00
7FFC00
7FF800
3FF800
1FF000
0FE000
ENDCHAR
STARTCHAR 0399
ENCODING 921
SWIDTH 330 0
DWIDTH 11 0
BBX 14 22 1 0
BITMAP
01FC
01FC
03F8
03F8
07F0
07F0
07F0
07F0
0FE0
0FE0
0FE0
1FE0
1FC0
1FC0
1FC0
3FC0
3FC0
3F80
7F80
7F00
7F00
F000
ENDCHAR
STARTCHAR 039A
ENCODING 922
SWIDTH 540 0
DWIDTH 18 0
BBX 21 23 1 0
BITMAP
004860
07F8E0
0FF9F8
0FF3F8
0FF7F0
0FF7E0
1FFFC0
1FFF80
1FFF00
1FFE00
3FFC00
3FFC00
3FF800
3FFC00
7FFE00
7FFE00
7FFF00
7FBF00
7F9F80
FF9F80
FF8F80
FF8E80
DF0C00
ENDCHAR
STARTCHAR 039B
ENCODING 923
SWIDTH 570 0
DWIDTH 19 0
BBX 19 21 1 1
BITMAP
00F000
00F800
01F800
01FC00
01FC00
03FE00
03FE00
07FE00
07FF00
0FFF00
0FFF80
0FBF80
1FBF80
1FBF80
3F3FC0
3F3FC0
7F3FC0
7F3FC0
FE3FE0
FE3FE0
FE01E0
ENDCHAR
STARTCHAR 039C
ENCODING 924
SWIDTH 630 0
DWIDTH 21 0
BBX 22 23 1 0
BITMAP
018000
01801C
01C03C
01C03C
03E07C
03E0FC
07F0FC
07F1FC
07F3FC
0FFFFC
0FFFF8
0FFFF8
1FFFF8
1FDFF8
1FDBF8
3F83F8
3F07F8
7F07F8
7E07F8
7E07F8
FC0FF8
FC0FF8
F80000
ENDCHAR
STARTCHAR 039D
ENCODING 925
SWIDTH 540 0
DWIDTH 18 0
BBX 22 22 1 0
BITMAP
03F8F8
03F9FC
03F9F8
07F1F8
07F3F8
0FF3F0
0FF3F0
0FF3F0
1FF3E0
1FF7E0
1FFFE0
1FFFE0
3FFFC0
3FFFC0
3F7FC0
7F7F80
7F3F80
7E3F80
7E3F80
FE3F00
FE3F00
E00800
ENDCHAR
STARTCHAR 039E
ENCODING 926
SWIDTH 480 0
DWIDTH 16 0
BBX 19 23 1 0
BITMAP
01E000
0FFFE0
0FFFE0
0FFFE0
0FFFC0
0FFFC0
000000
000000
000000
0FFF00
0FFE00
0FFE00
0FFE00
0F8000
000000
000000
000000
7FF800
7FFE00
FFFE00
FFFE00
FFFE00
01FC00
ENDCHAR
STARTCHAR 039F
ENCODING 927
SWIDTH 510 0
DWIDTH 17 0
BBX 17 23 3 0
BITMAP
01E000
03F000
07FC00
0FFE00
0FFE00
1FFF00
3FFF00
3FFF00
7F3F80
7E1F80
FE1F80
FC3F80
FC3F80
FE7F00
FFFF00
FFFF00
FFFE00
FFFE00
FFFC00
FFFC00
7FF800
3FF000
1FC000
ENDCHAR
STARTCHAR 03A0
ENCODING 928
SWIDTH 540 0
DWIDTH 18 0
BBX 20 23 2 0
BITMAP
0FE780
1FFFF0
1FFFF0
1FFFF0
1FFFF0
3FFFE0
3F07E0
3F07E0
3F07E0
3E07C0
3E0FC0
7E0FC0
7E0FC0
7E0FC0
7E0F80
7E1F80
7E1F80
FC1F80
FC1F00
FC1F00
FC3F00
FC3F00
F81F00
ENDCHAR
STARTCHAR 03A1
ENCODING 929
SWIDTH 480 0
DWIDTH 16 0
BBX 18 23 1 0
BITMAP
007800
07FF00
07FF80
07FFC0
07FFC0
0FCFC0
0FC3C0
0FC3C0
0FC7C0
1FC7C0
1FFFC0
1FFF80
3FFF00
3FFC00
3FC000
7F8000
7F8000
7F8000
7F8000
FF8000
FF8000
FF0000
FF0000
ENDCHAR
STARTCHAR 03A3
ENCODING 931
SWIDTH 480 0
DWIDTH 16 0
BBX 19 23 1 0
BITMAP
07FC00
0FFFE0
0FFFE0
0FFFE0
0FFFC0
1FFC00
0FE000
0FF000
03F800
01FC00
00FE00
007E00
00FC00
01F800
03F000
0FE000
1F8000
7F8000
7FFF00
FFFE00
FFFE00
FFFE00
37FC00
ENDCHAR
STARTCHAR 03A4
ENCODING 932
SWIDTH 570 0
DWIDTH 19 0
BBX 19 23 4 0
BITMAP
000100
7FFFC0
7FFFC0
7FFFE0
7FFFE0
FFFFC0
FFFFC0
F9F800
81F000
03E000
03E000
03E000
03E000
07C000
07C000
07C000
07C000
0F8000
0F8000
0F8000
0F8000
0F8000
0F0000
ENDCHAR
STARTCHAR 03A5
ENCODING 933
SWIDTH 600 0
DWIDTH 20 0
BBX 20 23 5 0
BITMAP
0001F0
0C03E0
FC07C0
FC0FC0
FE0F80
FE1F00
7E3F00
7E7E00
7E7C00
3FFC00
3FF800
3FF000
3FF000
1FE000
1FC000
1F8000
0F8000
0F8000
0F8000
1F8000
1F8000
1F8000
1F0000
ENDCHAR
STARTCHAR 03A6
ENCODING 934
SWIDTH 660 0
DWIDTH 22 0
BBX 23 27 2 -2
BITMAP
000F40
001FC0
001FC0
00DF98
07FFFC
0FFFFC
0FFFFE
1FFFFE
1FFFFE
3FBEFE
3F7EFE
7E7EFC
7E7CFC
7EFCFC
7EFCFC
7EFDF8
FEF9F8
FFFFF0
FFFFF0
FFFFE0
FFFFC0
7FFF80
7BFF00
07EC00
07C000
07C000
010000
ENDCHAR
STARTCHAR 03A7
ENCODING 935
SWIDTH 570 0
DWIDTH 19 0
BBX 21 22 2 1
BITMAP
0000E0
0F80F8
1F81F8
1FC3F0
1FC7E0
1FC7E0
1FCFC0
1FEFC0
0FFF80
07FF00
07FF00
03FE00
03FC00
03FC00
07FC00
0FFE00
1FFE00
1F7E00
3F3E00
7F3E00
7E1E00
FE0000
ENDCHAR
STARTCHAR 03A8
ENCODING 936
SWIDTH 720 0
DWIDTH 24 0
BBX 24 23 4 0
BITMAP
000002
7C3E1F
7C3E3F
7C3E3F
7C7E3E
F87C7E
F87C7E
F87C7C
F8FC7C
F8FCFC
F8F8F8
FCFBF8
FFFFF0
FFFFF0
7FFFE0
7FFFC0
3FFF80
07FC00
03F000
03E000
03E000
07E000
07E000
ENDCHAR
STARTCHAR 03A9
ENCODING 937
SWIDTH 600 0
DWIDTH 20 0
BBX 22 23 1 0
BITMAP
007FC0
01FFE0
03FFF0
07FFF8
07FFF8
0FFFF8
0FE7FC
1FC1FC
1F80FC
1F00F8
1F00F8
3F00F8
3E00F8
1E00F0
1F01F0
1F03E0
1F03E0
1F87C0
7F8FF0
FF8FF0
FF9FE0
FF1FE0
FF1FE0
ENDCHAR
STARTCHAR 03AA
ENCODING 938
SWIDTH 330 0
DWIDTH 11 0
BBX 16 27 1 0
BITMAP
00C7
01E7
01CF
0080
0000
01FC
01FC
03F8
03F8
07F0
07F0
07F0
07F0
0FE0
0FE0
0FE0
1FE0
1FC0
1FC0
1FC0
3FC0
3FC0
3F80
7F80
7F00
7F00
F000
ENDCHAR
STARTCHAR 03AB
ENCODING 939
SWIDTH 600 0
DWIDTH 20 0
BBX 20 27 5 0
BITMAP
01CE00
03CE00
03CE00
010000
0001F0
0C03E0
FC07C0
FC0FC0
FE0F80
FE1F00
7E3F00
7E7E00
7E7C00
3FFC00
3FF800
3FF000
3FF000
1FE000
1FC000
1F8000
0F8000
0F8000
0F8000
1F8000
1F8000
1F8000
1F0000
ENDCHAR
STARTCHAR 03AC
ENCODING 940
SWIDTH 630 0
DWIDTH 21 0
BBX 20 25 0 -1
BITMAP
003800
003800
0073C0
00E7C0
00C7C0
000FC0
000FC0
001FC0
001FC0
003FC0
007FC0
007FC0
00FFC0
01EFE0
01CFE0
0387E0
078FE0
07FFE0
0FFFE0
1FEFE0
1F0FF0
3F0FF0
7E0FF0
7E0FF0
F00000
ENDCHAR
STARTCHAR 03AD
ENCODING 941
SWIDTH 570 0
DWIDTH 19 0
BBX 16 24 4 0
BITMAP
1C00
3BFF
7FFF
7FFF
EFFE
0FFE
0FFE
0FFC
0FC0
0FC0
0FDC
0FF8
0FF8
0FF8
0FC0
0FFE
0FFF
0FFF
0FFF
0FFF
1FFF
1FFE
1FF0
0E00
ENDCHAR
STARTCHAR 03AE
ENCODING 942
SWIDTH 600 0
DWIDTH 20 0
BBX 21 24 3 0
BITMAP
0E0000
1C1000
3BF8F8
3FF1F8
77F1F8
07F1F8
07F3F0
07E3F0
0FE3F0
0FE7E0
0FFFE0
1FFFE0
1FFFE0
1FFFC0
3FFFC0
3FFFC0
3F9FC0
3F9FC0
7F1F80
7F1F80
7F3F80
FF3F00
FE3F00
0C0000
ENDCHAR
STARTCHAR 03AF
ENCODING 943
SWIDTH 360 0
DWIDTH 12 0
BBX 15 24 2 0
BITMAP
0700
0E00
1DFE
1DFC
39FC
03F8
03F8
03F8
07F0
07F0
07F0
0FF0
0FE0
0FE0
0FE0
1FE0
1FE0
1FC0
1FC0
3FC0
3F80
3F80
7F80
F800
ENDCHAR
STARTCHAR 03B0
ENCODING 944
SWIDTH 600 0
DWIDTH 20 0
BBX 20 30 5 0
BITMAP
000E00
001C00
003800
00B600
03CE00
03CE00
010000
0001F0
0C03E0
FC07C0
FC0FC0
FE0F80
FE1F00
7E3F00
7E7E00
7E7C00
3FFC00
3FF800
3FF000
3FF000
1FE000
1FC000
1F8000
0F8000
0F8000
0F8000
1F8000
1F8000
1F8000
1F0000
ENDCHAR
STARTCHAR 03B1
ENCODING 945
SWIDTH 630 0
DWIDTH 21 0
BBX 20 23 0 0
BITMAP
0003C0
0007C0
0007C0
000FC0
000FC0
001FC0
001FC0
003FC0
007FC0
007FC0
00FFC0
01EFE0
01CFE0
0387E0
078FE0
07FFE0
0FFFE0
1FEFE0
1F0FF0
3F0FF0
7E0FF0
7E0FF0
F00000
ENDCHAR
STARTCHAR 03B2
ENCODING 946
SWIDTH 510 0
DWIDTH 17 0
BBX 15 23 3 0
BITMAP
0FE0
3FF8
3FFC
3FFC
3FFE
3F7E
3E3E
3E3C
3E3C
3FF8
7FF0
7FF8
7FFC
7FFE
7E3E
7E3E
7E7E
7EFE
7FFC
FFFC
FFF0
FFE0
7C00
ENDCHAR
STARTCHAR 03B3
ENCODING 947
SWIDTH 480 0
DWIDTH 16 0
BBX 19 23 1 0
BITMAP
01FFE0
0FFFE0
0FFFE0
0FFFE0
1FFFE0
1FC000
1F8000
1F8000
1F8000
1F0000
3F0000
3F0000
3F0000
3E0000
7E0000
7E0000
7E0000
7E0000
7C0000
7C0000
7C0000
FE0000
780000
ENDCHAR
STARTCHAR 03B4
ENCODING 948
SWIDTH 570 0
DWIDTH 19 0
BBX 19 22 1 0
BITMAP
000FC0
001FC0
001FC0
003FC0
007FC0
00FFC0
00FFC0
01FFC0
03FFC0
03FFC0
07EFC0
0FEFC0
0FCFC0
1FCFC0
1F8FC0
3F0FE0
7F0FE0
7E7FE0
FFFFE0
FFFFE0
FFFFC0
FFFFC0
ENDCHAR
STARTCHAR 03B5
ENCODING 949
SWIDTH 480 0
DWIDTH 16 0
BBX 13 23 4 0
BITMAP
1FF8
7FF8
7FF8
7FF0
7FF0
7FF0
7FE0
7E00
7E00
7EE0
7FC0
7FC0
7FC0
7C00
7FF0
7FF8
7FF8
7FF8
7FF8
FFF8
FFF0
FF80
F000
ENDCHAR
STARTCHAR 03B6
ENCODING 950
SWIDTH 600 0
DWIDTH 20 0
BBX 17 23 4 0
BITMAP
01FE00
1FFF80
3FFF00
7FFE00
7FFC00
FFFC00
80F800
01F000
01F000
03E000
03E000
07C000
0FC000
0F8000
1F8000
1F0000
3E0000
3FFF80
7FFF00
7FFF00
FFFE00
0FFC00
01C000
ENDCHAR
STARTCHAR 03B7
ENCODING 951
SWIDTH 540 0
DWIDTH 18 0
BBX 22 23 1 0
BITMAP
000800
03F87C
03F0FC
03F9F8
03F1F8
07F1F8
07F3F0
07F3F0
0FE3F0
0FFFF0
0FFFE0
1FFFE0
1FFFE0
1FFFE0
1FFFE0
3FAFC0
3F9FC0
3F9FC0
7F9F80
7F1F80
7F1F80
FF3F00
0A2000
ENDCHAR
STARTCHAR 03B8
ENCODING 952
SWIDTH 510 0
DWIDTH 17 0
BBX 17 23 3 0
BITMAP
01F800
07FE00
0FFF00
1FFF00
1FFF80
3FFF80
3FFF80
7FFF80
7F3F80
FE1F80
FFFF80
FFFF80
FFFF80
FC3F00
FC3F00
FFFE00
FFFE00
FFFC00
7FFC00
7FF800
3FF800
1FF000
0FE000
ENDCHAR
STARTCHAR 03B9
ENCODING 953
SWIDTH 330 0
DWIDTH 11 0
BBX 14 22 1 0
BITMAP
01FC
01FC
03F8
03F8
07F0
07F0
07F0
07F0
0FE0
0FE0
0FE0
1FE0
1FC0
1FC0
1FC0
3FC0
3FC0
3F80
7F80
7F00
7F00
F000
ENDCHAR
STARTCHAR 03BA
ENCODING 954
SWIDTH 540 0
DWIDTH 18 0
BBX 21 23 1 0
BITMAP
004860
07F8E0
0FF9F8
0FF3F8
0FF7F0
0FF7E0
1FFFC0
1FFF80
1FFF00
1FFE00
3FFC00
3FFC00
3FF800
3FFC00
7FFE00
7FFE00
7FFF00
7FBF00
7F9F80
FF9F80
FF8F80
FF8E80
DF0C00
ENDCHAR
STARTCHAR 03BB
ENCODING 955
SWIDTH 570 0
DWIDTH 19 0
BBX 19 21 1 1
BITMAP
00F000
00F800
01F800
01FC00
01FC00
03FE00
03FE00
07FE00
07FF00
0FFF00
0FFF80
0FBF80
1FBF80
1FBF80
3F3FC0
3F3FC0
7F3FC0
7F3FC0
FE3FE0
FE3FE0
FE01E0
ENDCHAR
STARTCHAR 03BC
ENCODING 956
SWIDTH 630 0
DWIDTH 21 0
BBX 22 23 1 0
BITMAP
018000
01801C
01C03C
01C03C
03E07C
03E0FC
07F0FC
07F1FC
07F3FC
0FFFFC
0FFFF8
0FFFF8
1FFFF8
1FDFF8
1FDBF8
3F83F8
3F07F8
7F07F8
7E07F8
7E07F8
FC0FF8
FC0FF8
F80000
ENDCHAR
STARTCHAR 03BD
ENCODING 957
SWIDTH 540 0
DWIDTH 18 0
BBX 22 22 1 0
BITMAP
03F8F8
03F9FC
03F9F8
07F1F8
07F3F8
0FF3F0
0FF3F0
0FF3F0
1FF3E0
1FF7E0
1FFFE0
1FFFE0
3FFFC0
3FFFC0
3F7FC0
7F7F80
7F3F80
7E3F80
7E3F80
FE3F00
FE3F00
E00800
ENDCHAR
STARTCHAR 03BE
ENCODING 958
SWIDTH 480 0
DWIDTH 16 0
BBX 19 23 1 0
BITMAP
01E000
0FFFE0
0FFFE0
0FFFE0
0FFFC0
0FFFC0
000000
000000
000000
0FFF00
0FFE00
0FFE00
0FFE00
0F8000
000000
000000
000000
7FF800
7FFE00
FFFE00
FFFE00
FFFE00
01FC00
ENDCHAR
STARTCHAR 03BF
ENCODING 959
SWIDTH 510 0
DWIDTH 17 0
BBX 17 23 3 0
BITMAP
01E000
03F000
07FC00
0FFE00
0FFE00
1FFF00
3FFF00
3FFF00
7F3F80
7E1F80
FE1F80
FC3F80
FC3F80
FE7F00
FFFF00
FFFF00
FFFE00
FFFE00
FFFC00
FFFC00
7FF800
3FF000
1FC000
ENDCHAR
STARTCHAR 03C0
ENCODING 960
SWIDTH 540 0
DWIDTH 18 0
BBX 20 23 2 0
BITMAP
0FE780
1FFFF0
1FFFF0
1FFFF0
1FFFF0
3FFFE0
3F07E0
3F07E0
3F07E0
3E07C0
3E0FC0
7E0FC0
7E0FC0
7E0FC0
7E0F80
7E1F80
7E1F80
FC1F80
FC1F00
FC1F00
FC3F00
FC3F00
F81F00
ENDCHAR
STARTCHAR 03C1
ENCODING 961
SWIDTH 480 0
DWIDTH 16 0
BBX 18 23 1 0
BITMAP
007800
07FF00
07FF80
07FFC0
07FFC0
0FCFC0
0FC3C0
0FC3C0
0FC7C0
1FC7C0
1FFFC0
1FFF80
3FFF00
3FFC00
3FC000
7F8000
7F8000
7F8000
7F8000
FF8000
FF8000
FF0000
FF0000
ENDCHAR
STARTCHAR 03C2
ENCODING 962
SWIDTH 480 0
DWIDTH 16 0
BBX 17 27 3 -5
BITMAP
00FE00
07FF80
0FFF80
1FFF80
3FFF80
3FFF00
7F0100
7C0000
FC0000
F80000
F80000
F80000
F80000
FE0000
FF8000
FFF000
FFF800
7FFC00
3FF800
1FF800
01F800
01F800
0FF000
0FF000
1FE000
1FC000
180000
ENDCHAR
STARTCHAR 03C3
ENCODING 963
SWIDTH 480 0
DWIDTH 16 0
BBX 19 23 1 0
BITMAP
07FC00
0FFFE0
0FFFE0
0FFFE0
0FFFC0
1FFC00
0FE000
0FF000
03F800
01FC00
00FE00
007E00
00FC00
01F800
03F000
0FE000
1F8000
7F8000
7FFF00
FFFE00
FFFE00
FFFE00
37FC00
ENDCHAR
STARTCHAR 03C4
ENCODING 964
SWIDTH 570 0
DWIDTH 19 0
BBX 19 23 4 0
BITMAP
000100
7FFFC0
7FFFC0
7FFFE0
7FFFE0
FFFFC0
FFFFC0
F9F800
81F000
03E000
03E000
03E000
03E000
07C000
07C000
07C000
07C000
0F8000
0F8000
0F8000
0F8000
0F8000
0F0000
ENDCHAR
STARTCHAR 03C5
ENCODING 965
SWIDTH 600 0
DWIDTH 20 0
BBX 20 23 5 0
BITMAP
0001F0
0C03E0
FC07C0
FC0FC0
FE0F80
FE1F00
7E3F00
7E7E00
7E7C00
3FFC00
3FF800
3FF000
3FF000
1FE000
1FC000
1F8000
0F8000
0F8000
0F8000
1F8000
1F8000
1F8000
1F0000
ENDCHAR
STARTCHAR 03C6
ENCODING 966
SWIDTH 660 0
DWIDTH 22 0
BBX 23 27 2 -2
BITMAP
000F40
001FC0
001FC0
00DF98
07FFFC
0FFFFC
0FFFFE
1FFFFE
1FFFFE
3FBEFE
3F7EFE
7E7EFC
7E7CFC
7EFCFC
7EFCFC
7EFDF8
FEF9F8
FFFFF0
FFFFF0
FFFFE0
FFFFC0
7FFF80
7BFF00
07EC00
07C000
07C000
010000
ENDCHAR
STARTCHAR 03C7
ENCODING 967
SWIDTH 570 0
DWIDTH 19 0
BBX 21 22 2 1
BITMAP
0000E0
0F80F8
1F81F8
1FC3F0
1FC7E0
1FC7E0
1FCFC0
1FEFC0
0FFF80
07FF00
07FF00
03FE00
03FC00
03FC00
07FC00
0FFE00
1FFE00
1F7E00
3F3E00
7F3E00
7E1E00
FE0000
ENDCHAR
STARTCHAR 03C8
ENCODING 968
SWIDTH 720 0
DWIDTH 24 0
BBX 24 23 4 0
BITMAP
000002
7C3E1F
7C3E3F
7C3E3F
7C7E3E
F87C7E
F87C7E
F87C7C
F8FC7C
F8FCFC
F8F8F8
FCFBF8
FFFFF0
FFFFF0
7FFFE0
7FFFC0
3FFF80
07FC00
03F000
03E000
03E000
07E000
07E000
ENDCHAR
STARTCHAR 03C9
ENCODING 969
SWIDTH 600 0
DWIDTH 20 0
BBX 22 23 1 0
BITMAP
007FC0
01FFE0
03FFF0
07FFF8
07FFF8
0FFFF8
0FE7FC
1FC1FC
1F80FC
1F00F8
1F00F8
3F00F8
3E00F8
1E00F0
1F01F0
1F03E0
1F03E0
1F87C0
7F8FF0
FF8FF0
FF9FE0
FF1FE0
FF1FE0
ENDCHAR
STARTCHAR 03CA
ENCODING 970
SWIDTH 330 0
DWIDTH 11 0
BBX 16 27 1 0
BITMAP
00C7
01E7
01CF
0080
0000
01FC
01FC
03F8
03F8
07F0
07F0
07F0
07F0
0FE0
0FE0
0FE0
1FE0
1FC0
1FC0
1FC0
3FC0
3FC0
3F80
7F80
7F00
7F00
F000
ENDCHAR
STARTCHAR 03CB
ENCODING 971
SWIDTH 600 0
DWIDTH 20 0
BBX 20 27 5 0
BITMAP
01CE00
03CE00
03CE00
010000
0001F0
0C03E0
FC07C0
FC0FC0
FE0F80
FE1F00
7E3F00
7E7E00
7E7C00
3FFC00
3FF800
3FF000
3FF000
1FE000
1FC000
1F8000
0F8000
0F8000
0F8000
1F8000
1F8000
1F8000
1F0000
ENDCHAR
STARTCHAR 03CC
ENCODING 972
SWIDTH 540 0
DWIDTH 18 0
BBX 17 24 3 0
BITMAP
0E0000
1DE000
3BF800
3BFC00
77FE00
0FFF00
0FFF00
1FFF80
3FFF80
3FBF80
7F1F80
7E1F80
FE1F80
FE1F80
FE3F80
FFFF80
FFFF00
FFFF00
FFFE00
7FFE00
7FFC00
7FFC00
3FF000
0FE000
ENDCHAR
STARTCHAR 03CD
ENCODING 973
SWIDTH 690 0
DWIDTH 23 0
BBX 23 24 4 0
BITMAP
1C0000
38003E
71807E
7FC07C
FFC0F8
0FC1F8
0FC1F0
0FE3E0
07E7E0
07EFC0
07EF80
07FF80
03FF00
03FE00
03FE00
01FC00
01F800
01F800
01F800
01F800
01F000
01F000
01F000
01E000
ENDCHAR
STARTCHAR 03CE
ENCODING 974
SWIDTH 630 0
DWIDTH 21 0
BBX 22 24 2 0
BITMAP
070000
0E7FC0
1DFFE0
1FFFF0
3FFFF8
07FFF8
0FFFF8
0FE7FC
1FC1FC
1F80FC
1F00FC
1F00F8
3F00F8
3E00F8
1E00F0
1F01F0
1F03E0
1F03E0
0F87C0
7F8FF0
FF8FF0
FF8FF0
FF1FE0
FF1FE0
ENDCHAR
STARTCHAR 03D2
ENCODING 978
SWIDTH 630 0
DWIDTH 21 0
BBX 20 22 5 0
BITMAP
F803E0
FC07F0
FE0FF0
FE0FF0
FF1FF0
1F3FE0
1F7FC0
1F7800
1FF800
0FF000
0FE000
0FE000
1FC000
1FC000
1F8000
1F8000
1F8000
1F0000
1F0000
3F0000
3F0000
3F0000
ENDCHAR
STARTCHAR 03D3
ENCODING 979
SWIDTH 720 0
DWIDTH 24 0
BBX 24 24 4 0
BITMAP
1C0000
380000
77C03E
67E07F
E7E0FF
07F0FF
07F1FE
01F3FE
00F3FC
00F780
00F780
00FF00
00FE00
00FE00
00FC00
00FC00
00F800
00F800
01F800
01F800
01F800
01F000
01F000
01F000
ENDCHAR
STARTCHAR 03D4
ENCODING 980
SWIDTH 630 0
DWIDTH 21 0
BBX 20 27 5 0
BITMAP
01CE00
03CE00
03CE00
010000
000000
F803E0
FC07F0
FE0FF0
FE0FF0
FF1FF0
1F3FE0
1F7FC0
1F7800
1FF800
0FF000
0FE000
0FE000
1FC000
1FC000
1F8000
1F8000
1F8000
1F0000
1F0000
3F0000
3F0000
3F0000
ENDCHAR
STARTCHAR 03D5
ENCODING 981
SWIDTH 660 0
DWIDTH 22 0
BBX 23 27 2 -2
BITMAP
000F40
001FC0
001FC0
00DF98
07FFFC
0FFFFC
0FFFFE
1FFFFE
1FFFFE
3FBEFE
3F7EFE
7E7EFC
7E7CFC
7EFCFC
7EFCFC
7EFDF8
FEF9F8
FFFFF0
FFFFF0
FFFFE0
FFFFC0
7FFF80
7BFF00
07EC00
07C000
07C000
010000
ENDCHAR
STARTCHAR 03D8
ENCODING 984
SWIDTH 510 0
DWIDTH 17 0
BBX 18 27 2 -4
BITMAP
003F80
00FF80
03FFC0
07FFC0
07FFC0
0FFFC0
1FFFC0
1FFFC0
3F0FC0
3F0FC0
7E0FC0
7E0FC0
7E0FC0
7E1F80
7F3F80
FFFF00
FFFF00
7FFE00
7FFE00
7FFC00
7FF800
3FF000
1F8000
0F8000
0F8000
0F8000
0F8000
ENDCHAR
STARTCHAR 03D9
ENCODING 985
SWIDTH 510 0
DWIDTH 17 0
BBX 18 27 2 -4
BITMAP
003F80
00FF80
03FFC0
07FFC0
07FFC0
0FFFC0
1FFFC0
1FFFC0
3F0FC0
3F0FC0
7E0FC0
7E0FC0
7E0FC0
7E1F80
7F3F80
FFFF00
FFFF00
7FFE00
7FFE00
7FFC00
7FF800
3FF000
1F8000
0F8000
0F8000
0F8000
0F8000
ENDCHAR
STARTCHAR 03DA
ENCODING 986
SWIDTH 480 0
DWIDTH 16 0
BBX 19 28 2 -5
BITMAP
003FE0
01FFE0
07FFC0
07FFC0
0FFFC0
1FFF80
3FC000
3F0000
3E0000
7E0000
7C0000
7C0000
7C0000
7C0000
FE0000
FF0000
7FC000
7FFC00
7FFC00
3FFC00
1FFC00
07FC00
00FC00
07F800
07F800
0FF000
0FE000
0C0000
ENDCHAR
STARTCHAR 03DB
ENCODING 987
SWIDTH 480 0
DWIDTH 16 0
BBX 19 28 2 -5
BITMAP
003FE0
01FFE0
07FFC0
07FFC0
0FFFC0
1FFF80
3FC000
3F0000
3E0000
7E0000
7C0000
7C0000
7C0000
7C0000
FE0000
FF0000
7FC000
7FFC00
7FFC00
3FFC00
1FFC00
07FC00
00FC00
07F800
07F800
0FF000
0FE000
0C0000
ENDCHAR
STARTCHAR 03F2
ENCODING 1010
SWIDTH 480 0
DWIDTH 16 0
BBX 17 23 3 0
BITMAP
003800
01FF00
07FF80
0FFF80
1FFF80
3FFF00
3FFD00
7F8000
7F0000
7E0000
FE0000
FE0000
FE0000
FFFC00
FFFC00
FFFC00
FFFC00
FFFC00
FFFC00
FFF800
7FF000
3FC000
030000
ENDCHAR
STARTCHAR 03F3
ENCODING 1011
SWIDTH 450 0
DWIDTH 15 0
BBX 17 22 2 1
BITMAP
003F80
007F80
007F80
00FF00
00FF00
00FF00
01FF00
01FF00
01FF00
01FE00
01FE00
01FE00
01FE00
01FC00
09FC00
F9FC00
FDF800
FDF000
FFF000
FFE000
7FC000
1F0000
ENDCHAR
STARTCHAR 03F4
ENCODING 1012
SWIDTH 510 0
DWIDTH 17 0
BBX 17 23 3 0
BITMAP
03F800
07FC00
0FFE00
1FFF00
1FFF00
3FFF00
3FFF80
7FFF80
7E1F80
7C3F80
FFFF80
FFFF80
FFFF80
FC3F00
FE7F00
FFFF00
FFFE00
FFFE00
FFFC00
FFFC00
7FF800
3FF000
0FC000
ENDCHAR
STARTCHAR 03F7
ENCODING 1015
SWIDTH 480 0
DWIDTH 16 0
BBX 16 23 2 0
BITMAP
1F80
1F80
1F80
1FE0
1FFC
3FFE
3FFF
3FFF
3F1F
3F0F
3F0F
3E1F
7E1F
7E3F
7E7F
7FFF
7FFE
7FF8
FFC0
FE00
FE00
FC00
FC00
ENDCHAR
STARTCHAR 03F8
ENCODING 1016
SWIDTH 480 0
DWIDTH 16 0
BBX 16 23 2 0
BITMAP
1F80
1F80
1F80
1FE0
1FFC
3FFE
3FFF
3FFF
3F1F
3F0F
3F0F
3E1F
7E1F
7E3F
7E7F
7FFF
7FFE
7FF8
FFC0
FE00
FE00
FC00
FC00
ENDCHAR
STARTCHAR 03F9
ENCODING 1017
SWIDTH 480 0
DWIDTH 16 0
BBX 17 23 3 0
BITMAP
003800
01FF00
07FF80
0FFF80
1FFF80
3FFF00
3FFD00
7F8000
7F0000
7E0000
FE0000
FE0000
FE0000
FFFC00
FFFC00
FFFC00
FFFC00
FFFC00
FFFC00
FFF800
7FF000
3FC000
030000
ENDCHAR
STARTCHAR 03FA
ENCODING 1018
SWIDTH 600 0
DWIDTH 20 0
BBX 21 23 1 0
BITMAP
000010
070078
0780F8
07C3F8
0FF7F0
0FFFF0
0FFFF0
1FFFF0
1FFFF0
1FB3F0
1F83F0
3F83F0
3F83F0
3F83F0
3F03F0
7F03F0
7F03F0
7F03F0
7F03F0
FF03F0
FE03F0
FE03F0
F00320
ENDCHAR
STARTCHAR 03FB
ENCODING 1019
SWIDTH 600 0
DWIDTH 20 0
BBX 21 23 1 0
BITMAP
000010
070078
0780F8
07C3F8
0FF7F0
0FFFF0
0FFFF0
1FFFF0
1FFFF0
1FB3F0
1F83F0
3F83F0
3F83F0
3F83F0
3F03F0
7F03F0
7F03F0
7F03F0
7F03F0
FF03F0
FE03F0
FE03F0
F00320
ENDCHAR
STARTCHAR 03FD
ENCODING 1021
SWIDTH 480 0
DWIDTH 16 0
BBX 17 23 2 0
BITMAP
00E000
07F800
0FFE00
1FFF00
1FFF00
3FFF80
1FFF80
007F80
003F80
003F80
003F80
003F00
007F00
7FFF00
7FFE00
FFFE00
FFFC00
FFFC00
FFF800
FFF800
7FF000
3FC000
0C0000
ENDCHAR
STARTCHAR 0400
ENCODING 1024
SWIDTH 480 0
DWIDTH 16 0
BBX 13 29 4 0
BITMAP
1E00
1F00
0F00
0F80
0780
0000
1FF8
7FF8
7FF8
7FF0
7FF0
7FF0
7FE0
7E00
7E00
7EE0
7FC0
7FC0
7FC0
7C00
7FF0
7FF8
7FF8
7FF8
7FF8
FFF8
FFF0
FF80
F000
ENDCHAR
STARTCHAR 0401
ENCODING 1025
SWIDTH 480 0
DWIDTH 16 0
BBX 13 28 4 0
BITMAP
0060
1CF0
3CE0
3CC0
1000
1FF8
7FF8
7FF8
7FF0
7FF0
7FF0
7FE0
7E00
7E00
7EE0
7FC0
7FC0
7FC0
7C00
7FF0
7FF8
7FF8
7FF8
7FF8
FFF8
FFF0
FF80
F000
ENDCHAR
STARTCHAR 0402
ENCODING 1026
SWIDTH 660 0
DWIDTH 22 0
BBX 19 27 5 -4
BITMAP
7FFFC0
FFFFC0
FFFFC0
FFFFC0
FFFF80
03E000
07E000
07E600
07FF80
07FFC0
07FFE0
07FFE0
0FFFE0
0FC7E0
0F87E0
0F87E0
0F87C0
1F87C0
1F07C0
1F07C0
1F07C0
1F0780
1F1F80
007F80
007F00
007F00
007C00
ENDCHAR
STARTCHAR 0403
ENCODING 1027
SWIDTH 480 0
DWIDTH 16 0
BBX 19 29 1 0
BITMAP
0003C0
000780
000F00
001E00
001C00
000000
01FFE0
0FFFE0
0FFFE0
0FFFE0
1FFFE0
1FC000
1F8000
1F8000
1F8000
1F0000
3F0000
3F0000
3F0000
3E0000
7E0000
7E0000
7E0000
7E0000
7C0000
7C0000
7C0000
FE0000
780000
ENDCHAR
STARTCHAR 0404
ENCODING 1028
SWIDTH 480 0
DWIDTH 16 0
BBX 18 23 2 0
BITMAP
001C00
01FF80
03FFC0
07FFC0
0FFFC0
1FFF80
1FFF80
3FFF80
3F0380
7E0000
7FFC00
7FFC00
7FF800
7FF800
FC0000
FE0000
FFFE00
7FFE00
7FFE00
7FFE00
3FFC00
0FF800
018000
ENDCHAR
STARTCHAR 0405
ENCODING 1029
SWIDTH 480 0
DWIDTH 16 0
BBX 20 23 1 0
BITMAP
003FE0
01FFF0
01FFE0
03FFC0
07FFC0
07FF80
0FFF00
0FFF00
0FDE00
0F8000
0FE000
0FF800
07FE00
01FF00
007F00
003F00
303F00
7FFF00
FFFE00
FFFE00
7FFC00
7FF000
1FC000
ENDCHAR
STARTCHAR 0406
ENCODING 1030
SWIDTH 330 0
DWIDTH 11 0
BBX 14 22 1 0
BITMAP
01FC
01FC
03F8
03F8
07F0
07F0
07F0
07F0
0FE0
0FE0
0FE0
1FE0
1FC0
1FC0
1FC0
3FC0
3FC0
3F80
7F80
7F00
7F00
F000
ENDCHAR
STARTCHAR 0407
ENCODING 1031
SWIDTH 330 0
DWIDTH 11 0
BBX 16 27 1 0
BITMAP
00C7
01E7
01CF
0080
0000
01FC
01FC
03F8
03F8
07F0
07F0
07F0
07F0
0FE0
0FE0
0FE0
1FE0
1FC0
1FC0
1FC0
3FC0
3FC0
3F80
7F80
7F00
7F00
F000
ENDCHAR
STARTCHAR 0408
ENCODING 1032
SWIDTH 450 0
DWIDTH 15 0
BBX 17 22 2 1
BITMAP
003F80
007F80
007F80
00FF00
00FF00
00FF00
01FF00
01FF00
01FF00
01FE00
01FE00
01FE00
01FE00
01FC00
09FC00
F9FC00
FDF800
FDF000
FFF000
FFE000
7FC000
1F0000
ENDCHAR
STARTCHAR 0409
ENCODING 1033
SWIDTH 720 0
DWIDTH 24 0
BBX 24 23 1 0
BITMAP
000100
003FF0
007FF0
007FF0
00FFE0
00FFE0
01FFE0
01FFC0
03FFF8
03F7FE
07EFFF
07EFFF
0FCFBF
0FCF8F
1F8F0F
1F9F0F
3F1F0F
7F1F1F
7F3F3F
FE3FFE
FE3FFC
FE3FF8
003FF0
ENDCHAR
STARTCHAR 040A
ENCODING 1034
SWIDTH 720 0
DWIDTH 24 0
BBX 24 23 1 0
BITMAP
003100
03F1F0
03F3F0
03F3F0
07F3E0
07E3E0
07E7E0
07E7C0
0FE7F8
0FFFFE
0FFFFF
1FFFFF
1FFFBF
1FFF8F
3FFF0F
3F9F0F
3F1F0F
3F1F1F
7F3F3F
7F3FFE
7E3FFC
FE3FF8
043FF0
ENDCHAR
STARTCHAR 040B
ENCODING 1035
SWIDTH 660 0
DWIDTH 22 0
BBX 19 23 5 0
BITMAP
7FFFC0
FFFFC0
FFFFC0
FFFFC0
FFFF80
03E000
07E000
07E600
07FF80
07FFC0
07FFE0
07FFE0
0FFFE0
0FC7E0
0F87E0
0F87E0
0F87C0
1F87C0
1F0FC0
1F0FC0
1F0F80
1F0F80
1F0F80
ENDCHAR
STARTCHAR 040C
ENCODING 1036
SWIDTH 540 0
DWIDTH 18 0
BBX 21 29 1 0
BITMAP
000078
0000F8
0001F0
0001C0
000380
000000
004860
07F8E0
0FF9F8
0FF3F8
0FF7F0
0FF7E0
1FFFC0
1FFF80
1FFF00
1FFE00
3FFC00
3FFC00
3FF800
3FFC00
7FFE00
7FFE00
7FFF00
7FBF00
7F9F80
FF9F80
FF8F80
FF8E80
DF0C00
ENDCHAR
STARTCHAR 040D
ENCODING 1037
SWIDTH 540 0
DWIDTH 18 0
BBX 18 29 3 0
BITMAP
03C000
03E000
01E000
01E000
00F000
000000
000000
1F1FC0
3F1FC0
3F1FC0
3F1F80
3F1F80
3F3F80
7E3F80
7E7F80
7EFF80
7EFF80
7FFF80
7FFF80
7FFF00
7FBF00
FFBF00
FF3F00
FE3F00
FE3F00
FE3F00
FC7F00
FC7E00
600E00
ENDCHAR
STARTCHAR 040E
ENCODING 1038
SWIDTH 510 0
DWIDTH 17 0
BBX 20 29 1 0
BITMAP
00E1C0
00E1C0
00FF80
007F00
007E00
000000
07C7F0
0FC7F0
0FE7E0
0FE7E0
07EFC0
07EFC0
07EF80
07FF80
03FF00
03FF00
03FF00
03FE00
01FE00
01FE00
01FC00
01FC00
3FFC00
7FF800
7FF800
7FF000
7FE000
FF8000
F80000
ENDCHAR
STARTCHAR 040F
ENCODING 1039
SWIDTH 510 0
DWIDTH 17 0
BBX 20 26 1 -4
BITMAP
0F81F0
0FC1F0
0F83F0
0F83F0
1F83E0
1F83E0
1F87E0
1F07E0
3F07E0
3F07C0
3E07C0
3E07C0
3E0FC0
7E0FC0
7C0FC0
7C0FC0
7FFF80
FFFF80
FFFF80
FFFF80
FFFF00
03C000
07C000
07C000
07C000
07C000
ENDCHAR
STARTCHAR 0410
ENCODING 1040
SWIDTH 630 0
DWIDTH 21 0
BBX 20 23 0 0
BITMAP
0003C0
0007C0
0007C0
000FC0
000FC0
001FC0
001FC0
003FC0
007FC0
007FC0
00FFC0
01EFE0
01CFE0
0387E0
078FE0
07FFE0
0FFFE0
1FEFE0
1F0FF0
3F0FF0
7E0FF0
7E0FF0
F00000
ENDCHAR
STARTCHAR 0411
ENCODING 1041
SWIDTH 480 0
DWIDTH 16 0
BBX 18 23 2 0
BITMAP
1F0100
0FFFC0
0FFFC0
0FFFC0
1FFF80
1FFF80
1FFF80
1F8000
1F8000
3FFC00
3FFE00
3FFF00
3FFF00
3F3F00
7F1F00
7E1E00
7E3E00
7E3C00
7FFC00
7FF800
FFF000
FFE000
1E0000
ENDCHAR
STARTCHAR 0412
ENCODING 1042
SWIDTH 510 0
DWIDTH 17 0
BBX 15 23 3 0
BITMAP
0FE0
3FF8
3FFC
3FFC
3FFE
3F7E
3E3E
3E3C
3E3C
3FF8
7FF0
7FF8
7FFC
7FFE
7E3E
7E3E
7E7E
7EFE
7FFC
FFFC
FFF0
FFE0
7C00
ENDCHAR
STARTCHAR 0413
ENCODING 1043
SWIDTH 480 0
DWIDTH 16 0
BBX 19 23 1 0
BITMAP
01FFE0
0FFFE0
0FFFE0
0FFFE0
1FFFE0
1FC000
1F8000
1F8000
1F8000
1F0000
3F0000
3F0000
3F0000
3E0000
7E0000
7E0000
7E0000
7E0000
7C0000
7C0000
7C0000
FE0000
780000
ENDCHAR
STARTCHAR 0414
ENCODING 1044
SWIDTH 600 0
DWIDTH 20 0
BBX 19 26 1 -4
BITMAP
000F80
000F80
001F80
003F80
003F80
007F80
00FF80
00FF80
01FF80
01FF80
03EF80
07EF80
07CF80
0FCF80
0F8FC0
1F8FC0
1F0FC0
3F0FC0
FFFFE0
FFFFE0
FFFFE0
FFFFC0
F807C0
F80780
F80F80
F81F00
ENDCHAR
STARTCHAR 0415
ENCODING 1045
SWIDTH 480 0
DWIDTH 16 0
BBX 13 23 4 0
BITMAP
1FF8
7FF8
7FF8
7FF0
7FF0
7FF0
7FE0
7E00
7E00
7EE0
7FC0
7FC0
7FC0
7C00
7FF0
7FF8
7FF8
7FF8
7FF8
FFF8
FFF0
FF80
F000
ENDCHAR
STARTCHAR 0416
ENCODING 1046
SWIDTH 690 0
DWIDTH 23 0
BBX 26 23 1 0
BITMAP
000000C0
0FC78780
0FCF8F80
0FCF9F80
0FEFBF00
0FFFBF00
0FFFFE00
07FFFE00
07FFFC00
07FFFC00
03FFF800
03FFF800
07FFF800
07FFF800
0FFFFC00
1FFFFE00
3FBEFE00
3FBEFE00
7F3EFE00
7F3EFE00
FE3E7800
FC3E0000
00100000
ENDCHAR
STARTCHAR 0417
ENCODING 1047
SWIDTH 480 0
DWIDTH 16 0
BBX 16 23 3 0
BITMAP
0FF8
3FFC
3FFE
3FFE
7FFE
707F
003E
007E
007C
03FC
1FF8
1FF8
1FFC
00FC
00FC
00FC
01FC
FFFC
FFF8
FFF8
FFF0
FFE0
7F80
ENDCHAR
STARTCHAR 0418
ENCODING 1048
SWIDTH 540 0
DWIDTH 18 0
BBX 18 22 3 0
BITMAP
1F1FC0
3F1FC0
3F1FC0
3F1F80
3F1F80
3F3F80
7E3F80
7E7F80
7EFF80
7EFF80
7FFF80
7FFF80
7FFF00
7FBF00
FFBF00
FF3F00
FE3F00
FE3F00
FE3F00
FC7F00
FC7E00
600E00
ENDCHAR
STARTCHAR 0419
ENCODING 1049
SWIDTH 540 0
DWIDTH 18 0
BBX 18 29 3 0
BITMAP
038700
038700
03FE00
01FC00
01F800
000000
000000
1F1FC0
3F1FC0
3F1FC0
3F1F80
3F1F80
3F3F80
7E3F80
7E7F80
7EFF80
7EFF80
7FFF80
7FFF80
7FFF00
7FBF00
FFBF00
FF3F00
FE3F00
FE3F00
FE3F00
FC7F00
FC7E00
600E00
ENDCHAR
STARTCHAR 041A
ENCODING 1050
SWIDTH 540 0
DWIDTH 18 0
BBX 21 23 1 0
BITMAP
004860
07F8E0
0FF9F8
0FF3F8
0FF7F0
0FF7E0
1FFFC0
1FFF80
1FFF00
1FFE00
3FFC00
3FFC00
3FF800
3FFC00
7FFE00
7FFE00
7FFF00
7FBF00
7F9F80
FF9F80
FF8F80
FF8E80
DF0C00
ENDCHAR
STARTCHAR 041B
ENCODING 1051
SWIDTH 570 0
DWIDTH 19 0
BBX 19 21 1 1
BITMAP
00F000
00F800
01F800
01FC00
01FC00
03FE00
03FE00
07FE00
07FF00
0FFF00
0FFF80
0FBF80
1FBF80
1FBF80
3F3FC0
3F3FC0
7F3FC0
7F3FC0
FE3FE0
FE3FE0
FE01E0
ENDCHAR
STARTCHAR 041C
ENCODING 1052
SWIDTH 630 0
DWIDTH 21 0
BBX 22 23 1 0
BITMAP
018000
01801C
01C03C
01C03C
03E07C
03E0FC
07F0FC
07F1FC
07F3FC
0FFFFC
0FFFF8
0FFFF8
1FFFF8
1FDFF8
1FDBF8
3F83F8
3F07F8
7F07F8
7E07F8
7E07F8
FC0FF8
FC0FF8
F80000
ENDCHAR
STARTCHAR 041D
ENCODING 1053
SWIDTH 540 0
DWIDTH 18 0
BBX 22 23 1 0
BITMAP
000800
03F87C
03F0FC
03F9F8
03F1F8
07F1F8
07F3F0
07F3F0
0FE3F0
0FFFF0
0FFFE0
1FFFE0
1FFFE0
1FFFE0
1FFFE0
3FAFC0
3F9FC0
3F9FC0
7F9F80
7F1F80
7F1F80
FF3F00
0A2000
ENDCHAR
STARTCHAR 041E
ENCODING 1054
SWIDTH 510 0
DWIDTH 17 0
BBX 17 23 3 0
BITMAP
01E000
03F000
07FC00
0FFE00
0FFE00
1FFF00
3FFF00
3FFF00
7F3F80
7E1F80
FE1F80
FC3F80
FC3F80
FE7F00
FFFF00
FFFF00
FFFE00
FFFE00
FFFC00
FFFC00
7FF800
3FF000
1FC000
ENDCHAR
STARTCHAR 041F
ENCODING 1055
SWIDTH 540 0
DWIDTH 18 0
BBX 20 23 2 0
BITMAP
0FE780
1FFFF0
1FFFF0
1FFFF0
1FFFF0
3FFFE0
3F07E0
3F07E0
3F07E0
3E07C0
3E0FC0
7E0FC0
7E0FC0
7E0FC0
7E0F80
7E1F80
7E1F80
FC1F80
FC1F00
FC1F00
FC3F00
FC3F00
F81F00
ENDCHAR
STARTCHAR 0420
ENCODING 1056
SWIDTH 480 0
DWIDTH 16 0
BBX 18 23 1 0
BITMAP
007800
07FF00
07FF80
07FFC0
07FFC0
0FCFC0
0FC3C0
0FC3C0
0FC7C0
1FC7C0
1FFFC0
1FFF80
3FFF00
3FFC00
3FC000
7F8000
7F8000
7F8000
7F8000
FF8000
FF8000
FF0000
FF0000
ENDCHAR
STARTCHAR 0421
ENCODING 1057
SWIDTH 480 0
DWIDTH 16 0
BBX 17 23 3 0
BITMAP
003800
01FF00
07FF80
0FFF80
1FFF80
3FFF00
3FFD00
7F8000
7F0000
7E0000
FE0000
FE0000
FE0000
FFFC00
FFFC00
FFFC00
FFFC00
FFFC00
FFFC00
FFF800
7FF000
3FC000
030000
ENDCHAR
STARTCHAR 0422
ENCODING 1058
SWIDTH 570 0
DWIDTH 19 0
BBX 19 23 4 0
BITMAP
000100
7FFFC0
7FFFC0
7FFFE0
7FFFE0
FFFFC0
FFFFC0
F9F800
81F000
03E000
03E000
03E000
03E000
07C000
07C000
07C000
07C000
0F8000
0F8000
0F8000
0F8000
0F8000
0F0000
ENDCHAR
STARTCHAR 0423
ENCODING 1059
SWIDTH 510 0
DWIDTH 17 0
BBX 20 23 1 0
BITMAP
07C7F0
0FC7F0
0FE7E0
0FE7E0
07EFC0
07EFC0
07EF80
07FF80
03FF00
03FF00
03FF00
03FE00
01FE00
01FE00
01FC00
01FC00
3FFC00
7FF800
7FF800
7FF000
7FE000
FF8000
F80000
ENDCHAR
STARTCHAR 0424
ENCODING 1060
SWIDTH 660 0
DWIDTH 22 0
BBX 23 27 2 -2
BITMAP
000F40
001FC0
001FC0
00DF98
07FFFC
0FFFFC
0FFFFE
1FFFFE
1FFFFE
3FBEFE
3F7EFE
7E7EFC
7E7CFC
7EFCFC
7EFCFC
7EFDF8
FEF9F8
FFFFF0
FFFFF0
FFFFE0
FFFFC0
7FFF80
7BFF00
07EC00
07C000
07C000
010000
ENDCHAR
STARTCHAR 0425
ENCODING 1061
SWIDTH 570 0
DWIDTH 19 0
BBX 21 22 2 1
BITMAP
0000E0
0F80F8
1F81F8
1FC3F0
1FC7E0
1FC7E0
1FCFC0
1FEFC0
0FFF80
07FF00
07FF00
03FE00
03FC00
03FC00
07FC00
0FFE00
1FFE00
1F7E00
3F3E00
7F3E00
7E1E00
FE0000
ENDCHAR
STARTCHAR 0426
ENCODING 1062
SWIDTH 510 0
DWIDTH 17 0
BBX 21 26 1 -4
BITMAP
07C0F8
0FC1F0
0FC1F0
0FC3F0
0F83F0
0F83F0
1F83E0
1F87E0
1F07E0
1F07E0
3F07E0
3F07C0
3E07C0
3E07C0
7E0FC0
7E0FC0
7FFF80
FFFF80
FFFF80
FFFF80
FFFF80
000F00
001F00
001F00
001E00
003E00
ENDCHAR
STARTCHAR 0427
ENCODING 1063
SWIDTH 510 0
DWIDTH 17 0
BBX 16 22 4 0
BITMAP
7E3F
7C3F
7C3E
7C3E
FC3E
FC3E
FC3E
FC7E
FC7E
FC7C
FFFC
FFFC
FFFC
7FFC
3FFC
00F8
00F8
00F8
00F8
01F8
01F8
0080
ENDCHAR
STARTCHAR 0428
ENCODING 1064
SWIDTH 720 0
DWIDTH 24 0
BBX 25 23 3 0
BITMAP
18000000
3F0F8F80
3E1F8F80
3E1F1F80
7E1F1F80
7E1F1F00
7E1F1F00
7E3F1F00
7C3E3F00
7C3E3E00
7C3E3E00
7C7E3E00
7C7E7E00
FC7C7E00
FC7C7C00
FC7C7C00
FFFFFC00
FFFFFC00
FFFFFC00
FFFFF800
FFFFF800
FFFFF800
FFFE0000
ENDCHAR
STARTCHAR 0429
ENCODING 1065
SWIDTH 720 0
DWIDTH 24 0
BBX 26 27 2 -4
BITMAP
00000440
1F8387C0
1F8787C0
1F878F80
3F878F80
3F870F80
3F8F0F80
3F0F1F80
3F0F1F00
3F0F1F00
3F1F3F00
3F1F3F00
7F1E3E00
7F1E3E00
7F3E7E00
7F3E7E00
7FFFFE00
7FFFFC00
7FFFFC00
7FFFFC00
FFFFFC00
FFFFF800
FFFFF800
0000F800
0001F000
0001F000
0001F000
ENDCHAR
STARTCHAR 042A
ENCODING 1066
SWIDTH 630 0
DWIDTH 21 0
BBX 17 22 5 0
BITMAP
1F8000
FF8000
FF8000
FF8000
FF8000
FF8000
CF8000
0FE000
0FFE00
0FFF00
0FFF80
1FFF80
1F9F80
1F0F80
1F0F80
1F0780
3F0F80
3F0F80
3F7F00
3FFF00
3FFE00
7FF000
ENDCHAR
STARTCHAR 042B
ENCODING 1067
SWIDTH 660 0
DWIDTH 22 0
BBX 24 22 2 1
BITMAP
0F8000
1F801F
1F801F
1F801F
1F801F
3F001F
3F003E
3F803E
3FF83E
3FFC3E
3FFE3E
3FFE7C
7E3E7C
7E1E7C
7E1F7C
7E1E7C
7C3EF8
7C7EF8
FFFCF8
FFFCF8
FFF0F0
FFF0F0
ENDCHAR
STARTCHAR 042C
ENCODING 1068
SWIDTH 480 0
DWIDTH 16 0
BBX 15 23 2 0
BITMAP
1F80
1F80
1F80
1F80
1F00
3F00
3F00
3F80
3FF8
3FFC
3FFE
3FFE
7E3E
7E1E
7E1E
7E1E
7C3E
7C3E
FC7E
FFFC
FFFC
FFF0
FFE0
ENDCHAR
STARTCHAR 042D
ENCODING 1069
SWIDTH 480 0
DWIDTH 16 0
BBX 18 23 1 0
BITMAP
007800
03FE00
07FF00
0FFF80
0FFF80
0FFFC0
0FFFC0
1FFFC0
1C0FC0
000FC0
07FFC0
07FFC0
07FF80
07FF80
021F80
003F80
7FFF00
7FFE00
7FFE00
FFFC00
7FF800
3FC000
060000
ENDCHAR
STARTCHAR 042E
ENCODING 1070
SWIDTH 660 0
DWIDTH 22 0
BBX 24 23 1 0
BITMAP
01C0F8
03E1FC
03E1FE
03E3FE
03E3FE
07E7FF
07E7FF
0FCFFF
0FEFBF
0FFF1F
1FFF1F
1FFE1F
1FFE3E
3FFE3E
3FFE3E
3F9FFC
7F9FFC
7F9FF8
7F9FF8
FF8FF8
FF8FF0
3F07E0
000180
ENDCHAR
STARTCHAR 042F
ENCODING 1071
SWIDTH 510 0
DWIDTH 17 0
BBX 19 24 1 -1
BITMAP
003FE0
00FFE0
01FFE0
07FFE0
0F8FE0
0E1FE0
0E1FE0
1E1FE0
1E1FC0
1FBFC0
1FFFC0
0FFFC0
03FFC0
03FFC0
07FFC0
0FBFC0
0F7FC0
1F7F80
3E7F80
3E7F80
7C7F80
7C7F00
F87C00
780000
ENDCHAR
STARTCHAR 0430
ENCODING 1072
SWIDTH 630 0
DWIDTH 21 0
BBX 20 23 0 0
BITMAP
0003C0
0007C0
0007C0
000FC0
000FC0
001FC0
001FC0
003FC0
007FC0
007FC0
00FFC0
01EFE0
01CFE0
0387E0
078FE0
07FFE0
0FFFE0
1FEFE0
1F0FF0
3F0FF0
7E0FF0
7E0FF0
F00000
ENDCHAR
STARTCHAR 0431
ENCODING 1073
SWIDTH 480 0
DWIDTH 16 0
BBX 18 23 2 0
BITMAP
1F0100
0FFFC0
0FFFC0
0FFFC0
1FFF80
1FFF80
1FFF80
1F8000
1F8000
3FFC00
3FFE00
3FFF00
3FFF00
3F3F00
7F1F00
7E1E00
7E3E00
7E3C00
7FFC00
7FF800
FFF000
FFE000
1E0000
ENDCHAR
STARTCHAR 0432
ENCODING 1074
SWIDTH 510 0
DWIDTH 17 0
BBX 15 23 3 0
BITMAP
0FE0
3FF8
3FFC
3FFC
3FFE
3F7E
3E3E
3E3C
3E3C
3FF8
7FF0
7FF8
7FFC
7FFE
7E3E
7E3E
7E7E
7EFE
7FFC
FFFC
FFF0
FFE0
7C00
ENDCHAR
STARTCHAR 0433
ENCODING 1075
SWIDTH 480 0
DWIDTH 16 0
BBX 19 23 1 0
BITMAP
01FFE0
0FFFE0
0FFFE0
0FFFE0
1FFFE0
1FC000
1F8000
1F8000
1F8000
1F0000
3F0000
3F0000
3F0000
3E0000
7E0000
7E0000
7E0000
7E0000
7C0000
7C0000
7C0000
FE0000
780000
ENDCHAR
STARTCHAR 0434
ENCODING 1076
SWIDTH 600 0
DWIDTH 20 0
BBX 19 26 1 -4
BITMAP
000F80
000F80
001F80
003F80
003F80
007F80
00FF80
00FF80
01FF80
01FF80
03EF80
07EF80
07CF80
0FCF80
0F8FC0
1F8FC0
1F0FC0
3F0FC0
FFFFE0
FFFFE0
FFFFE0
FFFFC0
F807C0
F80780
F80F80
F81F00
ENDCHAR
STARTCHAR 0435
ENCODING 1077
SWIDTH 480 0
DWIDTH 16 0
BBX 13 23 4 0
BITMAP
1FF8
7FF8
7FF8
7FF0
7FF0
7FF0
7FE0
7E00
7E00
7EE0
7FC0
7FC0
7FC0
7C00
7FF0
7FF8
7FF8
7FF8
7FF8
FFF8
FFF0
FF80
F000
ENDCHAR
STARTCHAR 0436
ENCODING 1078
SWIDTH 690 0
DWIDTH 23 0
BBX 26 23 1 0
BITMAP
000000C0
0FC78780
0FCF8F80
0FCF9F80
0FEFBF00
0FFFBF00
0FFFFE00
07FFFE00
07FFFC00
07FFFC00
03FFF800
03FFF800
07FFF800
07FFF800
0FFFFC00
1FFFFE00
3FBEFE00
3FBEFE00
7F3EFE00
7F3EFE00
FE3E7800
FC3E0000
00100000
ENDCHAR
STARTCHAR 0437
ENCODING 1079
SWIDTH 480 0
DWIDTH 16 0
BBX 16 23 3 0
BITMAP
0FF8
3FFC
3FFE
3FFE
7FFE
707F
003E
007E
007C
03FC
1FF8
1FF8
1FFC
00FC
00FC
00FC
01FC
FFFC
FFF8
FFF8
FFF0
FFE0
7F80
ENDCHAR
STARTCHAR 0438
ENCODING 1080
SWIDTH 540 0
DWIDTH 18 0
BBX 18 22 3 0
BITMAP
1F1FC0
3F1FC0
3F1FC0
3F1F80
3F1F80
3F3F80
7E3F80
7E7F80
7EFF80
7EFF80
7FFF80
7FFF80
7FFF00
7FBF00
FFBF00
FF3F00
FE3F00
FE3F00
FE3F00
FC7F00
FC7E00
600E00
ENDCHAR
STARTCHAR 0439
ENCODING 1081
SWIDTH 540 0
DWIDTH 18 0
BBX 18 29 3 0
BITMAP
038700
038700
03FE00
01FC00
01F800
000000
000000
1F1FC0
3F1FC0
3F1FC0
3F1F80
3F1F80
3F3F80
7E3F80
7E7F80
7EFF80
7EFF80
7FFF80
7FFF80
7FFF00
7FBF00
FFBF00
FF3F00
FE3F00
FE3F00
FE3F00
FC7F00
FC7E00
600E00
ENDCHAR
STARTCHAR 043A
ENCODING 1082
SWIDTH 540 0
DWIDTH 18 0
BBX 21 23 1 0
BITMAP
004860
07F8E0
0FF9F8
0FF3F8
0FF7F0
0FF7E0
1FFFC0
1FFF80
1FFF00
1FFE00
3FFC00
3FFC00
3FF800
3FFC00
7FFE00
7FFE00
7FFF00
7FBF00
7F9F80
FF9F80
FF8F80
FF8E80
DF0C00
ENDCHAR
STARTCHAR 043B
ENCODING 1083
SWIDTH 570 0
DWIDTH 19 0
BBX 19 21 1 1
BITMAP
00F000
00F800
01F800
01FC00
01FC00
03FE00
03FE00
07FE00
07FF00
0FFF00
0FFF80
0FBF80
1FBF80
1FBF80
3F3FC0
3F3FC0
7F3FC0
7F3FC0
FE3FE0
FE3FE0
FE01E0
ENDCHAR
STARTCHAR 043C
ENCODING 1084
SWIDTH 630 0
DWIDTH 21 0
BBX 22 23 1 0
BITMAP
018000
01801C
01C03C
01C03C
03E07C
03E0FC
07F0FC
07F1FC
07F3FC
0FFFFC
0FFFF8
0FFFF8
1FFFF8
1FDFF8
1FDBF8
3F83F8
3F07F8
7F07F8
7E07F8
7E07F8
FC0FF8
FC0FF8
F80000
ENDCHAR
STARTCHAR 043D
ENCODING 1085
SWIDTH 540 0
DWIDTH 18 0
BBX 22 23 1 0
BITMAP
000800
03F87C
03F0FC
03F9F8
03F1F8
07F1F8
07F3F0
07F3F0
0FE3F0
0FFFF0
0FFFE0
1FFFE0
1FFFE0
1FFFE0
1FFFE0
3FAFC0
3F9FC0
3F9FC0
7F9F80
7F1F80
7F1F80
FF3F00
0A2000
ENDCHAR
STARTCHAR 043E
ENCODING 1086
SWIDTH 510 0
DWIDTH 17 0
BBX 17 23 3 0
BITMAP
01E000
03F000
07FC00
0FFE00
0FFE00
1FFF00
3FFF00
3FFF00
7F3F80
7E1F80
FE1F80
FC3F80
FC3F80
FE7F00
FFFF00
FFFF00
FFFE00
FFFE00
FFFC00
FFFC00
7FF800
3FF000
1FC000
ENDCHAR
STARTCHAR 043F
ENCODING 1087
SWIDTH 540 0
DWIDTH 18 0
BBX 20 23 2 0
BITMAP
0FE780
1FFFF0
1FFFF0
1FFFF0
1FFFF0
3FFFE0
3F07E0
3F07E0
3F07E0
3E07C0
3E0FC0
7E0FC0
7E0FC0
7E0FC0
7E0F80
7E1F80
7E1F80
FC1F80
FC1F00
FC1F00
FC3F00
FC3F00
F81F00
ENDCHAR
STARTCHAR 0440
ENCODING 1088
SWIDTH 480 0
DWIDTH 16 0
BBX 18 23 1 0
BITMAP
007800
07FF00
07FF80
07FFC0
07FFC0
0FCFC0
0FC3C0
0FC3C0
0FC7C0
1FC7C0
1FFFC0
1FFF80
3FFF00
3FFC00
3FC000
7F8000
7F8000
7F8000
7F8000
FF8000
FF8000
FF0000
FF0000
ENDCHAR
STARTCHAR 0441
ENCODING 1089
SWIDTH 480 0
DWIDTH 16 0
BBX 17 23 3 0
BITMAP
003800
01FF00
07FF80
0FFF80
1FFF80
3FFF00
3FFD00
7F8000
7F0000
7E0000
FE0000
FE0000
FE0000
FFFC00
FFFC00
FFFC00
FFFC00
FFFC00
FFFC00
FFF800
7FF000
3FC000
030000
ENDCHAR
STARTCHAR 0442
ENCODING 1090
SWIDTH 570 0
DWIDTH 19 0
BBX 19 23 4 0
BITMAP
000100
7FFFC0
7FFFC0
7FFFE0
7FFFE0
FFFFC0
FFFFC0
F9F800
81F000
03E000
03E000
03E000
03E000
07C000
07C000
07C000
07C000
0F8000
0F8000
0F8000
0F8000
0F8000
0F0000
ENDCHAR
STARTCHAR 0443
ENCODING 1091
SWIDTH 510 0
DWIDTH 17 0
BBX 20 23 1 0
BITMAP
07C7F0
0FC7F0
0FE7E0
0FE7E0
07EFC0
07EFC0
07EF80
07FF80
03FF00
03FF00
03FF00
03FE00
01FE00
01FE00
01FC00
01FC00
3FFC00
7FF800
7FF800
7FF000
7FE000
FF8000
F80000
ENDCHAR
STARTCHAR 0444
ENCODING 1092
SWIDTH 660 0
DWIDTH 22 0
BBX 23 27 2 -2
BITMAP
000F40
001FC0
001FC0
00DF98
07FFFC
0FFFFC
0FFFFE
1FFFFE
1FFFFE
3FBEFE
3F7EFE
7E7EFC
7E7CFC
7EFCFC
7EFCFC
7EFDF8
FEF9F8
FFFFF0
FFFFF0
FFFFE0
FFFFC0
7FFF80
7BFF00
07EC00
07C000
07C000
010000
ENDCHAR
STARTCHAR 0445
ENCODING 1093
SWIDTH 570 0
DWIDTH 19 0
BBX 21 22 2 1
BITMAP
0000E0
0F80F8
1F81F8
1FC3F0
1FC7E0
1FC7E0
1FCFC0
1FEFC0
0FFF80
07FF00
07FF00
03FE00
03FC00
03FC00
07FC00
0FFE00
1FFE00
1F7E00
3F3E00
7F3E00
7E1E00
FE0000
ENDCHAR
STARTCHAR 0446
ENCODING 1094
SWIDTH 510 0
DWIDTH 17 0
BBX 21 26 1 -4
BITMAP
07C0F8
0FC1F0
0FC1F0
0FC3F0
0F83F0
0F83F0
1F83E0
1F87E0
1F07E0
1F07E0
3F07E0
3F07C0
3E07C0
3E07C0
7E0FC0
7E0FC0
7FFF80
FFFF80
FFFF80
FFFF80
FFFF80
000F00
001F00
001F00
001E00
003E00
ENDCHAR
STARTCHAR 0447
ENCODING 1095
SWIDTH 510 0
DWIDTH 17 0
BBX 16 22 4 0
BITMAP
7E3F
7C3F
7C3E
7C3E
FC3E
FC3E
FC3E
FC7E
FC7E
FC7C
FFFC
FFFC
FFFC
7FFC
3FFC
00F8
00F8
00F8
00F8
01F8
01F8
0080
ENDCHAR
STARTCHAR 0448
ENCODING 1096
SWIDTH 720 0
DWIDTH 24 0
BBX 25 23 3 0
BITMAP
18000000
3F0F8F80
3E1F8F80
3E1F1F80
7E1F1F80
7E1F1F00
7E1F1F00
7E3F1F00
7C3E3F00
7C3E3E00
7C3E3E00
7C7E3E00
7C7E7E00
FC7C7E00
FC7C7C00
FC7C7C00
FFFFFC00
FFFFFC00
FFFFFC00
FFFFF800
FFFFF800
FFFFF800
FFFE0000
ENDCHAR
STARTCHAR 0449
ENCODING 1097
SWIDTH 720 0
DWIDTH 24 0
BBX 26 27 2 -4
BITMAP
00000440
1F8387C0
1F8787C0
1F878F80
3F878F80
3F870F80
3F8F0F80
3F0F1F80
3F0F1F00
3F0F1F00
3F1F3F00
3F1F3F00
7F1E3E00
7F1E3E00
7F3E7E00
7F3E7E00
7FFFFE00
7FFFFC00
7FFFFC00
7FFFFC00
FFFFFC00
FFFFF800
FFFFF800
0000F800
0001F000
0001F000
0001F000
ENDCHAR
STARTCHAR 044A
ENCODING 1098
SWIDTH 630 0
DWIDTH 21 0
BBX 17 22 5 0
BITMAP
1F8000
FF8000
FF8000
FF8000
FF8000
FF8000
CF8000
0FE000
0FFE00
0FFF00
0FFF80
1FFF80
1F9F80
1F0F80
1F0F80
1F0780
3F0F80
3F0F80
3F7F00
3FFF00
3FFE00
7FF000
ENDCHAR
STARTCHAR 044B
ENCODING 1099
SWIDTH 660 0
DWIDTH 22 0
BBX 24 22 2 1
BITMAP
0F8000
1F801F
1F801F
1F801F
1F801F
3F001F
3F003E
3F803E
3FF83E
3FFC3E
3FFE3E
3FFE7C
7E3E7C
7E1E7C
7E1F7C
7E1E7C
7C3EF8
7C7EF8
FFFCF8
FFFCF8
FFF0F0
FFF0F0
ENDCHAR
STARTCHAR 044C
ENCODING 1100
SWIDTH 480 0
DWIDTH 16 0
BBX 15 23 2 0
BITMAP
1F80
1F80
1F80
1F80
1F00
3F00
3F00
3F80
3FF8
3FFC
3FFE
3FFE
7E3E
7E1E
7E1E
7E1E
7C3E
7C3E
FC7E
FFFC
FFFC
FFF0
FFE0
ENDCHAR
STARTCHAR 044D
ENCODING 1101
SWIDTH 480 0
DWIDTH 16 0
BBX 18 23 1 0
BITMAP
007800
03FE00
07FF00
0FFF80
0FFF80
0FFFC0
0FFFC0
1FFFC0
1C0FC0
000FC0
07FFC0
07FFC0
07FF80
07FF80
021F80
003F80
7FFF00
7FFE00
7FFE00
FFFC00
7FF800
3FC000
060000
ENDCHAR
STARTCHAR 044E
ENCODING 1102
SWIDTH 660 0
DWIDTH 22 0
BBX 24 23 1 0
BITMAP
01C0F8
03E1FC
03E1FE
03E3FE
03E3FE
07E7FF
07E7FF
0FCFFF
0FEFBF
0FFF1F
1FFF1F
1FFE1F
1FFE3E
3FFE3E
3FFE3E
3F9FFC
7F9FFC
7F9FF8
7F9FF8
FF8FF8
FF8FF0
3F07E0
000180
ENDCHAR
STARTCHAR 044F
ENCODING 1103
SWIDTH 510 0
DWIDTH 17 0
BBX 19 24 1 -1
BITMAP
003FE0
00FFE0
01FFE0
07FFE0
0F8FE0
0E1FE0
0E1FE0
1E1FE0
1E1FC0
1FBFC0
1FFFC0
0FFFC0
03FFC0
03FFC0
07FFC0
0FBFC0
0F7FC0
1F7F80
3E7F80
3E7F80
7C7F80
7C7F00
F87C00
780000
ENDCHAR
STARTCHAR 0450
ENCODING 1104
SWIDTH 480 0
DWIDTH 16 0
BBX 13 29 4 0
BITMAP
1E00
1F00
0F00
0F80
0780
0000
1FF8
7FF8
7FF8
7FF0
7FF0
7FF0
7FE0
7E00
7E00
7EE0
7FC0
7FC0
7FC0
7C00
7FF0
7FF8
7FF8
7FF8
7FF8
FFF8
FFF0
FF80
F000
ENDCHAR
STARTCHAR 0451
ENCODING 1105
SWIDTH 480 0
DWIDTH 16 0
BBX 13 28 4 0
BITMAP
0060
1CF0
3CE0
3CC0
1000
1FF8
7FF8
7FF8
7FF0
7FF0
7FF0
7FE0
7E00
7E00
7EE0
7FC0
7FC0
7FC0
7C00
7FF0
7FF8
7FF8
7FF8
7FF8
FFF8
FFF0
FF80
F000
ENDCHAR
STARTCHAR 0452
ENCODING 1106
SWIDTH 660 0
DWIDTH 22 0
BBX 19 27 5 -4
BITMAP
7FFFC0
FFFFC0
FFFFC0
FFFFC0
FFFF80
03E000
07E000
07E600
07FF80
07FFC0
07FFE0
07FFE0
0FFFE0
0FC7E0
0F87E0
0F87E0
0F87C0
1F87C0
1F07C0
1F07C0
1F07C0
1F0780
1F1F80
007F80
007F00
007F00
007C00
ENDCHAR
STARTCHAR 0453
ENCODING 1107
SWIDTH 480 0
DWIDTH 16 0
BBX 19 29 1 0
BITMAP
0003C0
000780
000F00
001E00
001C00
000000
01FFE0
0FFFE0
0FFFE0
0FFFE0
1FFFE0
1FC000
1F8000
1F8000
1F8000
1F0000
3F0000
3F0000
3F0000
3E0000
7E0000
7E0000
7E0000
7E0000
7C0000
7C0000
7C0000
FE0000
780000
ENDCHAR
STARTCHAR 0454
ENCODING 1108
SWIDTH 480 0
DWIDTH 16 0
BBX 18 23 2 0
BITMAP
001C00
01FF80
03FFC0
07FFC0
0FFFC0
1FFF80
1FFF80
3FFF80
3F0380
7E0000
7FFC00
7FFC00
7FF800
7FF800
FC0000
FE0000
FFFE00
7FFE00
7FFE00
7FFE00
3FFC00
0FF800
018000
ENDCHAR
STARTCHAR 0455
ENCODING 1109
SWIDTH 480 0
DWIDTH 16 0
BBX 20 23 1 0
BITMAP
003FE0
01FFF0
01FFE0
03FFC0
07FFC0
07FF80
0FFF00
0FFF00
0FDE00
0F8000
0FE000
0FF800
07FE00
01FF00
007F00
003F00
303F00
7FFF00
FFFE00
FFFE00
7FFC00
7FF000
1FC000
ENDCHAR
STARTCHAR 0456
ENCODING 1110
SWIDTH 330 0
DWIDTH 11 0
BBX 14 22 1 0
BITMAP
01FC
01FC
03F8
03F8
07F0
07F0
07F0
07F0
0FE0
0FE0
0FE0
1FE0
1FC0
1FC0
1FC0
3FC0
3FC0
3F80
7F80
7F00
7F00
F000
ENDCHAR
STARTCHAR 0457
ENCODING 1111
SWIDTH 330 0
DWIDTH 11 0
BBX 16 27 1 0
BITMAP
00C7
01E7
01CF
0080
0000
01FC
01FC
03F8
03F8
07F0
07F0
07F0
07F0
0FE0
0FE0
0FE0
1FE0
1FC0
1FC0
1FC0
3FC0
3FC0
3F80
7F80
7F00
7F00
F000
ENDCHAR
STARTCHAR 0458
ENCODING 1112
SWIDTH 450 0
DWIDTH 15 0
BBX 17 22 2 1
BITMAP
003F80
007F80
007F80
00FF00
00FF00
00FF00
01FF00
01FF00
01FF00
01FE00
01FE00
01FE00
01FE00
01FC00
09FC00
F9FC00
FDF800
FDF000
FFF000
FFE000
7FC000
1F0000
ENDCHAR
STARTCHAR 0459
ENCODING 1113
SWIDTH 720 0
DWIDTH 24 0
BBX 24 23 1 0
BITMAP
000100
003FF0
007FF0
007FF0
00FFE0
00FFE0
01FFE0
01FFC0
03FFF8
03F7FE
07EFFF
07EFFF
0FCFBF
0FCF8F
1F8F0F
1F9F0F
3F1F0F
7F1F1F
7F3F3F
FE3FFE
FE3FFC
FE3FF8
003FF0
ENDCHAR
STARTCHAR 045A
ENCODING 1114
SWIDTH 720 0
DWIDTH 24 0
BBX 24 23 1 0
BITMAP
003100
03F1F0
03F3F0
03F3F0
07F3E0
07E3E0
07E7E0
07E7C0
0FE7F8
0FFFFE
0FFFFF
1FFFFF
1FFFBF
1FFF8F
3FFF0F
3F9F0F
3F1F0F
3F1F1F
7F3F3F
7F3FFE
7E3FFC
FE3FF8
043FF0
ENDCHAR
STARTCHAR 045B
ENCODING 1115
SWIDTH 660 0
DWIDTH 22 0
BBX 19 23 5 0
BITMAP
7FFFC0
FFFFC0
FFFFC0
FFFFC0
FFFF80
03E000
07E000
07E600
07FF80
07FFC0
07FFE0
07FFE0
0FFFE0
0FC7E0
0F87E0
0F87E0
0F87C0
1F87C0
1F0FC0
1F0FC0
1F0F80
1F0F80
1F0F80
ENDCHAR
STARTCHAR 045C
ENCODING 1116
SWIDTH 540 0
DWIDTH 18 0
BBX 21 29 1 0
BITMAP
000078
0000F8
0001F0
0001C0
000380
000000
004860
07F8E0
0FF9F8
0FF3F8
0FF7F0
0FF7E0
1FFFC0
1FFF80
1FFF00
1FFE00
3FFC00
3FFC00
3FF800
3FFC00
7FFE00
7FFE00
7FFF00
7FBF00
7F9F80
FF9F80
FF8F80
FF8E80
DF0C00
ENDCHAR
STARTCHAR 045D
ENCODING 1117
SWIDTH 540 0
DWIDTH 18 0
BBX 18 29 3 0
BITMAP
03C000
03E000
01E000
01E000
00F000
000000
000000
1F1FC0
3F1FC0
3F1FC0
3F1F80
3F1F80
3F3F80
7E3F80
7E7F80
7EFF80
7EFF80
7FFF80
7FFF80
7FFF00
7FBF00
FFBF00
FF3F00
FE3F00
FE3F00
FE3F00
FC7F00
FC7E00
600E00
ENDCHAR
STARTCHAR 045E
ENCODING 1118
SWIDTH 510 0
DWIDTH 17 0
BBX 20 29 1 0
BITMAP
00E1C0
00E1C0
00FF80
007F00
007E00
000000
07C7F0
0FC7F0
0FE7E0
0FE7E0
07EFC0
07EFC0
07EF80
07FF80
03FF00
03FF00
03FF00
03FE00
01FE00
01FE00
01FC00
01FC00
3FFC00
7FF800
7FF800
7FF000
7FE000
FF8000
F80000
ENDCHAR
STARTCHAR 045F
ENCODING 1119
SWIDTH 510 0
DWIDTH 17 0
BBX 20 26 1 -4
BITMAP
0F81F0
0FC1F0
0F83F0
0F83F0
1F83E0
1F83E0
1F87E0
1F07E0
3F07E0
3F07C0
3E07C0
3E07C0
3E0FC0
7E0FC0
7C0FC0
7C0FC0
7FFF80
FFFF80
FFFF80
FFFF80
FFFF00
03C000
07C000
07C000
07C000
07C000
ENDCHAR
STARTCHAR 0462
ENCODING 1122
SWIDTH 630 0
DWIDTH 21 0
BBX 18 23 4 0
BITMAP
03F000
03F000
7FFF80
7FFF80
7FFF80
FFFF00
07E000
07F000
07FF00
0FFF80
0FFF80
0FFFC0
0F8FC0
0F87C0
0F83C0
1F87C0
1F87C0
1F8FC0
1F9F80
1FFF80
1FFF00
3FFE00
3FF800
ENDCHAR
STARTCHAR 0463
ENCODING 1123
SWIDTH 630 0
DWIDTH 21 0
BBX 18 23 4 0
BITMAP
03F000
03F000
7FFF80
7FFF80
7FFF80
FFFF00
07E000
07F000
07FF00
0FFF80
0FFF80
0FFFC0
0F8FC0
0F87C0
0F83C0
1F87C0
1F87C0
1F8FC0
1F9F80
1FFF80
1FFF00
3FFE00
3FF800
ENDCHAR
STARTCHAR 0474
ENCODING 1140
SWIDTH 570 0
DWIDTH 19 0
BBX 18 22 5 0
BITMAP
F80FC0
FC1FC0
FC3FC0
FC3F80
FC7F80
FC7F80
FCF800
FCF800
FDF000
FDF000
7FE000
7FE000
7FC000
7FC000
7F8000
7F8000
7F0000
7F0000
7E0000
7E0000
7C0000
180000
ENDCHAR
STARTCHAR 0475
ENCODING 1141
SWIDTH 570 0
DWIDTH 19 0
BBX 18 22 5 0
BITMAP
F80FC0
FC1FC0
FC3FC0
FC3F80
FC7F80
FC7F80
FCF800
FCF800
FDF000
FDF000
7FE000
7FE000
7FC000
7FC000
7F8000
7F8000
7F0000
7F0000
7E0000
7E0000
7C0000
180000
ENDCHAR
STARTCHAR 0476
ENCODING 1142
SWIDTH 570 0
DWIDTH 19 0
BBX 18 29 5 0
BITMAP
3CF000
3EF000
1EF800
1E7800
0E3800
000000
000000
F80FC0
FC1FC0
FC3FC0
FC3F80
FC7F80
FC7F80
FCF800
FCF800
FDF000
FDF000
7FE000
7FE000
7FC000
7FC000
7F8000
7F8000
7F0000
7F0000
7E0000
7E0000
7C0000
180000
ENDCHAR
STARTCHAR 0477
ENCODING 1143
SWIDTH 570 0
DWIDTH 19 0
BBX 18 29 5 0
BITMAP
3CF000
3EF000
1EF800
1E7800
0E3800
000000
000000
F80FC0
FC1FC0
FC3FC0
FC3F80
FC7F80
FC7F80
FCF800
FCF800
FDF000
FDF000
7FE000
7FE000
7FC000
7FC000
7F8000
7F8000
7F0000
7F0000
7E0000
7E0000
7C0000
180000
ENDCHAR
STARTCHAR 0480
ENCODING 1152
SWIDTH 480 0
DWIDTH 16 0
BBX 19 27 2 -4
BITMAP
003FE0
01FFE0
07FFC0
07FFC0
0FFFC0
1FFF80
3FC000
3F8000
3F0000
7E0000
7C0000
7C0000
7C0000
7C0000
FC0000
FC0000
FC0000
FFFE00
FFFE00
7FFE00
7FFE00
3FFE00
0FFC00
00FC00
00FC00
00FC00
00FC00
ENDCHAR
STARTCHAR 0481
ENCODING 1153
SWIDTH 480 0
DWIDTH 16 0
BBX 19 27 2 -4
BITMAP
003FE0
01FFE0
07FFC0
07FFC0
0FFFC0
1FFF80
3FC000
3F8000
3F0000
7E0000
7C0000
7C0000
7C0000
7C0000
FC0000
FC0000
FC0000
FFFE00
FFFE00
7FFE00
7FFE00
3FFE00
0FFC00
00FC00
00FC00
00FC00
00FC00
ENDCHAR
STARTCHAR 048C
ENCODING 1164
SWIDTH 540 0
DWIDTH 18 0
BBX 15 23 4 0
BITMAP
1F80
1F80
7FF0
7FE0
7FE0
FFE0
3F00
3F80
3FF8
3FFC
7FFC
7FFE
7E7E
7C1E
7C1E
7C3E
7C3E
FC7E
FCFE
FFFC
FFF8
FFF0
FFE0
ENDCHAR
STARTCHAR 048D
ENCODING 1165
SWIDTH 540 0
DWIDTH 18 0
BBX 15 23 4 0
BITMAP
1F80
1F80
7FF0
7FE0
7FE0
FFE0
3F00
3F80
3FF8
3FFC
7FFC
7FFE
7E7E
7C1E
7C1E
7C3E
7C3E
FC7E
FCFE
FFFC
FFF8
FFF0
FFE0
ENDCHAR
STARTCHAR 0490
ENCODING 1168
SWIDTH 480 0
DWIDTH 16 0
BBX 21 29 1 0
BITMAP
0001F0
0001F8
0001F8
0001F8
0001F0
0001F0
01FFF0
0FFFF0
0FFFF0
0FFFF0
1FFFE0
1FC000
1F8000
1F8000
1F8000
1F0000
3F0000
3F0000
3F0000
3E0000
7E0000
7E0000
7E0000
7E0000
7C0000
7C0000
7E0000
FE0000
780000
ENDCHAR
STARTCHAR 0491
ENCODING 1169
SWIDTH 480 0
DWIDTH 16 0
BBX 21 29 1 0
BITMAP
0001F0
0001F8
0001F8
0001F8
0001F0
0001F0
01FFF0
0FFFF0
0FFFF0
0FFFF0
1FFFE0
1FC000
1F8000
1F8000
1F8000
1F0000
3F0000
3F0000
3F0000
3E0000
7E0000
7E0000
7E0000
7E0000
7C0000
7C0000
7E0000
FE0000
780000
ENDCHAR
STARTCHAR 0492
ENCODING 1170
SWIDTH 540 0
DWIDTH 18 0
BBX 20 23 2 0
BITMAP
01FFF0
07FFF0
0FFFF0
0FFFF0
0FFFF0
0FE000
0FC000
1FC000
1F8000
1F8000
1F9800
7FFC00
7FF800
7FF800
FFF800
3F0000
3E0000
7E0000
7E0000
7E0000
7E0000
7E0000
780000
ENDCHAR
STARTCHAR 0493
ENCODING 1171
SWIDTH 540 0
DWIDTH 18 0
BBX 20 23 2 0
BITMAP
01FFF0
07FFF0
0FFFF0
0FFFF0
0FFFF0
0FE000
0FC000
1FC000
1F8000
1F8000
1F9800
7FFC00
7FF800
7FF800
FFF800
3F0000
3E0000
7E0000
7E0000
7E0000
7E0000
7E0000
780000
ENDCHAR
STARTCHAR 0496
ENCODING 1174
SWIDTH 690 0
DWIDTH 23 0
BBX 25 27 1 -4
BITMAP
00000180
0FCF8F80
0FDF1F00
0FDF3F00
0FDF3F00
0FDF7E00
0FDF7E00
07DFFC00
07FFFC00
07FFF800
03FFF000
03FFF000
07FFF000
07FFF000
0FFFF800
1FFFFC00
3FBEFC00
3F3EFC00
7F7CFE00
7F7CFE00
FE7CFE00
FC7C3C00
00303C00
00007C00
00007800
00007800
00007800
ENDCHAR
STARTCHAR 0497
ENCODING 1175
SWIDTH 690 0
DWIDTH 23 0
BBX 25 27 1 -4
BITMAP
00000180
0FCF8F80
0FDF1F00
0FDF3F00
0FDF3F00
0FDF7E00
0FDF7E00
07DFFC00
07FFFC00
07FFF800
03FFF000
03FFF000
07FFF000
07FFF000
0FFFF800
1FFFFC00
3FBEFC00
3F3EFC00
7F7CFE00
7F7CFE00
FE7CFE00
FC7C3C00
00303C00
00007C00
00007800
00007800
00007800
ENDCHAR
STARTCHAR 0498
ENCODING 1176
SWIDTH 480 0
DWIDTH 16 0
BBX 16 29 3 -6
BITMAP
0FF8
3FFC
3FFE
3FFE
7FFE
707F
003E
007E
007C
03FC
1FF8
1FF8
1FFC
00FC
00FC
00FC
01FC
FFFC
FFF8
FFF8
FFF0
FFE0
7F80
0F00
07C0
03C0
7FC0
7FC0
0800
ENDCHAR
STARTCHAR 0499
ENCODING 1177
SWIDTH 480 0
DWIDTH 16 0
BBX 16 29 3 -6
BITMAP
0FF8
3FFC
3FFE
3FFE
7FFE
707F
003E
007E
007C
03FC
1FF8
1FF8
1FFC
00FC
00FC
00FC
01FC
FFFC
FFF8
FFF8
FFF0
FFE0
7F80
0F00
07C0
03C0
7FC0
7FC0
0800
ENDCHAR
STARTCHAR 049A
ENCODING 1178
SWIDTH 540 0
DWIDTH 18 0
BBX 21 27 1 -4
BITMAP
000840
07F8E0
0FF9F8
0FF3F0
0FF7E0
0FFFC0
1FFF80
1FFF00
1FFE00
1FFE00
3FFC00
3FF800
3FF800
3FF800
7FFC00
7FFE00
7FFE00
7FBF00
7FBFC0
FF1FC0
FF9FC0
FF0F80
DE1F80
000F80
000F00
000F00
001E00
ENDCHAR
STARTCHAR 049B
ENCODING 1179
SWIDTH 540 0
DWIDTH 18 0
BBX 21 27 1 -4
BITMAP
000840
07F8E0
0FF9F8
0FF3F0
0FF7E0
0FFFC0
1FFF80
1FFF00
1FFE00
1FFE00
3FFC00
3FF800
3FF800
3FF800
7FFC00
7FFE00
7FFE00
7FBF00
7FBFC0
FF1FC0
FF9FC0
FF0F80
DE1F80
000F80
000F00
000F00
001E00
ENDCHAR
STARTCHAR 04A0
ENCODING 1184
SWIDTH 630 0
DWIDTH 21 0
BBX 21 23 4 0
BITMAP
000840
7FF8E0
7FF9F8
7FF3F0
FFF7E0
FFFFC0
1FFF80
1FFF00
1FFE00
3FFE00
3FFC00
3FF800
7FF800
7FF800
7FFC00
7FFE00
FFFE00
FFBF00
FFBF00
FF1F80
FF1F80
FF0E80
FE0800
ENDCHAR
STARTCHAR 04A1
ENCODING 1185
SWIDTH 630 0
DWIDTH 21 0
BBX 21 23 4 0
BITMAP
000840
7FF8E0
7FF9F8
7FF3F0
FFF7E0
FFFFC0
1FFF80
1FFF00
1FFE00
3FFE00
3FFC00
3FF800
7FF800
7FF800
7FFC00
7FFE00
FFFE00
FFBF00
FFBF00
FF1F80
FF1F80
FF0E80
FE0800
ENDCHAR
STARTCHAR 04A2
ENCODING 1186
SWIDTH 540 0
DWIDTH 18 0
BBX 21 27 1 -4
BITMAP
001000
03F8F8
03F1F8
03F1F8
03F1F0
07F3F0
07E3F0
07E3E0
0FE7E0
0FFFE0
0FFFE0
1FFFC0
1FFFC0
1FFFC0
1FFFC0
3F9FC0
3F9F80
3F9F80
7F1FC0
7F3FC0
7F3FC0
FE3F80
080780
000F80
000F00
000F00
001F00
ENDCHAR
STARTCHAR 04A3
ENCODING 1187
SWIDTH 540 0
DWIDTH 18 0
BBX 21 27 1 -4
BITMAP
001000
03F8F8
03F1F8
03F1F8
03F1F0
07F3F0
07E3F0
07E3E0
0FE7E0
0FFFE0
0FFFE0
1FFFC0
1FFFC0
1FFFC0
1FFFC0
3F9FC0
3F9F80
3F9F80
7F1FC0
7F3FC0
7F3FC0
FE3F80
080780
000F80
000F00
000F00
001F00
ENDCHAR
STARTCHAR 04A4
ENCODING 1188
SWIDTH 630 0
DWIDTH 21 0
BBX 25 23 1 0
BITMAP
00080000
03F8FF80
03F0FF80
03F9FF00
03F1FF00
07F1FF00
07F3FF00
07F3F000
0FE3F000
0FFFF000
0FFFE000
1FFFE000
1FFFE000
1FFFE000
1FFFE000
3FAFC000
3F9FC000
3F9FC000
7F9F8000
7F1F8000
7F1F8000
FF3F0000
0A200000
ENDCHAR
STARTCHAR 04A5
ENCODING 1189
SWIDTH 630 0
DWIDTH 21 0
BBX 25 23 1 0
BITMAP
00080000
03F8FF80
03F0FF80
03F9FF00
03F1FF00
07F1FF00
07F3FF00
07F3F000
0FE3F000
0FFFF000
0FFFE000
1FFFE000
1FFFE000
1FFFE000
1FFFE000
3FAFC000
3F9FC000
3F9FC000
7F9F8000
7F1F8000
7F1F8000
FF3F0000
0A200000
ENDCHAR
STARTCHAR 04AA
ENCODING 1194
SWIDTH 480 0
DWIDTH 16 0
BBX 18 29 2 -6
BITMAP
001C00
00FF80
03FFC0
07FFC0
0FFFC0
1FFF80
1FFE80
3FC000
3F8000
3F0000
7F0000
7F0000
7F0000
7FFE00
7FFE00
7FFE00
7FFE00
7FFE00
7FFE00
7FFC00
3FF800
1FE000
0F8000
0F0000
0F8000
03C000
FFC000
FF8000
180000
ENDCHAR
STARTCHAR 04AB
ENCODING 1195
SWIDTH 480 0
DWIDTH 16 0
BBX 18 29 2 -6
BITMAP
001C00
00FF80
03FFC0
07FFC0
0FFFC0
1FFF80
1FFE80
3FC000
3F8000
3F0000
7F0000
7F0000
7F0000
7FFE00
7FFE00
7FFE00
7FFE00
7FFE00
7FFE00
7FFC00
3FF800
1FE000
0F8000
0F0000
0F8000
03C000
FFC000
FF8000
180000
ENDCHAR
STARTCHAR 04AC
ENCODING 1196
SWIDTH 570 0
DWIDTH 19 0
BBX 19 27 4 -4
BITMAP
000100
7FFFC0
7FFFC0
7FFFE0
7FFFE0
FFFFC0
FFFFC0
F9F800
81F000
03E000
03E000
03E000
03E000
07C000
07C000
07C000
07C000
0F8000
0FF000
0FF000
0FE000
0FE000
0FE000
03C000
03C000
07C000
078000
ENDCHAR
STARTCHAR 04AD
ENCODING 1197
SWIDTH 570 0
DWIDTH 19 0
BBX 19 27 4 -4
BITMAP
000100
7FFFC0
7FFFC0
7FFFE0
7FFFE0
FFFFC0
FFFFC0
F9F800
81F000
03E000
03E000
03E000
03E000
07C000
07C000
07C000
07C000
0F8000
0FF000
0FF000
0FE000
0FE000
0FE000
03C000
03C000
07C000
078000
ENDCHAR
STARTCHAR 04AE
ENCODING 1198
SWIDTH 600 0
DWIDTH 20 0
BBX 20 23 5 0
BITMAP
0001F0
0C03E0
FC07C0
FC0FC0
FE0F80
FE1F00
7E3F00
7E7E00
7E7C00
3FFC00
3FF800
3FF000
3FF000
1FE000
1FC000
1F8000
0F8000
0F8000
0F8000
1F8000
1F8000
1F8000
1F0000
ENDCHAR
STARTCHAR 04AF
ENCODING 1199
SWIDTH 600 0
DWIDTH 20 0
BBX 20 23 5 0
BITMAP
0001F0
0C03E0
FC07C0
FC0FC0
FE0F80
FE1F00
7E3F00
7E7E00
7E7C00
3FFC00
3FF800
3FF000
3FF000
1FE000
1FC000
1F8000
0F8000
0F8000
0F8000
1F8000
1F8000
1F8000
1F0000
ENDCHAR
STARTCHAR 04B0
ENCODING 1200
SWIDTH 600 0
DWIDTH 20 0
BBX 22 23 3 0
BITMAP
00007C
0300F8
3F01F0
3F03F0
3F83E0
3F87C0
1F8FC0
1F9F80
1F9F00
0FFF00
0FFE00
0FFC00
0FFC00
07F800
07F000
07E000
7FFF00
7FFF00
7FFE00
FFFE00
07E000
07E000
07C000
ENDCHAR
STARTCHAR 04B1
ENCODING 1201
SWIDTH 600 0
DWIDTH 20 0
BBX 22 23 3 0
BITMAP
00007C
0300F8
3F01F0
3F03F0
3F83E0
3F87C0
1F8FC0
1F9F80
1F9F00
0FFF00
0FFE00
0FFC00
0FFC00
07F800
07F000
07E000
7FFF00
7FFF00
7FFE00
FFFE00
07E000
07E000
07C000
ENDCHAR
STARTCHAR 04B2
ENCODING 1202
SWIDTH 570 0
DWIDTH 19 0
BBX 21 27 2 -4
BITMAP
0000C0
0F81F8
1F83F0
1F83E0
1FC7E0
1FCFC0
1FCFC0
1FDF80
0FFF00
07FF00
07FE00
07FC00
03FC00
03FC00
0FFC00
0FFC00
1FFC00
3F7C00
3F7FC0
7E3FC0
7E3F80
FC1F80
000F80
000F00
000F00
001F00
001E00
ENDCHAR
STARTCHAR 04B3
ENCODING 1203
SWIDTH 570 0
DWIDTH 19 0
BBX 21 27 2 -4
BITMAP
0000C0
0F81F8
1F83F0
1F83E0
1FC7E0
1FCFC0
1FCFC0
1FDF80
0FFF00
07FF00
07FE00
07FC00
03FC00
03FC00
0FFC00
0FFC00
1FFC00
3F7C00
3F7FC0
7E3FC0
7E3F80
FC1F80
000F80
000F00
000F00
001F00
001E00
ENDCHAR
STARTCHAR 04B6
ENCODING 1206
SWIDTH 510 0
DWIDTH 17 0
BBX 15 26 4 -4
BITMAP
7E3E
7C3E
7C3E
7C3E
FC3E
F87C
F87C
F87C
F87C
F8FC
FFFC
FFF8
FFF8
FFF8
3FF8
01F8
01F8
01FC
01FC
01F8
01F8
00F8
00F8
00F0
01F0
01E0
ENDCHAR
STARTCHAR 04B7
ENCODING 1207
SWIDTH 510 0
DWIDTH 17 0
BBX 15 26 4 -4
BITMAP
7E3E
7C3E
7C3E
7C3E
FC3E
F87C
F87C
F87C
F87C
F8FC
FFFC
FFF8
FFF8
FFF8
3FF8
01F8
01F8
01FC
01FC
01F8
01F8
00F8
00F8
00F0
01F0
01E0
ENDCHAR
STARTCHAR 04B8
ENCODING 1208
SWIDTH 510 0
DWIDTH 17 0
BBX 16 22 4 0
BITMAP
7E3F
7C3F
7C3E
7C3E
FC3E
FC3E
FFBE
FFFE
FFFE
FFFC
FFFC
FFFC
FFFC
7FFC
3FFC
0EF8
0EF8
0EF8
00F8
01F8
01F8
0080
ENDCHAR
STARTCHAR 04B9
ENCODING 1209
SWIDTH 510 0
DWIDTH 17 0
BBX 16 22 4 0
BITMAP
7E3F
7C3F
7C3E
7C3E
FC3E
FC3E
FFBE
FFFE
FFFE
FFFC
FFFC
FFFC
FFFC
7FFC
3FFC
0EF8
0EF8
0EF8
00F8
01F8
01F8
0080
ENDCHAR
STARTCHAR 04BA
ENCODING 1210
SWIDTH 510 0
DWIDTH 17 0
BBX 16 22 3 0
BITMAP
3F00
3F00
3F00
3F00
3E00
3E00
3EF8
3FFC
7FFE
7FFE
7FFF
7E7F
7C3F
7C3F
FC3E
FC3E
F83E
F87E
F87E
F87C
F87C
C000
ENDCHAR
STARTCHAR 04BB
ENCODING 1211
SWIDTH 510 0
DWIDTH 17 0
BBX 16 22 3 0
BITMAP
3F00
3F00
3F00
3F00
3E00
3E00
3EF8
3FFC
7FFE
7FFE
7FFF
7E7F
7C3F
7C3F
FC3E
FC3E
F83E
F87E
F87E
F87C
F87C
C000
ENDCHAR
STARTCHAR 04BC
ENCODING 1212
SWIDTH 540 0
DWIDTH 18 0
BBX 19 23 3 0
BITMAP
007C00
01FF00
03FF80
07FFC0
0FFFE0
0FFFE0
0FFFC0
0FC7C0
1F8FC0
7F8FC0
FFFFC0
FFFF80
FFFF80
FFFF80
1E0000
1E0000
1F0000
1FFF00
1FFF00
0FFF00
0FFE00
07FC00
026000
ENDCHAR
STARTCHAR 04BD
ENCODING 1213
SWIDTH 540 0
DWIDTH 18 0
BBX 19 23 3 0
BITMAP
007C00
01FF00
03FF80
07FFC0
0FFFE0
0FFFE0
0FFFC0
0FC7C0
1F8FC0
7F8FC0
FFFFC0
FFFF80
FFFF80
FFFF80
1E0000
1E0000
1F0000
1FFF00
1FFF00
0FFF00
0FFE00
07FC00
026000
ENDCHAR
STARTCHAR 04BE
ENCODING 1214
SWIDTH 540 0
DWIDTH 18 0
BBX 19 27 3 -4
BITMAP
007C00
01FF00
03FF80
07FFC0
0FFFE0
0FFFE0
0FFFC0
0FC7C0
1F8FC0
7F8FC0
FFFFC0
FFFF80
FFFF80
FFFF80
1E0000
1E0000
1F0000
1FFF00
1FFF00
0FFF00
0FFE00
07FC00
07E000
07C000
07C000
078000
0F8000
ENDCHAR
STARTCHAR 04BF
ENCODING 1215
SWIDTH 540 0
DWIDTH 18 0
BBX 19 27 3 -4
BITMAP
007C00
01FF00
03FF80
07FFC0
0FFFE0
0FFFE0
0FFFC0
0FC7C0
1F8FC0
7F8FC0
FFFFC0
FFFF80
FFFF80
FFFF80
1E0000
1E0000
1F0000
1FFF00
1FFF00
0FFF00
0FFE00
07FC00
07E000
07C000
07C000
078000
0F8000
ENDCHAR
STARTCHAR 04C0
ENCODING 1216
SWIDTH 180 0
DWIDTH 6 0
BBX 9 23 1 0
BITMAP
0700
0F80
0F80
0F80
1F80
1F00
1F00
1F00
1F00
1E00
3E00
3E00
3E00
3E00
7C00
7C00
7C00
7C00
7C00
7800
F800
F800
F800
ENDCHAR
STARTCHAR 04C1
ENCODING 1217
SWIDTH 690 0
DWIDTH 23 0
BBX 26 29 1 0
BITMAP
00007000
0038F000
003FE000
001FC000
001F8000
00000000
000000C0
0FC78780
0FCF8F80
0FCF9F80
0FEFBF00
0FFFBF00
0FFFFE00
07FFFE00
07FFFC00
07FFFC00
03FFF800
03FFF800
07FFF800
07FFF800
0FFFFC00
1FFFFE00
3FBEFE00
3FBEFE00
7F3EFE00
7F3EFE00
FE3E7800
FC3E0000
00100000
ENDCHAR
STARTCHAR 04C2
ENCODING 1218
SWIDTH 690 0
DWIDTH 23 0
BBX 26 29 1 0
BITMAP
00007000
0038F000
003FE000
001FC000
001F8000
00000000
000000C0
0FC78780
0FCF8F80
0FCF9F80
0FEFBF00
0FFFBF00
0FFFFE00
07FFFE00
07FFFC00
07FFFC00
03FFF800
03FFF800
07FFF800
07FFF800
0FFFFC00
1FFFFE00
3FBEFE00
3FBEFE00
7F3EFE00
7F3EFE00
FE3E7800
FC3E0000
00100000
ENDCHAR
STARTCHAR 04CB
ENCODING 1227
SWIDTH 510 0
DWIDTH 17 0
BBX 16 26 4 -4
BITMAP
7E3F
7C3F
7C3E
7C3E
FC3E
FC3E
FC3E
FC7E
FC7E
FC7C
FFFC
FFFC
FFFC
7FFC
3FFC
00F8
00F8
03F8
03F8
07F8
07F8
07C0
07C0
07C0
0780
0780
ENDCHAR
STARTCHAR 04CC
ENCODING 1228
SWIDTH 510 0
DWIDTH 17 0
BBX 16 26 4 -4
BITMAP
7E3F
7C3F
7C3E
7C3E
FC3E
FC3E
FC3E
FC7E
FC7E
FC7C
FFFC
FFFC
FFFC
7FFC
3FFC
00F8
00F8
03F8
03F8
07F8
07F8
07C0
07C0
07C0
0780
0780
ENDCHAR
STARTCHAR 04CF
ENCODING 1231
SWIDTH 180 0
DWIDTH 6 0
BBX 9 23 1 0
BITMAP
0700
0F80
0F80
0F80
1F80
1F00
1F00
1F00
1F00
1E00
3E00
3E00
3E00
3E00
7C00
7C00
7C00
7C00
7C00
7800
F800
F800
F800
ENDCHAR
STARTCHAR 04D0
ENCODING 1232
SWIDTH 630 0
DWIDTH 21 0
BBX 22 30 0 -1
BITMAP
000E1C
000E3C
000FF8
000FF0
0007E0
000000
000000
0003C0
0007C0
0007C0
000FC0
000FC0
001FC0
001FC0
003FC0
007FC0
007FC0
00FFC0
01EFE0
01CFE0
03C7E0
078FE0
07FFE0
0FFFE0
1FEFE0
1F0FF0
3F0FF0
7E0FF0
7E0FF0
F00000
ENDCHAR
STARTCHAR 04D1
ENCODING 1233
SWIDTH 630 0
DWIDTH 21 0
BBX 22 30 0 -1
BITMAP
000E1C
000E3C
000FF8
000FF0
0007E0
000000
000000
0003C0
0007C0
0007C0
000FC0
000FC0
001FC0
001FC0
003FC0
007FC0
007FC0
00FFC0
01EFE0
01CFE0
03C7E0
078FE0
07FFE0
0FFFE0
1FEFE0
1F0FF0
3F0FF0
7E0FF0
7E0FF0
F00000
ENDCHAR
STARTCHAR 04D2
ENCODING 1234
SWIDTH 630 0
DWIDTH 21 0
BBX 21 28 0 -1
BITMAP
000738
000F38
000E38
000400
000000
0003C0
0007C0
0007C0
000FC0
000FC0
001FC0
001FC0
003FC0
007FC0
007FC0
00FFC0
01EFE0
01CFE0
0387E0
078FE0
07FFE0
0FFFE0
1FEFE0
1F0FF0
3F0FF0
7E0FF0
7E0FF0
F00000
ENDCHAR
STARTCHAR 04D3
ENCODING 1235
SWIDTH 630 0
DWIDTH 21 0
BBX 21 28 0 -1
BITMAP
000738
000F38
000E38
000400
000000
0003C0
0007C0
0007C0
000FC0
000FC0
001FC0
001FC0
003FC0
007FC0
007FC0
00FFC0
01EFE0
01CFE0
0387E0
078FE0
07FFE0
0FFFE0
1FEFE0
1F0FF0
3F0FF0
7E0FF0
7E0FF0
F00000
ENDCHAR
STARTCHAR 04D4
ENCODING 1236
SWIDTH 720 0
DWIDTH 24 0
BBX 24 24 1 -1
BITMAP
0001FF
0007FF
000FFF
000FFE
001FFE
001FFE
003FFC
007FC0
007FC0
00FFCC
00FFF8
01FFF8
03DFF8
038FC0
070FC2
0F3FFF
0FFFFF
1FFFFF
3F9FFF
3E1FFF
7E1FFF
FC1FF0
FC1F00
800000
ENDCHAR
STARTCHAR 04D5
ENCODING 1237
SWIDTH 720 0
DWIDTH 24 0
BBX 24 24 1 -1
BITMAP
0001FF
0007FF
000FFF
000FFE
001FFE
001FFE
003FFC
007FC0
007FC0
00FFCC
00FFF8
01FFF8
03DFF8
038FC0
070FC2
0F3FFF
0FFFFF
1FFFFF
3F9FFF
3E1FFF
7E1FFF
FC1FF0
FC1F00
800000
ENDCHAR
STARTCHAR 04D6
ENCODING 1238
SWIDTH 480 0
DWIDTH 16 0
BBX 13 29 4 0
BITMAP
1878
1CF0
1FE0
1FC0
0F80
0000
1FF8
7FF8
7FF8
7FF0
7FF0
7FF0
7FE0
7E00
7E00
7EE0
7FC0
7FC0
7FC0
7C00
7FF0
7FF8
7FF8
7FF8
7FF8
FFF8
FFF0
FF80
F000
ENDCHAR
STARTCHAR 04D7
ENCODING 1239
SWIDTH 480 0
DWIDTH 16 0
BBX 13 29 4 0
BITMAP
1878
1CF0
1FE0
1FC0
0F80
0000
1FF8
7FF8
7FF8
7FF0
7FF0
7FF0
7FE0
7E00
7E00
7EE0
7FC0
7FC0
7FC0
7C00
7FF0
7FF8
7FF8
7FF8
7FF8
FFF8
FFF0
FF80
F000
ENDCHAR
STARTCHAR 04D8
ENCODING 1240
SWIDTH 480 0
DWIDTH 16 0
BBX 16 23 2 0
BITMAP
01F8
07FC
0FFE
1FFE
1FFF
0E7F
001F
000F
000F
3FFF
7FFF
7FFF
7FFF
7E3F
7C3E
7E7E
FFFE
FFFE
FFFC
7FFC
3FF8
1FE0
01C0
ENDCHAR
STARTCHAR 04D9
ENCODING 1241
SWIDTH 480 0
DWIDTH 16 0
BBX 16 23 2 0
BITMAP
01F8
07FC
0FFE
1FFE
1FFF
0E7F
001F
000F
000F
3FFF
7FFF
7FFF
7FFF
7E3F
7C3E
7E7E
FFFE
FFFE
FFFC
7FFC
3FF8
1FE0
01C0
ENDCHAR
STARTCHAR 04DA
ENCODING 1242
SWIDTH 480 0
DWIDTH 16 0
BBX 16 27 2 0
BITMAP
038C
039E
079C
0300
01F8
07FC
0FFE
1FFE
1FFF
0E7F
001F
000F
000F
3FFF
7FFF
7FFF
7FFF
7E3F
7C3E
7E7E
FFFE
FFFE
FFFC
7FFC
3FF8
1FE0
01C0
ENDCHAR
STARTCHAR 04DB
ENCODING 1243
SWIDTH 480 0
DWIDTH 16 0
BBX 16 27 2 0
BITMAP
038C
039E
079C
0300
01F8
07FC
0FFE
1FFE
1FFF
0E7F
001F
000F
000F
3FFF
7FFF
7FFF
7FFF
7E3F
7C3E
7E7E
FFFE
FFFE
FFFC
7FFC
3FF8
1FE0
01C0
ENDCHAR
STARTCHAR 04DC
ENCODING 1244
SWIDTH 690 0
DWIDTH 23 0
BBX 26 27 1 0
BITMAP
001C6000
003CE000
003CE000
0000C000
000000C0
0FC78780
0FCF8F80
0FCF9F80
0FEFBF00
0FFFBF00
0FFFFE00
07FFFE00
07FFFC00
07FFFC00
03FFF800
03FFF800
07FFF800
07FFF800
0FFFFC00
1FFFFE00
3FBEFE00
3FBEFE00
7F3EFE00
7F3EFE00
FE3E7800
FC3E0000
00100000
ENDCHAR
STARTCHAR 04DD
ENCODING 1245
SWIDTH 690 0
DWIDTH 23 0
BBX 26 27 1 0
BITMAP
001C6000
003CE000
003CE000
0000C000
000000C0
0FC78780
0FCF8F80
0FCF9F80
0FEFBF00
0FFFBF00
0FFFFE00
07FFFE00
07FFFC00
07FFFC00
03FFF800
03FFF800
07FFF800
07FFF800
0FFFFC00
1FFFFE00
3FBEFE00
3FBEFE00
7F3EFE00
7F3EFE00
FE3E7800
FC3E0000
00100000
ENDCHAR
STARTCHAR 04DE
ENCODING 1246
SWIDTH 480 0
DWIDTH 16 0
BBX 16 27 3 0
BITMAP
031C
073C
0F38
0600
0FF8
3FFC
3FFE
3FFE
7FFE
707F
003E
007E
007C
03FC
1FF8
1FF8
1FFC
00FC
00FC
00FC
01FC
FFFC
FFF8
FFF8
FFF0
FFE0
7F80
ENDCHAR
STARTCHAR 04DF
ENCODING 1247
SWIDTH 480 0
DWIDTH 16 0
BBX 16 27 3 0
BITMAP
031C
073C
0F38
0600
0FF8
3FFC
3FFE
3FFE
7FFE
707F
003E
007E
007C
03FC
1FF8
1FF8
1FFC
00FC
00FC
00FC
01FC
FFFC
FFF8
FFF8
FFF0
FFE0
7F80
ENDCHAR
STARTCHAR 04E0
ENCODING 1248
SWIDTH 480 0
DWIDTH 16 0
BBX 18 23 1 0
BITMAP
01FF80
07FFC0
07FFC0
07FF80
000700
001E00
003C00
00F800
01FC00
07FF00
0FFF00
0FFF00
001F80
000F80
000F80
000F80
600F00
7E1F00
FFFF00
FFFE00
7FFC00
3FF800
1FE000
ENDCHAR
STARTCHAR 04E1
ENCODING 1249
SWIDTH 480 0
DWIDTH 16 0
BBX 18 23 1 0
BITMAP
01FF80
07FFC0
07FFC0
07FF80
000700
001E00
003C00
00F800
01FC00
07FF00
0FFF00
0FFF00
001F80
000F80
000F80
000F80
600F00
7E1F00
FFFF00
FFFE00
7FFC00
3FF800
1FE000
ENDCHAR
STARTCHAR 04E2
ENCODING 1250
SWIDTH 540 0
DWIDTH 18 0
BBX 18 27 3 0
BITMAP
03FF00
03FE00
07FE00
000000
000000
1F1FC0
3F1FC0
3F1FC0
3F1F80
3F1F80
3F3F80
7E3F80
7E7F80
7EFF80
7EFF80
7FFF80
7FFF80
7FFF00
7FBF00
FFBF00
FF3F00
FE3F00
FE3F00
FE3F00
FC7F00
FC7E00
600E00
ENDCHAR
STARTCHAR 04E3
ENCODING 1251
SWIDTH 540 0
DWIDTH 18 0
BBX 18 27 3 0
BITMAP
03FF00
03FE00
07FE00
000000
000000
1F1FC0
3F1FC0
3F1FC0
3F1F80
3F1F80
3F3F80
7E3F80
7E7F80
7EFF80
7EFF80
7FFF80
7FFF80
7FFF00
7FBF00
FFBF00
FF3F00
FE3F00
FE3F00
FE3F00
FC7F00
FC7E00
600E00
ENDCHAR
STARTCHAR 04E4
ENCODING 1252
SWIDTH 540 0
DWIDTH 18 0
BBX 18 27 3 0
BITMAP
018E00
03CE00
039E00
000800
000000
1F1FC0
3F1FC0
3F1FC0
3F1F80
3F1F80
3F3F80
7E3F80
7E7F80
7EFF80
7EFF80
7FFF80
7FFF80
7FFF00
7FBF00
FFBF00
FF3F00
FE3F00
FE3F00
FE3F00
FC7F00
FC7E00
600E00
ENDCHAR
STARTCHAR 04E5
ENCODING 1253
SWIDTH 540 0
DWIDTH 18 0
BBX 18 27 3 0
BITMAP
018E00
03CE00
039E00
000800
000000
1F1FC0
3F1FC0
3F1FC0
3F1F80
3F1F80
3F3F80
7E3F80
7E7F80
7EFF80
7EFF80
7FFF80
7FFF80
7FFF00
7FBF00
FFBF00
FF3F00
FE3F00
FE3F00
FE3F00
FC7F00
FC7E00
600E00
ENDCHAR
STARTCHAR 04E6
ENCODING 1254
SWIDTH 510 0
DWIDTH 17 0
BBX 17 27 3 0
BITMAP
073800
0F3800
0F3800
060000
01E000
03F000
07FC00
0FFE00
0FFE00
1FFF00
3FFF00
3FFF00
7F3F80
7E1F80
FE1F80
FC3F80
FC3F80
FE7F00
FFFF00
FFFF00
FFFE00
FFFE00
FFFC00
FFFC00
7FF800
3FF000
1FC000
ENDCHAR
STARTCHAR 04E7
ENCODING 1255
SWIDTH 510 0
DWIDTH 17 0
BBX 17 27 3 0
BITMAP
073800
0F3800
0F3800
060000
01E000
03F000
07FC00
0FFE00
0FFE00
1FFF00
3FFF00
3FFF00
7F3F80
7E1F80
FE1F80
FC3F80
FC3F80
FE7F00
FFFF00
FFFF00
FFFE00
FFFE00
FFFC00
FFFC00
7FF800
3FF000
1FC000
ENDCHAR
STARTCHAR 04E8
ENCODING 1256
SWIDTH 510 0
DWIDTH 17 0
BBX 17 23 3 0
BITMAP
01F800
07FE00
0FFF00
1FFF00
1FFF80
3FFF80
3FFF80
7FFF80
7F3F80
FE1F80
FFFF80
FFFF80
FFFF80
FC3F00
FC3F00
FFFE00
FFFE00
FFFC00
7FFC00
7FF800
3FF800
1FF000
0FE000
ENDCHAR
STARTCHAR 04E9
ENCODING 1257
SWIDTH 510 0
DWIDTH 17 0
BBX 17 23 3 0
BITMAP
01F800
07FE00
0FFF00
1FFF00
1FFF80
3FFF80
3FFF80
7FFF80
7F3F80
FE1F80
FFFF80
FFFF80
FFFF80
FC3F00
FC3F00
FFFE00
FFFE00
FFFC00
7FFC00
7FF800
3FF800
1FF000
0FE000
ENDCHAR
STARTCHAR 04EA
ENCODING 1258
SWIDTH 510 0
DWIDTH 17 0
BBX 17 27 3 0
BITMAP
018E00
039E00
039C00
030000
01F800
07FE00
0FFF00
1FFF00
1FFF80
3FFF80
3FFF80
7FFF80
7F3F80
FE1F80
FFFF80
FFFF80
FFFF80
FC3F00
FC3F00
FFFE00
FFFE00
FFFC00
7FFC00
7FF800
3FF800
1FF000
0FE000
ENDCHAR
STARTCHAR 04EB
ENCODING 1259
SWIDTH 510 0
DWIDTH 17 0
BBX 17 27 3 0
BITMAP
018E00
039E00
039C00
030000
01F800
07FE00
0FFF00
1FFF00
1FFF80
3FFF80
3FFF80
7FFF80
7F3F80
FE1F80
FFFF80
FFFF80
FFFF80
FC3F00
FC3F00
FFFE00
FFFE00
FFFC00
7FFC00
7FF800
3FF800
1FF000
0FE000
ENDCHAR
STARTCHAR 04EC
ENCODING 1260
SWIDTH 480 0
DWIDTH 16 0
BBX 18 27 1 0
BITMAP
01CE00
03CF00
03CE00
018000
007800
03FE00
07FF00
0FFF80
0FFF80
0FFFC0
0FFFC0
1FFFC0
1C0FC0
000FC0
07FFC0
07FFC0
07FF80
07FF80
021F80
003F80
7FFF00
7FFE00
7FFE00
FFFC00
7FF800
3FC000
060000
ENDCHAR
STARTCHAR 04ED
ENCODING 1261
SWIDTH 480 0
DWIDTH 16 0
BBX 18 27 1 0
BITMAP
01CE00
03CF00
03CE00
018000
007800
03FE00
07FF00
0FFF80
0FFF80
0FFFC0
0FFFC0
1FFFC0
1C0FC0
000FC0
07FFC0
07FFC0
07FF80
07FF80
021F80
003F80
7FFF00
7FFE00
7FFE00
FFFC00
7FF800
3FC000
060000
ENDCHAR
STARTCHAR 04EE
ENCODING 1262
SWIDTH 510 0
DWIDTH 17 0
BBX 20 27 1 0
BITMAP
00FFC0
00FFC0
01FF80
000000
07C7F0
0FC7F0
0FE7E0
0FE7E0
07EFC0
07EFC0
07EF80
07FF80
03FF00
03FF00
03FF00
03FE00
01FE00
01FE00
01FC00
01FC00
3FFC00
7FF800
7FF800
7FF000
7FE000
FF8000
F80000
ENDCHAR
STARTCHAR 04EF
ENCODING 1263
SWIDTH 510 0
DWIDTH 17 0
BBX 20 27 1 0
BITMAP
00FFC0
00FFC0
01FF80
000000
07C7F0
0FC7F0
0FE7E0
0FE7E0
07EFC0
07EFC0
07EF80
07FF80
03FF00
03FF00
03FF00
03FE00
01FE00
01FE00
01FC00
01FC00
3FFC00
7FF800
7FF800
7FF000
7FE000
FF8000
F80000
ENDCHAR
STARTCHAR 04F0
ENCODING 1264
SWIDTH 510 0
DWIDTH 17 0
BBX 20 27 1 0
BITMAP
006380
00E380
00E780
004000
07C7F0
0FC7F0
0FE7E0
0FE7E0
07EFC0
07EFC0
07EF80
07FF80
03FF00
03FF00
03FF00
03FE00
01FE00
01FE00
01FC00
01FC00
3FFC00
7FF800
7FF800
7FF000
7FE000
FF8000
F80000
ENDCHAR
STARTCHAR 04F1
ENCODING 1265
SWIDTH 510 0
DWIDTH 17 0
BBX 20 27 1 0
BITMAP
006380
00E380
00E780
004000
07C7F0
0FC7F0
0FE7E0
0FE7E0
07EFC0
07EFC0
07EF80
07FF80
03FF00
03FF00
03FF00
03FE00
01FE00
01FE00
01FC00
01FC00
3FFC00
7FF800
7FF800
7FF000
7FE000
FF8000
F80000
ENDCHAR
STARTCHAR 04F2
ENCODING 1266
SWIDTH 510 0
DWIDTH 17 0
BBX 22 29 1 0
BITMAP
000F7C
001E78
003CF0
0079E0
0071C0
000000
07C7F0
0FC7F0
0FE7E0
0FE7E0
07EFC0
07EFC0
07EF80
07FF80
03FF00
03FF00
03FF00
03FE00
01FE00
01FE00
01FC00
01FC00
3FFC00
7FF800
7FF800
7FF000
7FE000
FF8000
F80000
ENDCHAR
STARTCHAR 04F3
ENCODING 1267
SWIDTH 510 0
DWIDTH 17 0
BBX 22 29 1 0
BITMAP
000F7C
001E78
003CF0
0079E0
0071C0
000000
07C7F0
0FC7F0
0FE7E0
0FE7E0
07EFC0
07EFC0
07EF80
07FF80
03FF00
03FF00
03FF00
03FE00
01FE00
01FE00
01FC00
01FC00
3FFC00
7FF800
7FF800
7FF000
7FE000
FF8000
F80000
ENDCHAR
STARTCHAR 04F4
ENCODING 1268
SWIDTH 510 0
DWIDTH 17 0
BBX 16 27 4 0
BITMAP
071C
073C
0F38
0600
0000
7E3F
7C3F
7C3E
7C3E
FC3E
FC3E
FC3E
FC7E
FC7E
FC7C
FFFC
FFFC
FFFC
7FFC
3FFC
00F8
00F8
00F8
00F8
01F8
01F8
0080
ENDCHAR
STARTCHAR 04F5
ENCODING 1269
SWIDTH 510 0
DWIDTH 17 0
BBX 16 27 4 0
BITMAP
071C
073C
0F38
0600
0000
7E3F
7C3F
7C3E
7C3E
FC3E
FC3E
FC3E
FC7E
FC7E
FC7C
FFFC
FFFC
FFFC
7FFC
3FFC
00F8
00F8
00F8
00F8
01F8
01F8
0080
ENDCHAR
STARTCHAR 04F6
ENCODING 1270
SWIDTH 480 0
DWIDTH 16 0
BBX 19 27 1 -4
BITMAP
01FFE0
0FFFE0
0FFFE0
0FFFE0
1FFFE0
1FC000
1F8000
1F8000
1F8000
1F0000
3F0000
3F0000
3F0000
3E0000
7E0000
7E0000
7E0000
7E0000
7F8000
7F8000
7F8000
FF0000
7F0000
1F0000
1E0000
1E0000
1E0000
ENDCHAR
STARTCHAR 04F7
ENCODING 1271
SWIDTH 480 0
DWIDTH 16 0
BBX 19 27 1 -4
BITMAP
01FFE0
0FFFE0
0FFFE0
0FFFE0
1FFFE0
1FC000
1F8000
1F8000
1F8000
1F0000
3F0000
3F0000
3F0000
3E0000
7E0000
7E0000
7E0000
7E0000
7F8000
7F8000
7F8000
FF0000
7F0000
1F0000
1E0000
1E0000
1E0000
ENDCHAR
STARTCHAR 04F8
ENCODING 1272
SWIDTH 660 0
DWIDTH 22 0
BBX 24 26 2 1
BITMAP
001C60
001CF0
003CE0
001800
0F8000
1F801F
1F801F
1F801F
1F801F
3F001F
3F003E
3F803E
3FF83E
3FFC3E
3FFE3E
3FFE7C
7E3E7C
7E1E7C
7E1F7C
7E1E7C
7C3EF8
7C7EF8
FFFCF8
FFFCF8
FFF0F0
FFF0F0
ENDCHAR
STARTCHAR 04F9
ENCODING 1273
SWIDTH 660 0
DWIDTH 22 0
BBX 24 26 2 1
BITMAP
001C60
001CF0
003CE0
001800
0F8000
1F801F
1F801F
1F801F
1F801F
3F001F
3F003E
3F803E
3FF83E
3FFC3E
3FFE3E
3FFE7C
7E3E7C
7E1E7C
7E1F7C
7E1E7C
7C3EF8
7C7EF8
FFFCF8
FFFCF8
FFF0F0
FFF0F0
ENDCHAR
STARTCHAR 0500
ENCODING 1280
SWIDTH 480 0
DWIDTH 16 0
BBX 19 23 2 0
BITMAP
0007E0
0007E0
000FC0
000FC0
000FC0
000FC0
001F80
003F80
03FF80
0FFF00
1FFF00
3FFF00
3E3F00
7C3E00
783E00
F87E00
F87E00
F87C00
FCFC00
FFFC00
FFFC00
7FF800
3FF800
ENDCHAR
STARTCHAR 0501
ENCODING 1281
SWIDTH 480 0
DWIDTH 16 0
BBX 19 23 2 0
BITMAP
0007E0
0007E0
000FC0
000FC0
000FC0
000FC0
001F80
003F80
03FF80
0FFF00
1FFF00
3FFF00
3E3F00
7C3E00
783E00
F87E00
F87E00
F87C00
FCFC00
FFFC00
FFFC00
7FF800
3FF800
ENDCHAR
STARTCHAR 0510
ENCODING 1296
SWIDTH 480 0
DWIDTH 16 0
BBX 18 23 2 0
BITMAP
00FF80
03FFC0
07FFC0
0FFFC0
0FFFC0
1FC1C0
1F8000
1F8000
1F8000
1FE000
0FF800
1FF800
3FF800
7F0000
7E0000
FC0000
FE0000
FFFC00
FFF800
FFF800
7FF800
7FF000
1FC000
ENDCHAR
STARTCHAR 0511
ENCODING 1297
SWIDTH 480 0
DWIDTH 16 0
BBX 18 23 2 0
BITMAP
00FF80
03FFC0
07FFC0
0FFFC0
0FFFC0
1FC1C0
1F8000
1F8000
1F8000
1FE000
0FF800
1FF800
3FF800
7F0000
7E0000
FC0000
FE0000
FFFC00
FFF800
FFF800
7FF800
7FF000
1FC000
ENDCHAR
STARTCHAR 0524
ENCODING 1316
SWIDTH 540 0
DWIDTH 18 0
BBX 19 27 2 -4
BITMAP
0FF700
1FFFE0
1FFFE0
1FFFE0
1FFFE0
3FFFE0
3F07C0
3F07C0
3E0FC0
3E0FC0
3E0FC0
7E0F80
7E0F80
7E1F80
7E1F80
7E1F00
7C1F00
FC3F00
FC3F80
FC3F80
FC3F80
F83F00
F83F00
001F00
001E00
003E00
003C00
ENDCHAR
STARTCHAR 0525
ENCODING 1317
SWIDTH 540 0
DWIDTH 18 0
BBX 19 27 2 -4
BITMAP
0FF700
1FFFE0
1FFFE0
1FFFE0
1FFFE0
3FFFE0
3F07C0
3F07C0
3E0FC0
3E0FC0
3E0FC0
7E0F80
7E0F80
7E1F80
7E1F80
7E1F00
7C1F00
FC3F00
FC3F80
FC3F80
FC3F80
F83F00
F83F00
001F00
001E00
003E00
003C00
ENDCHAR
STARTCHAR 0526
ENCODING 1318
SWIDTH 510 0
DWIDTH 17 0
BBX 15 26 3 -4
BITMAP
3F00
3F00
3F00
3F00
3E00
3E00
3EF0
3FFC
7FFC
7FFE
7FFE
7E7E
7C7E
7C7E
F87E
F87E
F87C
F87E
F87E
F87C
F8FC
C07C
007C
0078
00F8
00F0
ENDCHAR
STARTCHAR 0527
ENCODING 1319
SWIDTH 510 0
DWIDTH 17 0
BBX 15 26 3 -4
BITMAP
3F00
3F00
3F00
3F00
3E00
3E00
3EF0
3FFC
7FFC
7FFE
7FFE
7E7E
7C7E
7C7E
F87E
F87E
F87C
F87E
F87E
F87C
F8FC
C07C
007C
0078
00F8
00F0
ENDCHAR
STARTCHAR 052E
ENCODING 1326
SWIDTH 570 0
DWIDTH 19 0
BBX 19 26 1 -4
BITMAP
00F000
00F000
01F800
01F800
03FC00
03FC00
03FC00
07FE00
07FE00
0FFF00
0FFF00
1FBF00
1FBF80
1F3F80
3F3F80
3F3F80
7F3FC0
7E3FE0
FE3FE0
FE3FE0
FC03E0
0003C0
0007C0
0007C0
000780
000780
ENDCHAR
STARTCHAR 052F
ENCODING 1327
SWIDTH 570 0
DWIDTH 19 0
BBX 19 26 1 -4
BITMAP
00F000
00F000
01F800
01F800
03FC00
03FC00
03FC00
07FE00
07FE00
0FFF00
0FFF00
1FBF00
1FBF80
1F3F80
3F3F80
3F3F80
7F3FC0
7E3FE0
FE3FE0
FE3FE0
FC03E0
0003C0
0007C0
0007C0
000780
000780
ENDCHAR
STARTCHAR 058F
ENCODING 1423
SWIDTH 540 0
DWIDTH 18 0
BBX 17 23 3 0
BITMAP
01F000
0FF800
1FFC00
3FFC00
3FFE00
7E7E00
7C7E00
7C7E00
787E00
F87E00
FFFF80
07FF80
07FF80
00FC00
00FC00
01F800
0FFF00
0FFF00
0FFE00
01F000
01F000
03F000
03E000
ENDCHAR
STARTCHAR 1E02
ENCODING 7682
SWIDTH 510 0
DWIDTH 17 0
BBX 15 27 3 0
BITMAP
0380
0780
0780
0300
0FE0
3FF8
3FFC
3FFC
3FFE
3F7E
3E3E
3E3C
3E3C
3FF8
7FF0
7FF8
7FFC
7FFE
7E3E
7E3E
7E7E
7EFE
7FFC
FFFC
FFF0
FFE0
7C00
ENDCHAR
STARTCHAR 1E03
ENCODING 7683
SWIDTH 510 0
DWIDTH 17 0
BBX 15 27 3 0
BITMAP
0380
0780
0780
0300
0FE0
3FF8
3FFC
3FFC
3FFE
3F7E
3E3E
3E3C
3E3C
3FF8
7FF0
7FF8
7FFC
7FFE
7E3E
7E3E
7E7E
7EFE
7FFC
FFFC
FFF0
FFE0
7C00
ENDCHAR
STARTCHAR 1E06
ENCODING 7686
SWIDTH 510 0
DWIDTH 17 0
BBX 15 27 3 -4
BITMAP
0FE0
3FF8
3FFC
3FFC
3FFE
3F7E
3E3E
3E3C
3E3C
3FF8
7FF0
7FF8
7FFC
7FFE
7E3E
7E3E
7E7E
7EFE
7FFC
FFFC
FFF0
FFE0
7C00
0000
2000
7FE0
7FC0
ENDCHAR
STARTCHAR 1E07
ENCODING 7687
SWIDTH 510 0
DWIDTH 17 0
BBX 15 27 3 -4
BITMAP
0FE0
3FF8
3FFC
3FFC
3FFE
3F7E
3E3E
3E3C
3E3C
3FF8
7FF0
7FF8
7FFC
7FFE
7E3E
7E3E
7E7E
7EFE
7FFC
FFFC
FFF0
FFE0
7C00
0000
2000
7FE0
7FC0
ENDCHAR
STARTCHAR 1E08
ENCODING 7688
SWIDTH 480 0
DWIDTH 16 0
BBX 19 35 2 -6
BITMAP
0001E0
0003E0
0007C0
000780
000F00
000000
001C00
00FF80
03FFC0
07FFC0
0FFFC0
1FFF80
1FFE80
3FC000
3F8000
3F0000
7F0000
7F0000
7F0000
7FFE00
7FFE00
7FFE00
7FFE00
7FFE00
7FFE00
7FFC00
3FF800
1FE000
0F8000
0F0000
0F8000
03C000
FFC000
FF8000
180000
ENDCHAR
STARTCHAR 1E09
ENCODING 7689
SWIDTH 480 0
DWIDTH 16 0
BBX 19 35 2 -6
BITMAP
0001E0
0003E0
0007C0
000780
000F00
000000
001C00
00FF80
03FFC0
07FFC0
0FFFC0
1FFF80
1FFE80
3FC000
3F8000
3F0000
7F0000
7F0000
7F0000
7FFE00
7FFE00
7FFE00
7FFE00
7FFE00
7FFE00
7FFC00
3FF800
1FE000
0F8000
0F0000
0F8000
03C000
FFC000
FF8000
180000
ENDCHAR
STARTCHAR 1E0A
ENCODING 7690
SWIDTH 450 0
DWIDTH 15 0
BBX 15 27 3 0
BITMAP
0700
0F00
0F00
0600
0F80
3FE0
3FF0
3FF8
7FFC
7FFC
7F7C
7E3E
7E1E
7E3E
7E3E
7C7C
7CF8
7DF8
FFF0
FFE0
FFE0
FFC0
FF80
7F00
7C00
7000
4000
ENDCHAR
STARTCHAR 1E0B
ENCODING 7691
SWIDTH 450 0
DWIDTH 15 0
BBX 15 27 3 0
BITMAP
0700
0F00
0F00
0600
0F80
3FE0
3FF0
3FF8
7FFC
7FFC
7F7C
7E3E
7E1E
7E3E
7E3E
7C7C
7CF8
7DF8
FFF0
FFE0
FFE0
FFC0
FF80
7F00
7C00
7000
4000
ENDCHAR
STARTCHAR 1E0C
ENCODING 7692
SWIDTH 450 0
DWIDTH 15 0
BBX 15 28 3 -5
BITMAP
0F80
3FE0
3FF0
3FF8
7FFC
7FFC
7F7C
7E3E
7E1E
7E3E
7E3E
7C7C
7CF8
7DF8
FFF0
FFE0
FFE0
FFC0
FF80
7F00
7C00
7000
4000
0000
0000
7800
7800
7000
ENDCHAR
STARTCHAR 1E0D
ENCODING 7693
SWIDTH 450 0
DWIDTH 15 0
BBX 15 28 3 -5
BITMAP
0F80
3FE0
3FF0
3FF8
7FFC
7FFC
7F7C
7E3E
7E1E
7E3E
7E3E
7C7C
7CF8
7DF8
FFF0
FFE0
FFE0
FFC0
FF80
7F00
7C00
7000
4000
0000
0000
7800
7800
7000
ENDCHAR
STARTCHAR 1E0E
ENCODING 7694
SWIDTH 450 0
DWIDTH 15 0
BBX 15 27 3 -4
BITMAP
0F80
3FE0
3FF0
3FF8
7FFC
7FFC
7F7C
7E3E
7E1E
7E3E
7E3E
7C7C
7CF8
7DF8
FFF0
FFE0
FFE0
FFC0
FF80
7F00
7C00
7000
4000
0000
4000
FFC0
FF80
ENDCHAR
STARTCHAR 1E0F
ENCODING 7695
SWIDTH 450 0
DWIDTH 15 0
BBX 15 27 3 -4
BITMAP
0F80
3FE0
3FF0
3FF8
7FFC
7FFC
7F7C
7E3E
7E1E
7E3E
7E3E
7C7C
7CF8
7DF8
FFF0
FFE0
FFE0
FFC0
FF80
7F00
7C00
7000
4000
0000
4000
FFC0
FF80
ENDCHAR
STARTCHAR 1E10
ENCODING 7696
SWIDTH 450 0
DWIDTH 15 0
BBX 16 29 2 -6
BITMAP
07C0
1FF0
1FF8
1FFC
3FFE
3FFE
3FBE
3F1F
3F0F
3F1F
3F1F
3E3E
3E7C
3EFC
7FF8
7FF0
7FF0
7FE0
7FC0
3F80
3E00
3E00
3E00
1E00
0F80
0780
FF80
FF80
1800
ENDCHAR
STARTCHAR 1E11
ENCODING 7697
SWIDTH 450 0
DWIDTH 15 0
BBX 16 29 2 -6
BITMAP
07C0
1FF0
1FF8
1FFC
3FFE
3FFE
3FBE
3F1F
3F0F
3F1F
3F1F
3E3E
3E7C
3EFC
7FF8
7FF0
7FF0
7FE0
7FC0
3F80
3E00
3E00
3E00
1E00
0F80
0780
FF80
FF80
1800
ENDCHAR
STARTCHAR 1E1C
ENCODING 7708
SWIDTH 480 0
DWIDTH 16 0
BBX 13 35 4 -6
BITMAP
1878
1CF0
1FE0
1FC0
0F80
0000
1FF8
7FF8
7FF8
7FF0
7FF0
7FF0
7FE0
7E00
7E00
7EE0
7FC0
7FC0
7FC0
7C00
7FF0
7FF8
7FF8
7FF8
7FF8
FFF8
FFF0
FF80
FF00
0F00
0780
03C0
7FC0
7F80
0A00
ENDCHAR
STARTCHAR 1E1D
ENCODING 7709
SWIDTH 480 0
DWIDTH 16 0
BBX 13 35 4 -6
BITMAP
1878
1CF0
1FE0
1FC0
0F80
0000
1FF8
7FF8
7FF8
7FF0
7FF0
7FF0
7FE0
7E00
7E00
7EE0
7FC0
7FC0
7FC0
7C00
7FF0
7FF8
7FF8
7FF8
7FF8
FFF8
FFF0
FF80
FF00
0F00
0780
03C0
7FC0
7F80
0A00
ENDCHAR
STARTCHAR 1E1E
ENCODING 7710
SWIDTH 480 0
DWIDTH 16 0
BBX 19 27 1 0
BITMAP
003800
003800
003800
000000
01FFE0
0FFFE0
0FFFE0
0FFFE0
1FFFE0
1FC000
1F8000
1F8000
1FB000
1FF000
3FF000
3FF000
3FF000
3F0000
7E0000
7E0000
7E0000
7E0000
7C0000
7C0000
7C0000
FE0000
780000
ENDCHAR
STARTCHAR 1E1F
ENCODING 7711
SWIDTH 480 0
DWIDTH 16 0
BBX 19 27 1 0
BITMAP
003800
003800
003800
000000
01FFE0
0FFFE0
0FFFE0
0FFFE0
1FFFE0
1FC000
1F8000
1F8000
1FB000
1FF000
3FF000
3FF000
3FF000
3F0000
7E0000
7E0000
7E0000
7E0000
7C0000
7C0000
7C0000
FE0000
780000
ENDCHAR
STARTCHAR 1E24
ENCODING 7716
SWIDTH 540 0
DWIDTH 18 0
BBX 22 28 1 -5
BITMAP
000800
03F87C
03F0FC
03F9F8
03F1F8
07F1F8
07F3F0
07F3F0
0FE3F0
0FFFF0
0FFFE0
1FFFE0
1FFFE0
1FFFE0
1FFFE0
3FAFC0
3F9FC0
3F9FC0
7F9F80
7F1F80
7F1F80
FF3F00
0A2000
000000
000000
01C000
03C000
038000
ENDCHAR
STARTCHAR 1E25
ENCODING 7717
SWIDTH 540 0
DWIDTH 18 0
BBX 22 28 1 -5
BITMAP
000800
03F87C
03F0FC
03F9F8
03F1F8
07F1F8
07F3F0
07F3F0
0FE3F0
0FFFF0
0FFFE0
1FFFE0
1FFFE0
1FFFE0
1FFFE0
3FAFC0
3F9FC0
3F9FC0
7F9F80
7F1F80
7F1F80
FF3F00
0A2000
000000
000000
01C000
03C000
038000
ENDCHAR
STARTCHAR 1E28
ENCODING 7720
SWIDTH 540 0
DWIDTH 18 0
BBX 23 29 0 -6
BITMAP
000400
01FC3E
01F87E
01FCFC
01F8FC
03F8FC
03F9F8
03F9F8
07F1F8
07FFF8
07FFF0
0FFFF0
0FFFF0
0FFFF0
0FFFF0
1FD7E0
1FCFE0
1FCFE0
3FCFC0
3F8FC0
3F8FC0
7F9F80
1F1000
1E0000
0F0000
078000
FF8000
FF0000
140000
ENDCHAR
STARTCHAR 1E29
ENCODING 7721
SWIDTH 540 0
DWIDTH 18 0
BBX 23 29 0 -6
BITMAP
000400
01FC3E
01F87E
01FCFC
01F8FC
03F8FC
03F9F8
03F9F8
07F1F8
07FFF8
07FFF0
0FFFF0
0FFFF0
0FFFF0
0FFFF0
1FD7E0
1FCFE0
1FCFE0
3FCFC0
3F8FC0
3F8FC0
7F9F80
1F1000
1E0000
0F0000
078000
FF8000
FF0000
140000
ENDCHAR
STARTCHAR 1E2A
ENCODING 7722
SWIDTH 540 0
DWIDTH 18 0
BBX 22 28 1 -5
BITMAP
000800
03F87C
03F0FC
03F9F8
03F1F8
07F1F8
07F3F0
07F3F0
0FE3F0
0FFFF0
0FFFE0
1FFFE0
1FFFE0
1FFFE0
1FFFE0
3FAFC0
3F9FC0
3F9FC0
7F9F80
7F1F80
7F1F80
FF3F00
0A2000
1C1800
1C3800
0FF800
0FF000
07C000
ENDCHAR
STARTCHAR 1E2B
ENCODING 7723
SWIDTH 540 0
DWIDTH 18 0
BBX 22 28 1 -5
BITMAP
000800
03F87C
03F0FC
03F9F8
03F1F8
07F1F8
07F3F0
07F3F0
0FE3F0
0FFFF0
0FFFE0
1FFFE0
1FFFE0
1FFFE0
1FFFE0
3FAFC0
3F9FC0
3F9FC0
7F9F80
7F1F80
7F1F80
FF3F00
0A2000
1C1800
1C3800
0FF800
0FF000
07C000
ENDCHAR
STARTCHAR 1E30
ENCODING 7728
SWIDTH 540 0
DWIDTH 18 0
BBX 21 29 1 0
BITMAP
000078
0000F8
0001F0
0001C0
000380
000000
004860
07F8E0
0FF9F8
0FF3F8
0FF7F0
0FF7E0
1FFFC0
1FFF80
1FFF00
1FFE00
3FFC00
3FFC00
3FF800
3FFC00
7FFE00
7FFE00
7FFF00
7FBF00
7F9F80
FF9F80
FF8F80
FF8E80
DF0C00
ENDCHAR
STARTCHAR 1E31
ENCODING 7729
SWIDTH 540 0
DWIDTH 18 0
BBX 21 29 1 0
BITMAP
000078
0000F8
0001F0
0001C0
000380
000000
004860
07F8E0
0FF9F8
0FF3F8
0FF7F0
0FF7E0
1FFFC0
1FFF80
1FFF00
1FFE00
3FFC00
3FFC00
3FF800
3FFC00
7FFE00
7FFE00
7FFF00
7FBF00
7F9F80
FF9F80
FF8F80
FF8E80
DF0C00
ENDCHAR
STARTCHAR 1E34
ENCODING 7732
SWIDTH 540 0
DWIDTH 18 0
BBX 21 27 1 -4
BITMAP
004860
07F8E0
0FF9F8
0FF3F8
0FF7F0
0FF7E0
1FFFC0
1FFF80
1FFF00
1FFE00
3FFC00
3FFC00
3FF800
3FFC00
7FFE00
7FFE00
7FFF00
7FBF00
7F9F80
FF9F80
FF8F80
FF8E80
DF0C00
000000
000000
3FF000
3FF000
ENDCHAR
STARTCHAR 1E35
ENCODING 7733
SWIDTH 540 0
DWIDTH 18 0
BBX 21 27 1 -4
BITMAP
004860
07F8E0
0FF9F8
0FF3F8
0FF7F0
0FF7E0
1FFFC0
1FFF80
1FFF00
1FFE00
3FFC00
3FFC00
3FF800
3FFC00
7FFE00
7FFE00
7FFF00
7FBF00
7F9F80
FF9F80
FF8F80
FF8E80
DF0C00
000000
000000
3FF000
3FF000
ENDCHAR
STARTCHAR 1E36
ENCODING 7734
SWIDTH 510 0
DWIDTH 17 0
BBX 16 28 1 -5
BITMAP
001E
01FF
01FE
03FE
03FE
03FC
07FC
07F8
07F8
07F8
0FF0
0FF0
1FF0
1FE0
1FE0
3FE0
3FFF
3FFF
3FFF
7FFF
7FFF
7FFF
FFF8
0000
0000
0700
0700
0700
ENDCHAR
STARTCHAR 1E37
ENCODING 7735
SWIDTH 510 0
DWIDTH 17 0
BBX 16 28 1 -5
BITMAP
001E
01FF
01FE
03FE
03FE
03FC
07FC
07F8
07F8
07F8
0FF0
0FF0
1FF0
1FE0
1FE0
3FE0
3FFF
3FFF
3FFF
7FFF
7FFF
7FFF
FFF8
0000
0000
0700
0700
0700
ENDCHAR
STARTCHAR 1E3A
ENCODING 7738
SWIDTH 510 0
DWIDTH 17 0
BBX 16 27 1 -4
BITMAP
001E
01FF
01FE
03FE
03FE
03FC
07FC
07F8
07F8
07F8
0FF0
0FF0
1FF0
1FE0
1FE0
3FE0
3FFF
3FFF
3FFF
7FFF
7FFF
7FFF
FFF8
0000
0000
3FF0
3FF0
ENDCHAR
STARTCHAR 1E3B
ENCODING 7739
SWIDTH 510 0
DWIDTH 17 0
BBX 16 27 1 -4
BITMAP
001E
01FF
01FE
03FE
03FE
03FC
07FC
07F8
07F8
07F8
0FF0
0FF0
1FF0
1FE0
1FE0
3FE0
3FFF
3FFF
3FFF
7FFF
7FFF
7FFF
FFF8
0000
0000
3FF0
3FF0
ENDCHAR
STARTCHAR 1E3E
ENCODING 7742
SWIDTH 630 0
DWIDTH 21 0
BBX 22 29 1 0
BITMAP
00003C
00007C
0000F0
0001E0
0001C0
000000
018000
01801C
01C03C
01C03C
03E07C
03E0FC
07F0FC
07F1FC
07F3FC
0FFFFC
0FFFF8
0FFFF8
1FFFF8
1FDFF8
1FDBF8
3F83F8
3F07F8
7F07F8
7E07F8
7E07F8
FC0FF8
FC0FF8
F80000
ENDCHAR
STARTCHAR 1E3F
ENCODING 7743
SWIDTH 630 0
DWIDTH 21 0
BBX 22 29 1 0
BITMAP
00003C
00007C
0000F0
0001E0
0001C0
000000
018000
01801C
01C03C
01C03C
03E07C
03E0FC
07F0FC
07F1FC
07F3FC
0FFFFC
0FFFF8
0FFFF8
1FFFF8
1FDFF8
1FDBF8
3F83F8
3F07F8
7F07F8
7E07F8
7E07F8
FC0FF8
FC0FF8
F80000
ENDCHAR
STARTCHAR 1E40
ENCODING 7744
SWIDTH 630 0
DWIDTH 21 0
BBX 22 27 1 0
BITMAP
000180
0003C0
000380
000100
018000
01801C
01C03C
01C03C
03E07C
03E0FC
07F0FC
07F1FC
07F3FC
0FFFFC
0FFFF8
0FFFF8
1FFFF8
1FDFF8
1FDBF8
3F83F8
3F07F8
7F07F8
7E07F8
7E07F8
FC0FF8
FC0FF8
F80000
ENDCHAR
STARTCHAR 1E41
ENCODING 7745
SWIDTH 630 0
DWIDTH 21 0
BBX 22 27 1 0
BITMAP
000180
0003C0
000380
000100
018000
01801C
01C03C
01C03C
03E07C
03E0FC
07F0FC
07F1FC
07F3FC
0FFFFC
0FFFF8
0FFFF8
1FFFF8
1FDFF8
1FDBF8
3F83F8
3F07F8
7F07F8
7E07F8
7E07F8
FC0FF8
FC0FF8
F80000
ENDCHAR
STARTCHAR 1E44
ENCODING 7748
SWIDTH 540 0
DWIDTH 18 0
BBX 22 27 1 0
BITMAP
000380
000780
000780
000000
000000
03F8F8
03F9FC
03F9F8
07F1F8
07F3F8
0FF3F0
0FF3F0
0FF3F0
1FF3E0
1FF7E0
1FFFE0
1FFFE0
3FFFC0
3FFFC0
3F7FC0
7F7F80
7F3F80
7E3F80
7E3F80
FE3F00
FE3F00
E00800
ENDCHAR
STARTCHAR 1E45
ENCODING 7749
SWIDTH 540 0
DWIDTH 18 0
BBX 22 27 1 0
BITMAP
000380
000780
000780
000000
000000
03F8F8
03F9FC
03F9F8
07F1F8
07F3F8
0FF3F0
0FF3F0
0FF3F0
1FF3E0
1FF7E0
1FFFE0
1FFFE0
3FFFC0
3FFFC0
3F7FC0
7F7F80
7F3F80
7E3F80
7E3F80
FE3F00
FE3F00
E00800
ENDCHAR
STARTCHAR 1E48
ENCODING 7752
SWIDTH 540 0
DWIDTH 18 0
BBX 22 26 1 -4
BITMAP
03F8F8
03F9FC
03F9F8
07F1F8
07F3F8
0FF3F0
0FF3F0
0FF3F0
1FF3E0
1FF7E0
1FFFE0
1FFFE0
3FFFC0
3FFFC0
3F7FC0
7F7F80
7F3F80
7E3F80
7E3F80
FE3F00
FE3F00
E00800
000000
080000
1FF800
1FF800
ENDCHAR
STARTCHAR 1E49
ENCODING 7753
SWIDTH 540 0
DWIDTH 18 0
BBX 22 26 1 -4
BITMAP
03F8F8
03F9FC
03F9F8
07F1F8
07F3F8
0FF3F0
0FF3F0
0FF3F0
1FF3E0
1FF7E0
1FFFE0
1FFFE0
3FFFC0
3FFFC0
3F7FC0
7F7F80
7F3F80
7E3F80
7E3F80
FE3F00
FE3F00
E00800
000000
080000
1FF800
1FF800
ENDCHAR
STARTCHAR 1E54
ENCODING 7764
SWIDTH 480 0
DWIDTH 16 0
BBX 18 29 1 0
BITMAP
000780
000F80
001E00
003C00
003800
000000
007800
07FF00
07FF80
07FFC0
07FFC0
0FCFC0
0FC3C0
0FC3C0
0FC7C0
1FC7C0
1FFFC0
1FFF80
3FFF00
3FFC00
3FC000
7F8000
7F8000
7F8000
7F8000
FF8000
FF8000
FF0000
FF0000
ENDCHAR
STARTCHAR 1E55
ENCODING 7765
SWIDTH 480 0
DWIDTH 16 0
BBX 18 29 1 0
BITMAP
000780
000F80
001E00
003C00
003800
000000
007800
07FF00
07FF80
07FFC0
07FFC0
0FCFC0
0FC3C0
0FC3C0
0FC7C0
1FC7C0
1FFFC0
1FFF80
3FFF00
3FFC00
3FC000
7F8000
7F8000
7F8000
7F8000
FF8000
FF8000
FF0000
FF0000
ENDCHAR
STARTCHAR 1E56
ENCODING 7766
SWIDTH 480 0
DWIDTH 16 0
BBX 18 27 1 0
BITMAP
000C00
001E00
001C00
000800
007800
07FF00
07FF80
07FFC0
07FFC0
0FCFC0
0FC3C0
0FC3C0
0FC7C0
1FC7C0
1FFFC0
1FFF80
3FFF00
3FFC00
3FC000
7F8000
7F8000
7F8000
7F8000
FF8000
FF8000
FF0000
FF0000
ENDCHAR
STARTCHAR 1E57
ENCODING 7767
SWIDTH 480 0
DWIDTH 16 0
BBX 18 27 1 0
BITMAP
000C00
001E00
001C00
000800
007800
07FF00
07FF80
07FFC0
07FFC0
0FCFC0
0FC3C0
0FC3C0
0FC7C0
1FC7C0
1FFFC0
1FFF80
3FFF00
3FFC00
3FC000
7F8000
7F8000
7F8000
7F8000
FF8000
FF8000
FF0000
FF0000
ENDCHAR
STARTCHAR 1E5A
ENCODING 7770
SWIDTH 570 0
DWIDTH 19 0
BBX 18 28 2 -5
BITMAP
00F800
0FFE00
1FFF80
1FFF80
1FC7C0
3FC3C0
3FC3C0
3FC3C0
3FC780
3FDF80
3FFF00
3FFE00
7FFC00
7FFC00
7FFC00
7FBE00
7FBE00
7FBF00
7F9F00
FF9F00
FF1F80
FF1F80
7F0F00
780000
000000
00E000
01E000
01C000
ENDCHAR
STARTCHAR 1E5B
ENCODING 7771
SWIDTH 570 0
DWIDTH 19 0
BBX 18 28 2 -5
BITMAP
00F800
0FFE00
1FFF80
1FFF80
1FC7C0
3FC3C0
3FC3C0
3FC3C0
3FC780
3FDF80
3FFF00
3FFE00
7FFC00
7FFC00
7FFC00
7FBE00
7FBE00
7FBF00
7F9F00
FF9F00
FF1F80
FF1F80
7F0F00
780000
000000
00E000
01E000
01C000
ENDCHAR
STARTCHAR 1E5E
ENCODING 7774
SWIDTH 570 0
DWIDTH 19 0
BBX 18 27 2 -4
BITMAP
00F800
0FFE00
1FFF80
1FFF80
1FC7C0
3FC3C0
3FC3C0
3FC3C0
3FC780
3FDF80
3FFF00
3FFE00
7FFC00
7FFC00
7FFC00
7FBE00
7FBE00
7FBF00
7F9F00
FF9F00
FF1F80
FF1F80
7F0F00
780000
080000
1FF800
1FF800
ENDCHAR
STARTCHAR 1E5F
ENCODING 7775
SWIDTH 570 0
DWIDTH 19 0
BBX 18 27 2 -4
BITMAP
00F800
0FFE00
1FFF80
1FFF80
1FC7C0
3FC3C0
3FC3C0
3FC3C0
3FC780
3FDF80
3FFF00
3FFE00
7FFC00
7FFC00
7FFC00
7FBE00
7FBE00
7FBF00
7F9F00
FF9F00
FF1F80
FF1F80
7F0F00
780000
080000
1FF800
1FF800
ENDCHAR
STARTCHAR 1E60
ENCODING 7776
SWIDTH 480 0
DWIDTH 16 0
BBX 20 27 1 0
BITMAP
000600
000E00
000E00
000C00
003FE0
01FFF0
01FFE0
03FFC0
07FFC0
07FF80
0FFF00
0FFF00
0FDE00
0F8000
0FE000
0FF800
07FE00
01FF00
007F00
003F00
303F00
7FFF00
FFFE00
FFFE00
7FFC00
7FF000
1FC000
ENDCHAR
STARTCHAR 1E61
ENCODING 7777
SWIDTH 480 0
DWIDTH 16 0
BBX 20 27 1 0
BITMAP
000600
000E00
000E00
000C00
003FE0
01FFF0
01FFE0
03FFC0
07FFC0
07FF80
0FFF00
0FFF00
0FDE00
0F8000
0FE000
0FF800
07FE00
01FF00
007F00
003F00
303F00
7FFF00
FFFE00
FFFE00
7FFC00
7FF000
1FC000
ENDCHAR
STARTCHAR 1E62
ENCODING 7778
SWIDTH 480 0
DWIDTH 16 0
BBX 20 28 1 -5
BITMAP
003FE0
01FFF0
01FFE0
03FFC0
07FFC0
07FF80
0FFF00
0FFF00
0FDE00
0F8000
0FE000
0FF800
07FE00
01FF00
007F00
003F00
303F00
7FFF00
FFFE00
FFFE00
7FFC00
7FF000
1FC000
000000
000000
0E0000
0F0000
0E0000
ENDCHAR
STARTCHAR 1E63
ENCODING 7779
SWIDTH 480 0
DWIDTH 16 0
BBX 20 28 1 -5
BITMAP
003FE0
01FFF0
01FFE0
03FFC0
07FFC0
07FF80
0FFF00
0FFF00
0FDE00
0F8000
0FE000
0FF800
07FE00
01FF00
007F00
003F00
303F00
7FFF00
FFFE00
FFFE00
7FFC00
7FF000
1FC000
000000
000000
0E0000
0F0000
0E0000
ENDCHAR
STARTCHAR 1E6A
ENCODING 7786
SWIDTH 570 0
DWIDTH 19 0
BBX 19 27 4 0
BITMAP
001800
003800
003800
001000
000100
7FFFC0
7FFFC0
7FFFE0
7FFFE0
FFFFC0
FFFFC0
F9F800
81F000
03E000
03E000
03E000
03E000
07C000
07C000
07C000
07C000
0F8000
0F8000
0F8000
0F8000
0F8000
0F0000
ENDCHAR
ENDFONT
